%TF.GenerationSoftware,KiCad,Pcbnew,9.0.1*%
%TF.CreationDate,2025-05-23T21:25:03+03:00*%
%TF.ProjectId,Licenta_Ciolacu,4c696365-6e74-4615-9f43-696f6c616375,rev?*%
%TF.SameCoordinates,Original*%
%TF.FileFunction,Copper,L2,Bot*%
%TF.FilePolarity,Positive*%
%FSLAX46Y46*%
G04 Gerber Fmt 4.6, Leading zero omitted, Abs format (unit mm)*
G04 Created by KiCad (PCBNEW 9.0.1) date 2025-05-23 21:25:03*
%MOMM*%
%LPD*%
G01*
G04 APERTURE LIST*
G04 Aperture macros list*
%AMRoundRect*
0 Rectangle with rounded corners*
0 $1 Rounding radius*
0 $2 $3 $4 $5 $6 $7 $8 $9 X,Y pos of 4 corners*
0 Add a 4 corners polygon primitive as box body*
4,1,4,$2,$3,$4,$5,$6,$7,$8,$9,$2,$3,0*
0 Add four circle primitives for the rounded corners*
1,1,$1+$1,$2,$3*
1,1,$1+$1,$4,$5*
1,1,$1+$1,$6,$7*
1,1,$1+$1,$8,$9*
0 Add four rect primitives between the rounded corners*
20,1,$1+$1,$2,$3,$4,$5,0*
20,1,$1+$1,$4,$5,$6,$7,0*
20,1,$1+$1,$6,$7,$8,$9,0*
20,1,$1+$1,$8,$9,$2,$3,0*%
G04 Aperture macros list end*
%TA.AperFunction,ComponentPad*%
%ADD10R,1.700000X1.700000*%
%TD*%
%TA.AperFunction,ComponentPad*%
%ADD11C,1.700000*%
%TD*%
%TA.AperFunction,ComponentPad*%
%ADD12RoundRect,0.250000X-0.550000X0.550000X-0.550000X-0.550000X0.550000X-0.550000X0.550000X0.550000X0*%
%TD*%
%TA.AperFunction,ComponentPad*%
%ADD13C,1.600000*%
%TD*%
%TA.AperFunction,ComponentPad*%
%ADD14RoundRect,0.250000X0.550000X0.550000X-0.550000X0.550000X-0.550000X-0.550000X0.550000X-0.550000X0*%
%TD*%
%TA.AperFunction,ViaPad*%
%ADD15C,0.600000*%
%TD*%
%TA.AperFunction,Conductor*%
%ADD16C,0.500000*%
%TD*%
G04 APERTURE END LIST*
D10*
%TO.P,SW5,1,1*%
%TO.N,GPIO_21*%
X182372000Y-124968000D03*
X195072000Y-124968000D03*
D11*
%TO.P,SW5,2,2*%
%TO.N,GND*%
X182372000Y-130048000D03*
X195072000Y-130048000D03*
%TO.P,SW5,3*%
%TO.N,N/C*%
X182372000Y-127508000D03*
X195072000Y-127508000D03*
%TD*%
D10*
%TO.P,J3,1,Pin_1*%
%TO.N,unconnected-(J3-Pin_1-Pad1)*%
X116230000Y-57540000D03*
D11*
%TO.P,J3,2,Pin_26*%
%TO.N,5V*%
X116230000Y-55000000D03*
%TO.P,J3,3,Pin_2*%
%TO.N,unconnected-(J3-Pin_2-Pad3)*%
X118770000Y-57540000D03*
%TO.P,J3,4,4Pin_25*%
%TO.N,5V*%
X118770000Y-55000000D03*
%TO.P,J3,5,Pin_3*%
%TO.N,unconnected-(J3-Pin_3-Pad5)*%
X121310000Y-57540000D03*
%TO.P,J3,6,Pin_24*%
%TO.N,GND*%
X121310000Y-55000000D03*
%TO.P,J3,7,Pin_4*%
%TO.N,unconnected-(J3-Pin_4-Pad7)*%
X123850000Y-57540000D03*
%TO.P,J3,8,Pin_23*%
%TO.N,unconnected-(J3-Pin_23-Pad8)*%
X123850000Y-55000000D03*
%TO.P,J3,9,Pin_5*%
%TO.N,GND*%
X126390000Y-57540000D03*
%TO.P,J3,10,Pin_22*%
%TO.N,unconnected-(J3-Pin_22-Pad10)*%
X126390000Y-55000000D03*
%TO.P,J3,11,Pin_6*%
%TO.N,unconnected-(J3-Pin_6-Pad11)*%
X128930000Y-57540000D03*
%TO.P,J3,12,Pin_21*%
%TO.N,unconnected-(J3-Pin_21-Pad12)*%
X128930000Y-55000000D03*
%TO.P,J3,13,14*%
%TO.N,unconnected-(J3-14-Pad13)*%
X131470000Y-57540000D03*
%TO.P,J3,14,Pin_20*%
%TO.N,GND*%
X131470000Y-55000000D03*
%TO.P,J3,15,Pin_8*%
%TO.N,unconnected-(J3-Pin_8-Pad15)*%
X134010000Y-57540000D03*
%TO.P,J3,16,Pin_19*%
%TO.N,unconnected-(J3-Pin_19-Pad16)*%
X134010000Y-55000000D03*
%TO.P,J3,17,Pin_9*%
%TO.N,unconnected-(J3-Pin_9-Pad17)*%
X136550000Y-57540000D03*
%TO.P,J3,18,Pin_18*%
%TO.N,unconnected-(J3-Pin_18-Pad18)*%
X136550000Y-55000000D03*
%TO.P,J3,19,Pin_10*%
%TO.N,TP_MOSI*%
X139090000Y-57540000D03*
%TO.P,J3,20,2Pin_17*%
%TO.N,GND*%
X139090000Y-55000000D03*
%TO.P,J3,21,Pin_11*%
%TO.N,TP_MISO*%
X141630000Y-57540000D03*
%TO.P,J3,22,Pin_16*%
%TO.N,TP_IRQ*%
X141630000Y-55000000D03*
%TO.P,J3,23,Pin_12*%
%TO.N,TP_SCLK*%
X144170000Y-57540000D03*
%TO.P,J3,24,Pin_15*%
%TO.N,unconnected-(J3-Pin_15-Pad24)*%
X144170000Y-55000000D03*
%TO.P,J3,25,Pin_13*%
%TO.N,GND*%
X146710000Y-57540000D03*
%TO.P,J3,26,Pin_14*%
%TO.N,TP_CS*%
X146710000Y-55000000D03*
%TD*%
D10*
%TO.P,SW2,1,1*%
%TO.N,GPIO_6*%
X142494000Y-139954000D03*
X155194000Y-139954000D03*
D11*
%TO.P,SW2,2,2*%
%TO.N,GND*%
X142494000Y-145034000D03*
X155194000Y-145034000D03*
%TO.P,SW2,3*%
%TO.N,N/C*%
X142494000Y-142494000D03*
X155194000Y-142494000D03*
%TD*%
D10*
%TO.P,SW6,1,1*%
%TO.N,GPIO_19*%
X122428000Y-139954000D03*
X135128000Y-139954000D03*
D11*
%TO.P,SW6,2,2*%
%TO.N,GND*%
X122428000Y-145034000D03*
X135128000Y-145034000D03*
%TO.P,SW6,3*%
%TO.N,N/C*%
X122428000Y-142494000D03*
X135128000Y-142494000D03*
%TD*%
D10*
%TO.P,SW1,1,1*%
%TO.N,GPIO_26*%
X122428000Y-124968000D03*
X135128000Y-124968000D03*
D11*
%TO.P,SW1,2,2*%
%TO.N,GND*%
X122428000Y-130048000D03*
X135128000Y-130048000D03*
%TO.P,SW1,3*%
%TO.N,N/C*%
X122428000Y-127508000D03*
X135128000Y-127508000D03*
%TD*%
D10*
%TO.P,J1,1,3V3*%
%TO.N,3V3*%
X142734400Y-66883800D03*
D11*
%TO.P,J1,2,5V*%
%TO.N,5V*%
X142734400Y-64343800D03*
%TO.P,J1,3,SDA_I2C1/GPIO02*%
%TO.N,unconnected-(J1-SDA_I2C1{slash}GPIO02-Pad3)*%
X145274400Y-66883800D03*
%TO.P,J1,4,5V*%
%TO.N,5V*%
X145274400Y-64343800D03*
%TO.P,J1,5,SCL_I2C1/GPIO03*%
%TO.N,unconnected-(J1-SCL_I2C1{slash}GPIO03-Pad5)*%
X147814400Y-66883800D03*
%TO.P,J1,6,GND*%
%TO.N,GND*%
X147814400Y-64343800D03*
%TO.P,J1,7,GPCLK0/GPIO04*%
%TO.N,unconnected-(J1-GPCLK0{slash}GPIO04-Pad7)*%
X150354400Y-66883800D03*
%TO.P,J1,8,GPIO14/UART_TXD*%
%TO.N,unconnected-(J1-GPIO14{slash}UART_TXD-Pad8)*%
X150354400Y-64343800D03*
%TO.P,J1,9,GND*%
%TO.N,GND*%
X152894400Y-66883800D03*
%TO.P,J1,10,GPIO15/UART_RXD*%
%TO.N,unconnected-(J1-GPIO15{slash}UART_RXD-Pad10)*%
X152894400Y-64343800D03*
%TO.P,J1,11,GPIO17/SPI1_~{CE1}*%
%TO.N,unconnected-(J1-GPIO17{slash}SPI1_~{CE1}-Pad11)*%
X155434400Y-66883800D03*
%TO.P,J1,12,GPIO18/SPI1_~{CE0}/PCM_CLK/PWM0*%
%TO.N,unconnected-(J1-GPIO18{slash}SPI1_~{CE0}{slash}PCM_CLK{slash}PWM0-Pad12)*%
X155434400Y-64343800D03*
%TO.P,J1,13,GPIO27/SDIO_DAT3*%
%TO.N,unconnected-(J1-GPIO27{slash}SDIO_DAT3-Pad13)*%
X157974400Y-66883800D03*
%TO.P,J1,14,GND*%
%TO.N,GND*%
X157974400Y-64343800D03*
%TO.P,J1,15,GPIO22/SDIO_CLK*%
%TO.N,unconnected-(J1-GPIO22{slash}SDIO_CLK-Pad15)*%
X160514400Y-66883800D03*
%TO.P,J1,16,GPIO23/SDIO_CMD*%
%TO.N,GPIO_23*%
X160514400Y-64343800D03*
%TO.P,J1,17,3V3*%
%TO.N,3V3*%
X163054400Y-66883800D03*
%TO.P,J1,18,GPIO24/SDIO_DAT0*%
%TO.N,GPIO_24*%
X163054400Y-64343800D03*
%TO.P,J1,19,MOSI_SPI0/GPIO10*%
%TO.N,TP_MOSI*%
X165594400Y-66883800D03*
%TO.P,J1,20,GND*%
%TO.N,GND*%
X165594400Y-64343800D03*
%TO.P,J1,21,MISO_SPI0/GPIO09*%
%TO.N,TP_MISO*%
X168134400Y-66883800D03*
%TO.P,J1,22,GPIO25/SDIO_DAT1*%
%TO.N,TP_IRQ*%
X168134400Y-64343800D03*
%TO.P,J1,23,SCLK_SPI0/GPIO11*%
%TO.N,TP_SCLK*%
X170674400Y-66883800D03*
%TO.P,J1,24,~{CE0}_SPI0/GPIO08*%
%TO.N,unconnected-(J1-~{CE0}_SPI0{slash}GPIO08-Pad24)*%
X170674400Y-64343800D03*
%TO.P,J1,25,GND*%
%TO.N,GND*%
X173214400Y-66883800D03*
%TO.P,J1,26,~{CE1}_SPI0/GPIO07*%
%TO.N,TP_CS*%
X173214400Y-64343800D03*
%TO.P,J1,27,ID_SD_I2C0/GPIO00*%
%TO.N,unconnected-(J1-ID_SD_I2C0{slash}GPIO00-Pad27)*%
X175754400Y-66883800D03*
%TO.P,J1,28,ID_SC_I2C0/GPIO01*%
%TO.N,unconnected-(J1-ID_SC_I2C0{slash}GPIO01-Pad28)*%
X175754400Y-64343800D03*
%TO.P,J1,29,GPCLK1/GPIO05*%
%TO.N,GPIO_5*%
X178294400Y-66883800D03*
%TO.P,J1,30,GND*%
%TO.N,GND*%
X178294400Y-64343800D03*
%TO.P,J1,31,GPCLK2/GPIO06*%
%TO.N,GPIO_6*%
X180834400Y-66883800D03*
%TO.P,J1,32,GPIO12/PWM0*%
%TO.N,unconnected-(J1-GPIO12{slash}PWM0-Pad32)*%
X180834400Y-64343800D03*
%TO.P,J1,33,GPIO13/PWM1*%
%TO.N,GPIO_13*%
X183374400Y-66883800D03*
%TO.P,J1,34,GND*%
%TO.N,GND*%
X183374400Y-64343800D03*
%TO.P,J1,35,GPIO19/SPI1_MISO/PCM_FS*%
%TO.N,GPIO_19*%
X185914400Y-66883800D03*
%TO.P,J1,36,GPIO16/SPI1_~{CE2}*%
%TO.N,GPIO_16*%
X185914400Y-64343800D03*
%TO.P,J1,37,GPIO26/SDIO_DAT2*%
%TO.N,GPIO_26*%
X188454400Y-66883800D03*
%TO.P,J1,38,GPIO20/SPI1_MOSI/PCM_DIN/PWM1*%
%TO.N,GPIO_20*%
X188454400Y-64343800D03*
%TO.P,J1,39,GND*%
%TO.N,GND*%
X190994400Y-66883800D03*
%TO.P,J1,40,GPIO21/SPI1_SCLK/PCM_DOUT*%
%TO.N,GPIO_21*%
X190994400Y-64343800D03*
%TD*%
D10*
%TO.P,SW4,1,1*%
%TO.N,GPIO_5*%
X162306000Y-124968000D03*
X175006000Y-124968000D03*
D11*
%TO.P,SW4,2,2*%
%TO.N,GND*%
X162306000Y-130048000D03*
X175006000Y-130048000D03*
%TO.P,SW4,3*%
%TO.N,N/C*%
X162306000Y-127508000D03*
X175006000Y-127508000D03*
%TD*%
D10*
%TO.P,SW3,1,1*%
%TO.N,GPIO_13*%
X102362000Y-139954000D03*
X115062000Y-139954000D03*
D11*
%TO.P,SW3,2,2*%
%TO.N,GND*%
X102362000Y-145034000D03*
X115062000Y-145034000D03*
%TO.P,SW3,3*%
%TO.N,N/C*%
X102362000Y-142494000D03*
X115062000Y-142494000D03*
%TD*%
D10*
%TO.P,J2,1,GND*%
%TO.N,GND*%
X174345600Y-137160000D03*
D11*
%TO.P,J2,2,5V*%
%TO.N,5V*%
X176885600Y-137160000D03*
%TO.P,J2,3,VRx*%
%TO.N,Net-(J2-VRx)*%
X179425600Y-137160000D03*
%TO.P,J2,4,VRy*%
%TO.N,Net-(J2-VRy)*%
X181965600Y-137160000D03*
%TO.P,J2,5,SW*%
%TO.N,unconnected-(J2-SW-Pad5)*%
X184505600Y-137160000D03*
%TD*%
D12*
%TO.P,U1,1,CS*%
%TO.N,GPIO_24*%
X144920000Y-120000000D03*
D13*
%TO.P,U1,2,ANALOG0*%
%TO.N,Net-(J2-VRx)*%
X147460000Y-120000000D03*
%TO.P,U1,3,ANALOG1*%
%TO.N,Net-(J2-VRy)*%
X150000000Y-120000000D03*
%TO.P,U1,4,GND*%
%TO.N,GND*%
X152540000Y-120000000D03*
%TO.P,U1,5,DIN*%
%TO.N,GPIO_20*%
X152540000Y-127620000D03*
%TO.P,U1,6,DOUT*%
%TO.N,Net-(J4-A1)*%
X150000000Y-127620000D03*
%TO.P,U1,7,CLK*%
%TO.N,GPIO_23*%
X147460000Y-127620000D03*
%TO.P,U1,8,VCC*%
%TO.N,5V*%
X144920000Y-127620000D03*
%TD*%
D14*
%TO.P,J4,1,LV*%
%TO.N,3V3*%
X115080000Y-118650000D03*
D13*
%TO.P,J4,2,A1*%
%TO.N,Net-(J4-A1)*%
X115080000Y-121190000D03*
%TO.P,J4,3,A2*%
%TO.N,unconnected-(J4-A2-Pad3)*%
X115080000Y-123730000D03*
%TO.P,J4,4,A3*%
%TO.N,unconnected-(J4-A3-Pad4)*%
X115080000Y-126270000D03*
%TO.P,J4,5,A4*%
%TO.N,unconnected-(J4-A4-Pad5)*%
X115080000Y-128810000D03*
%TO.P,J4,6,OE*%
%TO.N,unconnected-(J4-OE-Pad6)*%
X115080000Y-131350000D03*
%TO.P,J4,7,GND*%
%TO.N,GND*%
X104920000Y-131350000D03*
%TO.P,J4,8,B4*%
%TO.N,unconnected-(J4-B4-Pad8)*%
X104920000Y-128810000D03*
%TO.P,J4,9,B3*%
%TO.N,unconnected-(J4-B3-Pad9)*%
X104920000Y-126270000D03*
%TO.P,J4,10,B2*%
%TO.N,unconnected-(J4-B2-Pad10)*%
X104920000Y-123730000D03*
%TO.P,J4,11,B1*%
%TO.N,GPIO_16*%
X104920000Y-121190000D03*
%TO.P,J4,12,HV*%
%TO.N,5V*%
X104920000Y-118650000D03*
%TD*%
D15*
%TO.N,TP_MOSI*%
X141224000Y-71856600D03*
%TO.N,TP_SCLK*%
X141108800Y-65455800D03*
%TO.N,3V3*%
X136601200Y-76835000D03*
X143738600Y-73126600D03*
X129743200Y-79375000D03*
%TO.N,5V*%
X152171400Y-133781800D03*
%TO.N,GPIO_23*%
X131663559Y-60834759D03*
%TO.N,GPIO_24*%
X134162800Y-59563000D03*
%TO.N,Net-(J2-VRx)*%
X179373800Y-117260000D03*
%TO.N,Net-(J2-VRy)*%
X180771800Y-118694200D03*
%TD*%
D16*
%TO.N,GPIO_26*%
X122428000Y-124968000D02*
X135128000Y-124968000D01*
%TO.N,GPIO_6*%
X172262914Y-134772400D02*
X167081314Y-139954000D01*
X177190400Y-119928586D02*
X177190400Y-131546600D01*
X167081314Y-139954000D02*
X155194000Y-139954000D01*
X177190400Y-131546600D02*
X173964600Y-134772400D01*
X178251000Y-118852800D02*
X178251000Y-118867986D01*
X173964600Y-134772400D02*
X172262914Y-134772400D01*
X178523800Y-118580000D02*
X178251000Y-118852800D01*
X180840000Y-66830000D02*
X178523800Y-69146200D01*
X178523800Y-69146200D02*
X178523800Y-118580000D01*
X178251000Y-118867986D02*
X177190400Y-119928586D01*
%TO.N,GPIO_13*%
X180148984Y-147662000D02*
X153758000Y-147662000D01*
X189103000Y-138707984D02*
X180148984Y-147662000D01*
X183380000Y-66830000D02*
X189103000Y-72553000D01*
X118094000Y-136906000D02*
X115000000Y-140000000D01*
X143002000Y-136906000D02*
X118094000Y-136906000D01*
X153758000Y-147662000D02*
X143002000Y-136906000D01*
X189103000Y-72553000D02*
X189103000Y-138707984D01*
%TO.N,TP_MOSI*%
X161968814Y-74408400D02*
X165600000Y-70777214D01*
X142317786Y-74408400D02*
X161968814Y-74408400D01*
X141224000Y-71856600D02*
X141224000Y-73314614D01*
X141224000Y-73314614D02*
X142317786Y-74408400D01*
X165600000Y-70777214D02*
X165600000Y-66830000D01*
%TO.N,TP_CS*%
X163930000Y-55000000D02*
X173220000Y-64290000D01*
X146710000Y-55000000D02*
X163930000Y-55000000D01*
%TO.N,TP_SCLK*%
X162300600Y-75209400D02*
X170680000Y-66830000D01*
X139649200Y-66852800D02*
X139649200Y-72872600D01*
X141108800Y-65455800D02*
X141046200Y-65455800D01*
X141046200Y-65455800D02*
X139649200Y-66852800D01*
X139649200Y-72872600D02*
X141986000Y-75209400D01*
X141986000Y-75209400D02*
X162300600Y-75209400D01*
%TO.N,3V3*%
X143738600Y-68148200D02*
X142740000Y-67149600D01*
X143738600Y-73126600D02*
X143738600Y-68148200D01*
X130683000Y-78435200D02*
X135001000Y-78435200D01*
X135001000Y-78435200D02*
X136601200Y-76835000D01*
X142740000Y-67149600D02*
X142740000Y-66830000D01*
X129743200Y-79375000D02*
X130683000Y-78435200D01*
%TO.N,GPIO_5*%
X177450000Y-118536200D02*
X177038000Y-118948200D01*
X175000000Y-120986200D02*
X175000000Y-125000000D01*
X178300000Y-66830000D02*
X177450000Y-67680000D01*
X177038000Y-118948200D02*
X175000000Y-120986200D01*
X177450000Y-67680000D02*
X177450000Y-118536200D01*
X162500000Y-125000000D02*
X175000000Y-125000000D01*
%TO.N,GPIO_6*%
X155000000Y-140000000D02*
X155650000Y-140000000D01*
%TO.N,5V*%
X120178000Y-64290000D02*
X114829000Y-58941000D01*
X116230000Y-55000000D02*
X118770000Y-55000000D01*
X151081800Y-133781800D02*
X144920000Y-127620000D01*
X110489200Y-113080800D02*
X131851400Y-113080800D01*
X144920000Y-127620000D02*
X133858000Y-116558000D01*
X104920000Y-118650000D02*
X110489200Y-113080800D01*
X152171400Y-133781800D02*
X151081800Y-133781800D01*
X114829000Y-56401000D02*
X116230000Y-55000000D01*
X145280000Y-64290000D02*
X142740000Y-64290000D01*
X135153400Y-64290000D02*
X120178000Y-64290000D01*
X114829000Y-58941000D02*
X114829000Y-56401000D01*
X138201400Y-106730800D02*
X138201400Y-67338000D01*
X142740000Y-64290000D02*
X135153400Y-64290000D01*
X138201400Y-67338000D02*
X135153400Y-64290000D01*
X131851400Y-113080800D02*
X133858000Y-111074200D01*
X133858000Y-111074200D02*
X138201400Y-106730800D01*
X133858000Y-116558000D02*
X133858000Y-111074200D01*
%TO.N,GPIO_23*%
X131788800Y-60960000D02*
X131663559Y-60834759D01*
X157190000Y-60960000D02*
X131788800Y-60960000D01*
X160520000Y-64290000D02*
X157190000Y-60960000D01*
%TO.N,GPIO_24*%
X158333000Y-59563000D02*
X163060000Y-64290000D01*
X134162800Y-59563000D02*
X158333000Y-59563000D01*
%TO.N,GPIO_19*%
X135128000Y-139954000D02*
X135255000Y-139954000D01*
X143764000Y-148463000D02*
X180480770Y-148463000D01*
X189907800Y-70817800D02*
X185920000Y-66830000D01*
X189907800Y-139035970D02*
X189907800Y-70817800D01*
X180480770Y-148463000D02*
X189907800Y-139035970D01*
X135255000Y-139954000D02*
X143764000Y-148463000D01*
%TO.N,Net-(J2-VRx)*%
X178003200Y-120248572D02*
X178003200Y-134279586D01*
X179052000Y-119184585D02*
X179052000Y-119199772D01*
X178003200Y-134279586D02*
X180129207Y-136405593D01*
X179373800Y-117270800D02*
X179324800Y-117221800D01*
X179052000Y-119199772D02*
X178003200Y-120248572D01*
X179373800Y-117260000D02*
X179373800Y-117270800D01*
X180129207Y-136405593D02*
X179425600Y-137109200D01*
X179324800Y-118911786D02*
X179052000Y-119184585D01*
X179324800Y-117221800D02*
X179324800Y-118911786D01*
%TO.N,Net-(J2-VRy)*%
X178804200Y-120661800D02*
X180771800Y-118694200D01*
X181965600Y-137109200D02*
X178804200Y-133947800D01*
X178804200Y-133947800D02*
X178804200Y-120661800D01*
%TD*%
%TA.AperFunction,Conductor*%
%TO.N,GND*%
G36*
X144049702Y-139015516D02*
G01*
X144056180Y-139021548D01*
X152535451Y-147500819D01*
X152568936Y-147562142D01*
X152563952Y-147631834D01*
X152522080Y-147687767D01*
X152456616Y-147712184D01*
X152447770Y-147712500D01*
X144126229Y-147712500D01*
X144059190Y-147692815D01*
X144038548Y-147676181D01*
X142879997Y-146517629D01*
X142846512Y-146456306D01*
X142851496Y-146386614D01*
X142893368Y-146330681D01*
X142929361Y-146312017D01*
X143012215Y-146285096D01*
X143201554Y-146188622D01*
X143255716Y-146149270D01*
X143255717Y-146149270D01*
X142623408Y-145516962D01*
X142686993Y-145499925D01*
X142801007Y-145434099D01*
X142894099Y-145341007D01*
X142959925Y-145226993D01*
X142976962Y-145163408D01*
X143609270Y-145795717D01*
X143609270Y-145795716D01*
X143648622Y-145741554D01*
X143745095Y-145552217D01*
X143810757Y-145350130D01*
X143810757Y-145350127D01*
X143844000Y-145140246D01*
X143844000Y-144927753D01*
X143810757Y-144717872D01*
X143810757Y-144717869D01*
X143745095Y-144515782D01*
X143648624Y-144326449D01*
X143609270Y-144272282D01*
X143609269Y-144272282D01*
X142976962Y-144904590D01*
X142959925Y-144841007D01*
X142894099Y-144726993D01*
X142801007Y-144633901D01*
X142686993Y-144568075D01*
X142623409Y-144551037D01*
X143255716Y-143918728D01*
X143201547Y-143879373D01*
X143201547Y-143879372D01*
X143192500Y-143874763D01*
X143141706Y-143826788D01*
X143124912Y-143758966D01*
X143147451Y-143692832D01*
X143192508Y-143653793D01*
X143201816Y-143649051D01*
X143281007Y-143591515D01*
X143373786Y-143524109D01*
X143373788Y-143524106D01*
X143373792Y-143524104D01*
X143524104Y-143373792D01*
X143524106Y-143373788D01*
X143524109Y-143373786D01*
X143649048Y-143201820D01*
X143649047Y-143201820D01*
X143649051Y-143201816D01*
X143745557Y-143012412D01*
X143811246Y-142810243D01*
X143844500Y-142600287D01*
X143844500Y-142387713D01*
X143811246Y-142177757D01*
X143745557Y-141975588D01*
X143649051Y-141786184D01*
X143649049Y-141786181D01*
X143649048Y-141786179D01*
X143524109Y-141614213D01*
X143410569Y-141500673D01*
X143377084Y-141439350D01*
X143382068Y-141369658D01*
X143423940Y-141313725D01*
X143454915Y-141296810D01*
X143586331Y-141247796D01*
X143701546Y-141161546D01*
X143787796Y-141046331D01*
X143838091Y-140911483D01*
X143844500Y-140851873D01*
X143844499Y-139109228D01*
X143864184Y-139042190D01*
X143916987Y-138996435D01*
X143986146Y-138986491D01*
X144049702Y-139015516D01*
G37*
%TD.AperFunction*%
%TA.AperFunction,Conductor*%
G36*
X176387345Y-128083692D02*
G01*
X176430797Y-128138407D01*
X176439900Y-128185041D01*
X176439900Y-129372059D01*
X176420215Y-129439098D01*
X176367411Y-129484853D01*
X176298253Y-129494797D01*
X176234697Y-129465772D01*
X176205416Y-129428355D01*
X176160626Y-129340452D01*
X176121270Y-129286282D01*
X176121269Y-129286282D01*
X175488962Y-129918590D01*
X175471925Y-129855007D01*
X175406099Y-129740993D01*
X175313007Y-129647901D01*
X175198993Y-129582075D01*
X175135409Y-129565037D01*
X175767716Y-128932728D01*
X175713547Y-128893373D01*
X175713547Y-128893372D01*
X175704500Y-128888763D01*
X175653706Y-128840788D01*
X175636912Y-128772966D01*
X175659451Y-128706832D01*
X175704508Y-128667793D01*
X175713816Y-128663051D01*
X175793007Y-128605515D01*
X175885786Y-128538109D01*
X175885788Y-128538106D01*
X175885792Y-128538104D01*
X176036104Y-128387792D01*
X176036106Y-128387788D01*
X176036109Y-128387786D01*
X176161048Y-128215820D01*
X176161047Y-128215820D01*
X176161051Y-128215816D01*
X176205415Y-128128745D01*
X176253389Y-128077950D01*
X176321210Y-128061155D01*
X176387345Y-128083692D01*
G37*
%TD.AperFunction*%
%TA.AperFunction,Conductor*%
G36*
X152428475Y-67076793D02*
G01*
X152494301Y-67190807D01*
X152587393Y-67283899D01*
X152701407Y-67349725D01*
X152764990Y-67366762D01*
X152132682Y-67999069D01*
X152132682Y-67999070D01*
X152186849Y-68038424D01*
X152376182Y-68134895D01*
X152578270Y-68200557D01*
X152788154Y-68233800D01*
X153000646Y-68233800D01*
X153210527Y-68200557D01*
X153210530Y-68200557D01*
X153412617Y-68134895D01*
X153601954Y-68038422D01*
X153656116Y-67999070D01*
X153656117Y-67999070D01*
X153023808Y-67366762D01*
X153087393Y-67349725D01*
X153201407Y-67283899D01*
X153294499Y-67190807D01*
X153360325Y-67076793D01*
X153377362Y-67013209D01*
X154009670Y-67645517D01*
X154009670Y-67645516D01*
X154049022Y-67591355D01*
X154053632Y-67582307D01*
X154101605Y-67531509D01*
X154169425Y-67514712D01*
X154235561Y-67537247D01*
X154274604Y-67582304D01*
X154279349Y-67591617D01*
X154404290Y-67763586D01*
X154554613Y-67913909D01*
X154726579Y-68038848D01*
X154726581Y-68038849D01*
X154726584Y-68038851D01*
X154915988Y-68135357D01*
X155118157Y-68201046D01*
X155328113Y-68234300D01*
X155328114Y-68234300D01*
X155540686Y-68234300D01*
X155540687Y-68234300D01*
X155750643Y-68201046D01*
X155952812Y-68135357D01*
X156142216Y-68038851D01*
X156179300Y-68011908D01*
X156314186Y-67913909D01*
X156314188Y-67913906D01*
X156314192Y-67913904D01*
X156464504Y-67763592D01*
X156464506Y-67763588D01*
X156464509Y-67763586D01*
X156589448Y-67591620D01*
X156589447Y-67591620D01*
X156589451Y-67591616D01*
X156593914Y-67582854D01*
X156641888Y-67532059D01*
X156709708Y-67515263D01*
X156775844Y-67537799D01*
X156814886Y-67582856D01*
X156819351Y-67591620D01*
X156944290Y-67763586D01*
X157094613Y-67913909D01*
X157266579Y-68038848D01*
X157266581Y-68038849D01*
X157266584Y-68038851D01*
X157455988Y-68135357D01*
X157658157Y-68201046D01*
X157868113Y-68234300D01*
X157868114Y-68234300D01*
X158080686Y-68234300D01*
X158080687Y-68234300D01*
X158290643Y-68201046D01*
X158492812Y-68135357D01*
X158682216Y-68038851D01*
X158719300Y-68011908D01*
X158854186Y-67913909D01*
X158854188Y-67913906D01*
X158854192Y-67913904D01*
X159004504Y-67763592D01*
X159004506Y-67763588D01*
X159004509Y-67763586D01*
X159129448Y-67591620D01*
X159129447Y-67591620D01*
X159129451Y-67591616D01*
X159133914Y-67582854D01*
X159181888Y-67532059D01*
X159249708Y-67515263D01*
X159315844Y-67537799D01*
X159354886Y-67582856D01*
X159359351Y-67591620D01*
X159484290Y-67763586D01*
X159634613Y-67913909D01*
X159806579Y-68038848D01*
X159806581Y-68038849D01*
X159806584Y-68038851D01*
X159995988Y-68135357D01*
X160198157Y-68201046D01*
X160408113Y-68234300D01*
X160408114Y-68234300D01*
X160620686Y-68234300D01*
X160620687Y-68234300D01*
X160830643Y-68201046D01*
X161032812Y-68135357D01*
X161222216Y-68038851D01*
X161259300Y-68011908D01*
X161394186Y-67913909D01*
X161394188Y-67913906D01*
X161394192Y-67913904D01*
X161544504Y-67763592D01*
X161544506Y-67763588D01*
X161544509Y-67763586D01*
X161669448Y-67591620D01*
X161669447Y-67591620D01*
X161669451Y-67591616D01*
X161673914Y-67582854D01*
X161721888Y-67532059D01*
X161789708Y-67515263D01*
X161855844Y-67537799D01*
X161894886Y-67582856D01*
X161899351Y-67591620D01*
X162024290Y-67763586D01*
X162174613Y-67913909D01*
X162346579Y-68038848D01*
X162346581Y-68038849D01*
X162346584Y-68038851D01*
X162535988Y-68135357D01*
X162738157Y-68201046D01*
X162948113Y-68234300D01*
X162948114Y-68234300D01*
X163160686Y-68234300D01*
X163160687Y-68234300D01*
X163370643Y-68201046D01*
X163572812Y-68135357D01*
X163762216Y-68038851D01*
X163799300Y-68011908D01*
X163934186Y-67913909D01*
X163934188Y-67913906D01*
X163934192Y-67913904D01*
X164084504Y-67763592D01*
X164084506Y-67763588D01*
X164084509Y-67763586D01*
X164209448Y-67591620D01*
X164209447Y-67591620D01*
X164209451Y-67591616D01*
X164213914Y-67582854D01*
X164261888Y-67532059D01*
X164329708Y-67515263D01*
X164395844Y-67537799D01*
X164434886Y-67582856D01*
X164439351Y-67591620D01*
X164564290Y-67763586D01*
X164714611Y-67913907D01*
X164798384Y-67974770D01*
X164841051Y-68030099D01*
X164849500Y-68075089D01*
X164849500Y-70414984D01*
X164829815Y-70482023D01*
X164813181Y-70502665D01*
X161694265Y-73621581D01*
X161632942Y-73655066D01*
X161606584Y-73657900D01*
X144570563Y-73657900D01*
X144503524Y-73638215D01*
X144457769Y-73585411D01*
X144447825Y-73516253D01*
X144456002Y-73486448D01*
X144508335Y-73360101D01*
X144508337Y-73360097D01*
X144539100Y-73205442D01*
X144539100Y-73047758D01*
X144539100Y-73047755D01*
X144539099Y-73047753D01*
X144508339Y-72893111D01*
X144508338Y-72893108D01*
X144508337Y-72893103D01*
X144498537Y-72869444D01*
X144489100Y-72821996D01*
X144489100Y-68201720D01*
X144508785Y-68134681D01*
X144561589Y-68088926D01*
X144630747Y-68078982D01*
X144669394Y-68091235D01*
X144696131Y-68104858D01*
X144755983Y-68135355D01*
X144755985Y-68135355D01*
X144755988Y-68135357D01*
X144958157Y-68201046D01*
X145168113Y-68234300D01*
X145168114Y-68234300D01*
X145380686Y-68234300D01*
X145380687Y-68234300D01*
X145590643Y-68201046D01*
X145792812Y-68135357D01*
X145982216Y-68038851D01*
X146019300Y-68011908D01*
X146154186Y-67913909D01*
X146154188Y-67913906D01*
X146154192Y-67913904D01*
X146304504Y-67763592D01*
X146304506Y-67763588D01*
X146304509Y-67763586D01*
X146429448Y-67591620D01*
X146429447Y-67591620D01*
X146429451Y-67591616D01*
X146433914Y-67582854D01*
X146481888Y-67532059D01*
X146549708Y-67515263D01*
X146615844Y-67537799D01*
X146654886Y-67582856D01*
X146659351Y-67591620D01*
X146784290Y-67763586D01*
X146934613Y-67913909D01*
X147106579Y-68038848D01*
X147106581Y-68038849D01*
X147106584Y-68038851D01*
X147295988Y-68135357D01*
X147498157Y-68201046D01*
X147708113Y-68234300D01*
X147708114Y-68234300D01*
X147920686Y-68234300D01*
X147920687Y-68234300D01*
X148130643Y-68201046D01*
X148332812Y-68135357D01*
X148522216Y-68038851D01*
X148559300Y-68011908D01*
X148694186Y-67913909D01*
X148694188Y-67913906D01*
X148694192Y-67913904D01*
X148844504Y-67763592D01*
X148844506Y-67763588D01*
X148844509Y-67763586D01*
X148969448Y-67591620D01*
X148969447Y-67591620D01*
X148969451Y-67591616D01*
X148973914Y-67582854D01*
X149021888Y-67532059D01*
X149089708Y-67515263D01*
X149155844Y-67537799D01*
X149194886Y-67582856D01*
X149199351Y-67591620D01*
X149324290Y-67763586D01*
X149474613Y-67913909D01*
X149646579Y-68038848D01*
X149646581Y-68038849D01*
X149646584Y-68038851D01*
X149835988Y-68135357D01*
X150038157Y-68201046D01*
X150248113Y-68234300D01*
X150248114Y-68234300D01*
X150460686Y-68234300D01*
X150460687Y-68234300D01*
X150670643Y-68201046D01*
X150872812Y-68135357D01*
X151062216Y-68038851D01*
X151099300Y-68011908D01*
X151234186Y-67913909D01*
X151234188Y-67913906D01*
X151234192Y-67913904D01*
X151384504Y-67763592D01*
X151384506Y-67763588D01*
X151384509Y-67763586D01*
X151470290Y-67645517D01*
X151509451Y-67591616D01*
X151514193Y-67582308D01*
X151562163Y-67531511D01*
X151629983Y-67514711D01*
X151696119Y-67537245D01*
X151735163Y-67582300D01*
X151739773Y-67591347D01*
X151779128Y-67645516D01*
X152411437Y-67013208D01*
X152428475Y-67076793D01*
G37*
%TD.AperFunction*%
%TA.AperFunction,Conductor*%
G36*
X151695844Y-64997799D02*
G01*
X151734884Y-65042854D01*
X151737351Y-65047695D01*
X151739351Y-65051620D01*
X151864290Y-65223586D01*
X152014613Y-65373909D01*
X152186579Y-65498848D01*
X152186581Y-65498849D01*
X152186584Y-65498851D01*
X152195893Y-65503594D01*
X152246690Y-65551566D01*
X152263487Y-65619387D01*
X152240952Y-65685522D01*
X152195905Y-65724560D01*
X152186846Y-65729176D01*
X152186840Y-65729180D01*
X152132682Y-65768527D01*
X152132682Y-65768528D01*
X152764991Y-66400837D01*
X152701407Y-66417875D01*
X152587393Y-66483701D01*
X152494301Y-66576793D01*
X152428475Y-66690807D01*
X152411437Y-66754391D01*
X151779128Y-66122082D01*
X151779127Y-66122082D01*
X151739780Y-66176240D01*
X151739776Y-66176246D01*
X151735160Y-66185305D01*
X151687181Y-66236097D01*
X151619359Y-66252887D01*
X151553226Y-66230343D01*
X151514194Y-66185293D01*
X151509451Y-66175984D01*
X151509449Y-66175981D01*
X151509448Y-66175979D01*
X151384509Y-66004013D01*
X151234186Y-65853690D01*
X151062220Y-65728751D01*
X151054000Y-65724563D01*
X151053454Y-65724285D01*
X151002659Y-65676312D01*
X150985863Y-65608492D01*
X151008399Y-65542356D01*
X151053454Y-65503315D01*
X151062216Y-65498851D01*
X151151954Y-65433653D01*
X151234186Y-65373909D01*
X151234188Y-65373906D01*
X151234192Y-65373904D01*
X151384504Y-65223592D01*
X151384506Y-65223588D01*
X151384509Y-65223586D01*
X151509448Y-65051620D01*
X151509447Y-65051620D01*
X151509451Y-65051616D01*
X151513914Y-65042854D01*
X151561888Y-64992059D01*
X151629708Y-64975263D01*
X151695844Y-64997799D01*
G37*
%TD.AperFunction*%
%TA.AperFunction,Conductor*%
G36*
X172015844Y-64997799D02*
G01*
X172054884Y-65042854D01*
X172057351Y-65047695D01*
X172059351Y-65051620D01*
X172184290Y-65223586D01*
X172334613Y-65373909D01*
X172506579Y-65498848D01*
X172506581Y-65498849D01*
X172506584Y-65498851D01*
X172515893Y-65503594D01*
X172566690Y-65551566D01*
X172583487Y-65619387D01*
X172560952Y-65685522D01*
X172515905Y-65724560D01*
X172506846Y-65729176D01*
X172506840Y-65729180D01*
X172452682Y-65768527D01*
X172452682Y-65768528D01*
X173084991Y-66400837D01*
X173021407Y-66417875D01*
X172907393Y-66483701D01*
X172814301Y-66576793D01*
X172748475Y-66690807D01*
X172731437Y-66754391D01*
X172099128Y-66122082D01*
X172099127Y-66122082D01*
X172059780Y-66176240D01*
X172059776Y-66176246D01*
X172055160Y-66185305D01*
X172007181Y-66236097D01*
X171939359Y-66252887D01*
X171873226Y-66230343D01*
X171834194Y-66185293D01*
X171829451Y-66175984D01*
X171829449Y-66175981D01*
X171829448Y-66175979D01*
X171704509Y-66004013D01*
X171554186Y-65853690D01*
X171382220Y-65728751D01*
X171374000Y-65724563D01*
X171373454Y-65724285D01*
X171322659Y-65676312D01*
X171305863Y-65608492D01*
X171328399Y-65542356D01*
X171373454Y-65503315D01*
X171382216Y-65498851D01*
X171471954Y-65433653D01*
X171554186Y-65373909D01*
X171554188Y-65373906D01*
X171554192Y-65373904D01*
X171704504Y-65223592D01*
X171704506Y-65223588D01*
X171704509Y-65223586D01*
X171829448Y-65051620D01*
X171829447Y-65051620D01*
X171829451Y-65051616D01*
X171833914Y-65042854D01*
X171881888Y-64992059D01*
X171949708Y-64975263D01*
X172015844Y-64997799D01*
G37*
%TD.AperFunction*%
%TA.AperFunction,Conductor*%
G36*
X189795844Y-64997799D02*
G01*
X189834884Y-65042854D01*
X189837351Y-65047695D01*
X189839351Y-65051620D01*
X189964290Y-65223586D01*
X190114613Y-65373909D01*
X190286579Y-65498848D01*
X190286581Y-65498849D01*
X190286584Y-65498851D01*
X190295893Y-65503594D01*
X190346690Y-65551566D01*
X190363487Y-65619387D01*
X190340952Y-65685522D01*
X190295905Y-65724560D01*
X190286846Y-65729176D01*
X190286840Y-65729180D01*
X190232682Y-65768527D01*
X190232682Y-65768528D01*
X190864991Y-66400837D01*
X190801407Y-66417875D01*
X190687393Y-66483701D01*
X190594301Y-66576793D01*
X190528475Y-66690807D01*
X190511437Y-66754391D01*
X189879128Y-66122082D01*
X189879127Y-66122082D01*
X189839780Y-66176240D01*
X189839776Y-66176246D01*
X189835160Y-66185305D01*
X189787181Y-66236097D01*
X189719359Y-66252887D01*
X189653226Y-66230343D01*
X189614194Y-66185293D01*
X189609451Y-66175984D01*
X189609449Y-66175981D01*
X189609448Y-66175979D01*
X189484509Y-66004013D01*
X189334186Y-65853690D01*
X189162220Y-65728751D01*
X189154000Y-65724563D01*
X189153454Y-65724285D01*
X189102659Y-65676312D01*
X189085863Y-65608492D01*
X189108399Y-65542356D01*
X189153454Y-65503315D01*
X189162216Y-65498851D01*
X189251954Y-65433653D01*
X189334186Y-65373909D01*
X189334188Y-65373906D01*
X189334192Y-65373904D01*
X189484504Y-65223592D01*
X189484506Y-65223588D01*
X189484509Y-65223586D01*
X189609448Y-65051620D01*
X189609447Y-65051620D01*
X189609451Y-65051616D01*
X189613914Y-65042854D01*
X189661888Y-64992059D01*
X189729708Y-64975263D01*
X189795844Y-64997799D01*
G37*
%TD.AperFunction*%
%TA.AperFunction,Conductor*%
G36*
X154235844Y-64997799D02*
G01*
X154274884Y-65042854D01*
X154277351Y-65047695D01*
X154279351Y-65051620D01*
X154404290Y-65223586D01*
X154554613Y-65373909D01*
X154726582Y-65498850D01*
X154735346Y-65503316D01*
X154786142Y-65551291D01*
X154802936Y-65619112D01*
X154780398Y-65685247D01*
X154735346Y-65724284D01*
X154726582Y-65728749D01*
X154554613Y-65853690D01*
X154404290Y-66004013D01*
X154279349Y-66175982D01*
X154274602Y-66185299D01*
X154226627Y-66236093D01*
X154158805Y-66252887D01*
X154092671Y-66230348D01*
X154053634Y-66185295D01*
X154049026Y-66176252D01*
X154009670Y-66122082D01*
X154009669Y-66122082D01*
X153377362Y-66754390D01*
X153360325Y-66690807D01*
X153294499Y-66576793D01*
X153201407Y-66483701D01*
X153087393Y-66417875D01*
X153023809Y-66400837D01*
X153656116Y-65768528D01*
X153601947Y-65729173D01*
X153601947Y-65729172D01*
X153592900Y-65724563D01*
X153542106Y-65676588D01*
X153525312Y-65608766D01*
X153547851Y-65542632D01*
X153592908Y-65503593D01*
X153602216Y-65498851D01*
X153719501Y-65413639D01*
X153774186Y-65373909D01*
X153774188Y-65373906D01*
X153774192Y-65373904D01*
X153924504Y-65223592D01*
X153924506Y-65223588D01*
X153924509Y-65223586D01*
X154049448Y-65051620D01*
X154049447Y-65051620D01*
X154049451Y-65051616D01*
X154053914Y-65042854D01*
X154101888Y-64992059D01*
X154169708Y-64975263D01*
X154235844Y-64997799D01*
G37*
%TD.AperFunction*%
%TA.AperFunction,Conductor*%
G36*
X174555844Y-64997799D02*
G01*
X174594884Y-65042854D01*
X174597351Y-65047695D01*
X174599351Y-65051620D01*
X174724290Y-65223586D01*
X174874613Y-65373909D01*
X175046582Y-65498850D01*
X175055346Y-65503316D01*
X175106142Y-65551291D01*
X175122936Y-65619112D01*
X175100398Y-65685247D01*
X175055346Y-65724284D01*
X175046582Y-65728749D01*
X174874613Y-65853690D01*
X174724290Y-66004013D01*
X174599349Y-66175982D01*
X174594602Y-66185299D01*
X174546627Y-66236093D01*
X174478805Y-66252887D01*
X174412671Y-66230348D01*
X174373634Y-66185295D01*
X174369026Y-66176252D01*
X174329670Y-66122082D01*
X174329669Y-66122082D01*
X173697362Y-66754390D01*
X173680325Y-66690807D01*
X173614499Y-66576793D01*
X173521407Y-66483701D01*
X173407393Y-66417875D01*
X173343809Y-66400837D01*
X173976116Y-65768528D01*
X173921947Y-65729173D01*
X173921947Y-65729172D01*
X173912900Y-65724563D01*
X173862106Y-65676588D01*
X173845312Y-65608766D01*
X173867851Y-65542632D01*
X173912908Y-65503593D01*
X173922216Y-65498851D01*
X174039501Y-65413639D01*
X174094186Y-65373909D01*
X174094188Y-65373906D01*
X174094192Y-65373904D01*
X174244504Y-65223592D01*
X174244506Y-65223588D01*
X174244509Y-65223586D01*
X174369448Y-65051620D01*
X174369447Y-65051620D01*
X174369451Y-65051616D01*
X174373914Y-65042854D01*
X174421888Y-64992059D01*
X174489708Y-64975263D01*
X174555844Y-64997799D01*
G37*
%TD.AperFunction*%
%TA.AperFunction,Conductor*%
G36*
X147348475Y-64536793D02*
G01*
X147414301Y-64650807D01*
X147507393Y-64743899D01*
X147621407Y-64809725D01*
X147684990Y-64826762D01*
X147052682Y-65459069D01*
X147052682Y-65459070D01*
X147106852Y-65498426D01*
X147106851Y-65498426D01*
X147115895Y-65503034D01*
X147166692Y-65551008D01*
X147183487Y-65618829D01*
X147160950Y-65684964D01*
X147115899Y-65724002D01*
X147106582Y-65728749D01*
X146934613Y-65853690D01*
X146784290Y-66004013D01*
X146659349Y-66175982D01*
X146654884Y-66184746D01*
X146606909Y-66235542D01*
X146539088Y-66252336D01*
X146472953Y-66229798D01*
X146433916Y-66184746D01*
X146429450Y-66175982D01*
X146304509Y-66004013D01*
X146154186Y-65853690D01*
X145982220Y-65728751D01*
X145974000Y-65724563D01*
X145973454Y-65724285D01*
X145922659Y-65676312D01*
X145905863Y-65608492D01*
X145928399Y-65542356D01*
X145973454Y-65503315D01*
X145982216Y-65498851D01*
X146071954Y-65433653D01*
X146154186Y-65373909D01*
X146154188Y-65373906D01*
X146154192Y-65373904D01*
X146304504Y-65223592D01*
X146304506Y-65223588D01*
X146304509Y-65223586D01*
X146390290Y-65105517D01*
X146429451Y-65051616D01*
X146434193Y-65042308D01*
X146482163Y-64991511D01*
X146549983Y-64974711D01*
X146616119Y-64997245D01*
X146655163Y-65042300D01*
X146659773Y-65051347D01*
X146699128Y-65105516D01*
X147331437Y-64473208D01*
X147348475Y-64536793D01*
G37*
%TD.AperFunction*%
%TA.AperFunction,Conductor*%
G36*
X148929670Y-65105517D02*
G01*
X148929670Y-65105516D01*
X148969022Y-65051355D01*
X148973632Y-65042307D01*
X149021605Y-64991509D01*
X149089425Y-64974712D01*
X149155561Y-64997247D01*
X149194604Y-65042304D01*
X149199349Y-65051617D01*
X149324290Y-65223586D01*
X149474613Y-65373909D01*
X149646582Y-65498850D01*
X149655346Y-65503316D01*
X149706142Y-65551291D01*
X149722936Y-65619112D01*
X149700398Y-65685247D01*
X149655346Y-65724284D01*
X149646582Y-65728749D01*
X149474613Y-65853690D01*
X149324290Y-66004013D01*
X149199349Y-66175982D01*
X149194884Y-66184746D01*
X149146909Y-66235542D01*
X149079088Y-66252336D01*
X149012953Y-66229798D01*
X148973916Y-66184746D01*
X148969450Y-66175982D01*
X148844509Y-66004013D01*
X148694186Y-65853690D01*
X148522217Y-65728749D01*
X148512904Y-65724004D01*
X148462107Y-65676030D01*
X148445312Y-65608209D01*
X148467849Y-65542074D01*
X148512907Y-65503032D01*
X148521955Y-65498422D01*
X148576116Y-65459070D01*
X148576117Y-65459070D01*
X147943808Y-64826762D01*
X148007393Y-64809725D01*
X148121407Y-64743899D01*
X148214499Y-64650807D01*
X148280325Y-64536793D01*
X148297362Y-64473208D01*
X148929670Y-65105517D01*
G37*
%TD.AperFunction*%
%TA.AperFunction,Conductor*%
G36*
X157508475Y-64536793D02*
G01*
X157574301Y-64650807D01*
X157667393Y-64743899D01*
X157781407Y-64809725D01*
X157844990Y-64826762D01*
X157212682Y-65459069D01*
X157212682Y-65459070D01*
X157266852Y-65498426D01*
X157266851Y-65498426D01*
X157275895Y-65503034D01*
X157326692Y-65551008D01*
X157343487Y-65618829D01*
X157320950Y-65684964D01*
X157275899Y-65724002D01*
X157266582Y-65728749D01*
X157094613Y-65853690D01*
X156944290Y-66004013D01*
X156819349Y-66175982D01*
X156814884Y-66184746D01*
X156766909Y-66235542D01*
X156699088Y-66252336D01*
X156632953Y-66229798D01*
X156593916Y-66184746D01*
X156589450Y-66175982D01*
X156464509Y-66004013D01*
X156314186Y-65853690D01*
X156142220Y-65728751D01*
X156134000Y-65724563D01*
X156133454Y-65724285D01*
X156082659Y-65676312D01*
X156065863Y-65608492D01*
X156088399Y-65542356D01*
X156133454Y-65503315D01*
X156142216Y-65498851D01*
X156231954Y-65433653D01*
X156314186Y-65373909D01*
X156314188Y-65373906D01*
X156314192Y-65373904D01*
X156464504Y-65223592D01*
X156464506Y-65223588D01*
X156464509Y-65223586D01*
X156550290Y-65105517D01*
X156589451Y-65051616D01*
X156594193Y-65042308D01*
X156642163Y-64991511D01*
X156709983Y-64974711D01*
X156776119Y-64997245D01*
X156815163Y-65042300D01*
X156819773Y-65051347D01*
X156859128Y-65105516D01*
X157491437Y-64473208D01*
X157508475Y-64536793D01*
G37*
%TD.AperFunction*%
%TA.AperFunction,Conductor*%
G36*
X159089670Y-65105517D02*
G01*
X159089670Y-65105516D01*
X159129022Y-65051355D01*
X159133632Y-65042307D01*
X159181605Y-64991509D01*
X159249425Y-64974712D01*
X159315561Y-64997247D01*
X159354604Y-65042304D01*
X159359349Y-65051617D01*
X159484290Y-65223586D01*
X159634613Y-65373909D01*
X159806582Y-65498850D01*
X159815346Y-65503316D01*
X159866142Y-65551291D01*
X159882936Y-65619112D01*
X159860398Y-65685247D01*
X159815346Y-65724284D01*
X159806582Y-65728749D01*
X159634613Y-65853690D01*
X159484290Y-66004013D01*
X159359349Y-66175982D01*
X159354884Y-66184746D01*
X159306909Y-66235542D01*
X159239088Y-66252336D01*
X159172953Y-66229798D01*
X159133916Y-66184746D01*
X159129450Y-66175982D01*
X159004509Y-66004013D01*
X158854186Y-65853690D01*
X158682217Y-65728749D01*
X158672904Y-65724004D01*
X158622107Y-65676030D01*
X158605312Y-65608209D01*
X158627849Y-65542074D01*
X158672907Y-65503032D01*
X158681955Y-65498422D01*
X158736116Y-65459070D01*
X158736117Y-65459070D01*
X158103808Y-64826762D01*
X158167393Y-64809725D01*
X158281407Y-64743899D01*
X158374499Y-64650807D01*
X158440325Y-64536793D01*
X158457362Y-64473208D01*
X159089670Y-65105517D01*
G37*
%TD.AperFunction*%
%TA.AperFunction,Conductor*%
G36*
X165128475Y-64536793D02*
G01*
X165194301Y-64650807D01*
X165287393Y-64743899D01*
X165401407Y-64809725D01*
X165464990Y-64826762D01*
X164832682Y-65459069D01*
X164832682Y-65459070D01*
X164886852Y-65498426D01*
X164886851Y-65498426D01*
X164895895Y-65503034D01*
X164946692Y-65551008D01*
X164963487Y-65618829D01*
X164940950Y-65684964D01*
X164895899Y-65724002D01*
X164886582Y-65728749D01*
X164714613Y-65853690D01*
X164564290Y-66004013D01*
X164439349Y-66175982D01*
X164434884Y-66184746D01*
X164386909Y-66235542D01*
X164319088Y-66252336D01*
X164252953Y-66229798D01*
X164213916Y-66184746D01*
X164209450Y-66175982D01*
X164084509Y-66004013D01*
X163934186Y-65853690D01*
X163762220Y-65728751D01*
X163754000Y-65724563D01*
X163753454Y-65724285D01*
X163702659Y-65676312D01*
X163685863Y-65608492D01*
X163708399Y-65542356D01*
X163753454Y-65503315D01*
X163762216Y-65498851D01*
X163851954Y-65433653D01*
X163934186Y-65373909D01*
X163934188Y-65373906D01*
X163934192Y-65373904D01*
X164084504Y-65223592D01*
X164084506Y-65223588D01*
X164084509Y-65223586D01*
X164170290Y-65105517D01*
X164209451Y-65051616D01*
X164214193Y-65042308D01*
X164262163Y-64991511D01*
X164329983Y-64974711D01*
X164396119Y-64997245D01*
X164435163Y-65042300D01*
X164439773Y-65051347D01*
X164479128Y-65105516D01*
X165111437Y-64473208D01*
X165128475Y-64536793D01*
G37*
%TD.AperFunction*%
%TA.AperFunction,Conductor*%
G36*
X166709670Y-65105517D02*
G01*
X166709670Y-65105516D01*
X166749022Y-65051355D01*
X166753632Y-65042307D01*
X166801605Y-64991509D01*
X166869425Y-64974712D01*
X166935561Y-64997247D01*
X166974604Y-65042304D01*
X166979349Y-65051617D01*
X167104290Y-65223586D01*
X167254613Y-65373909D01*
X167426582Y-65498850D01*
X167435346Y-65503316D01*
X167486142Y-65551291D01*
X167502936Y-65619112D01*
X167480398Y-65685247D01*
X167435346Y-65724284D01*
X167426582Y-65728749D01*
X167254613Y-65853690D01*
X167104290Y-66004013D01*
X166979349Y-66175982D01*
X166974884Y-66184746D01*
X166926909Y-66235542D01*
X166859088Y-66252336D01*
X166792953Y-66229798D01*
X166753916Y-66184746D01*
X166749450Y-66175982D01*
X166624509Y-66004013D01*
X166474186Y-65853690D01*
X166302217Y-65728749D01*
X166292904Y-65724004D01*
X166242107Y-65676030D01*
X166225312Y-65608209D01*
X166247849Y-65542074D01*
X166292907Y-65503032D01*
X166301955Y-65498422D01*
X166356116Y-65459070D01*
X166356117Y-65459070D01*
X165723808Y-64826762D01*
X165787393Y-64809725D01*
X165901407Y-64743899D01*
X165994499Y-64650807D01*
X166060325Y-64536793D01*
X166077362Y-64473208D01*
X166709670Y-65105517D01*
G37*
%TD.AperFunction*%
%TA.AperFunction,Conductor*%
G36*
X177828475Y-64536793D02*
G01*
X177894301Y-64650807D01*
X177987393Y-64743899D01*
X178101407Y-64809725D01*
X178164990Y-64826762D01*
X177532682Y-65459069D01*
X177532682Y-65459070D01*
X177586852Y-65498426D01*
X177586851Y-65498426D01*
X177595895Y-65503034D01*
X177646692Y-65551008D01*
X177663487Y-65618829D01*
X177640950Y-65684964D01*
X177595899Y-65724002D01*
X177586582Y-65728749D01*
X177414613Y-65853690D01*
X177264290Y-66004013D01*
X177139349Y-66175982D01*
X177134884Y-66184746D01*
X177086909Y-66235542D01*
X177019088Y-66252336D01*
X176952953Y-66229798D01*
X176913916Y-66184746D01*
X176909450Y-66175982D01*
X176784509Y-66004013D01*
X176634186Y-65853690D01*
X176462220Y-65728751D01*
X176454000Y-65724563D01*
X176453454Y-65724285D01*
X176402659Y-65676312D01*
X176385863Y-65608492D01*
X176408399Y-65542356D01*
X176453454Y-65503315D01*
X176462216Y-65498851D01*
X176551954Y-65433653D01*
X176634186Y-65373909D01*
X176634188Y-65373906D01*
X176634192Y-65373904D01*
X176784504Y-65223592D01*
X176784506Y-65223588D01*
X176784509Y-65223586D01*
X176870290Y-65105517D01*
X176909451Y-65051616D01*
X176914193Y-65042308D01*
X176962163Y-64991511D01*
X177029983Y-64974711D01*
X177096119Y-64997245D01*
X177135163Y-65042300D01*
X177139773Y-65051347D01*
X177179128Y-65105516D01*
X177811437Y-64473208D01*
X177828475Y-64536793D01*
G37*
%TD.AperFunction*%
%TA.AperFunction,Conductor*%
G36*
X179409670Y-65105517D02*
G01*
X179409670Y-65105516D01*
X179449022Y-65051355D01*
X179453632Y-65042307D01*
X179501605Y-64991509D01*
X179569425Y-64974712D01*
X179635561Y-64997247D01*
X179674604Y-65042304D01*
X179679349Y-65051617D01*
X179804290Y-65223586D01*
X179954613Y-65373909D01*
X180126582Y-65498850D01*
X180135346Y-65503316D01*
X180186142Y-65551291D01*
X180202936Y-65619112D01*
X180180398Y-65685247D01*
X180135346Y-65724284D01*
X180126582Y-65728749D01*
X179954613Y-65853690D01*
X179804290Y-66004013D01*
X179679349Y-66175982D01*
X179674884Y-66184746D01*
X179626909Y-66235542D01*
X179559088Y-66252336D01*
X179492953Y-66229798D01*
X179453916Y-66184746D01*
X179449450Y-66175982D01*
X179324509Y-66004013D01*
X179174186Y-65853690D01*
X179002217Y-65728749D01*
X178992904Y-65724004D01*
X178942107Y-65676030D01*
X178925312Y-65608209D01*
X178947849Y-65542074D01*
X178992907Y-65503032D01*
X179001955Y-65498422D01*
X179056116Y-65459070D01*
X179056117Y-65459070D01*
X178423808Y-64826762D01*
X178487393Y-64809725D01*
X178601407Y-64743899D01*
X178694499Y-64650807D01*
X178760325Y-64536793D01*
X178777362Y-64473208D01*
X179409670Y-65105517D01*
G37*
%TD.AperFunction*%
%TA.AperFunction,Conductor*%
G36*
X182908475Y-64536793D02*
G01*
X182974301Y-64650807D01*
X183067393Y-64743899D01*
X183181407Y-64809725D01*
X183244990Y-64826762D01*
X182612682Y-65459069D01*
X182612682Y-65459070D01*
X182666852Y-65498426D01*
X182666851Y-65498426D01*
X182675895Y-65503034D01*
X182726692Y-65551008D01*
X182743487Y-65618829D01*
X182720950Y-65684964D01*
X182675899Y-65724002D01*
X182666582Y-65728749D01*
X182494613Y-65853690D01*
X182344290Y-66004013D01*
X182219349Y-66175982D01*
X182214884Y-66184746D01*
X182166909Y-66235542D01*
X182099088Y-66252336D01*
X182032953Y-66229798D01*
X181993916Y-66184746D01*
X181989450Y-66175982D01*
X181864509Y-66004013D01*
X181714186Y-65853690D01*
X181542220Y-65728751D01*
X181534000Y-65724563D01*
X181533454Y-65724285D01*
X181482659Y-65676312D01*
X181465863Y-65608492D01*
X181488399Y-65542356D01*
X181533454Y-65503315D01*
X181542216Y-65498851D01*
X181631954Y-65433653D01*
X181714186Y-65373909D01*
X181714188Y-65373906D01*
X181714192Y-65373904D01*
X181864504Y-65223592D01*
X181864506Y-65223588D01*
X181864509Y-65223586D01*
X181950290Y-65105517D01*
X181989451Y-65051616D01*
X181994193Y-65042308D01*
X182042163Y-64991511D01*
X182109983Y-64974711D01*
X182176119Y-64997245D01*
X182215163Y-65042300D01*
X182219773Y-65051347D01*
X182259128Y-65105516D01*
X182891436Y-64473207D01*
X182908475Y-64536793D01*
G37*
%TD.AperFunction*%
%TA.AperFunction,Conductor*%
G36*
X184489670Y-65105517D02*
G01*
X184489670Y-65105516D01*
X184529022Y-65051355D01*
X184533632Y-65042307D01*
X184581605Y-64991509D01*
X184649425Y-64974712D01*
X184715561Y-64997247D01*
X184754604Y-65042304D01*
X184759349Y-65051617D01*
X184884290Y-65223586D01*
X185034613Y-65373909D01*
X185206582Y-65498850D01*
X185215346Y-65503316D01*
X185266142Y-65551291D01*
X185282936Y-65619112D01*
X185260398Y-65685247D01*
X185215346Y-65724284D01*
X185206582Y-65728749D01*
X185034613Y-65853690D01*
X184884290Y-66004013D01*
X184759349Y-66175982D01*
X184754884Y-66184746D01*
X184706909Y-66235542D01*
X184639088Y-66252336D01*
X184572953Y-66229798D01*
X184533916Y-66184746D01*
X184529450Y-66175982D01*
X184404509Y-66004013D01*
X184254186Y-65853690D01*
X184082217Y-65728749D01*
X184072904Y-65724004D01*
X184022107Y-65676030D01*
X184005312Y-65608209D01*
X184027849Y-65542074D01*
X184072907Y-65503032D01*
X184081955Y-65498422D01*
X184136116Y-65459070D01*
X184136117Y-65459070D01*
X183503808Y-64826762D01*
X183567393Y-64809725D01*
X183681407Y-64743899D01*
X183774499Y-64650807D01*
X183840325Y-64536793D01*
X183857362Y-64473208D01*
X184489670Y-65105517D01*
G37*
%TD.AperFunction*%
%TA.AperFunction,Conductor*%
G36*
X127505270Y-58301717D02*
G01*
X127505270Y-58301716D01*
X127544622Y-58247555D01*
X127549232Y-58238507D01*
X127597205Y-58187709D01*
X127665025Y-58170912D01*
X127731161Y-58193447D01*
X127770204Y-58238504D01*
X127774949Y-58247817D01*
X127899890Y-58419786D01*
X128050213Y-58570109D01*
X128222179Y-58695048D01*
X128222181Y-58695049D01*
X128222184Y-58695051D01*
X128411588Y-58791557D01*
X128613757Y-58857246D01*
X128823713Y-58890500D01*
X128823714Y-58890500D01*
X129036286Y-58890500D01*
X129036287Y-58890500D01*
X129246243Y-58857246D01*
X129448412Y-58791557D01*
X129637816Y-58695051D01*
X129692572Y-58655269D01*
X129809786Y-58570109D01*
X129809788Y-58570106D01*
X129809792Y-58570104D01*
X129960104Y-58419792D01*
X129960106Y-58419788D01*
X129960109Y-58419786D01*
X130085048Y-58247820D01*
X130085047Y-58247820D01*
X130085051Y-58247816D01*
X130089514Y-58239054D01*
X130137488Y-58188259D01*
X130205308Y-58171463D01*
X130271444Y-58193999D01*
X130310486Y-58239056D01*
X130314951Y-58247820D01*
X130439890Y-58419786D01*
X130590213Y-58570109D01*
X130762179Y-58695048D01*
X130762181Y-58695049D01*
X130762184Y-58695051D01*
X130951588Y-58791557D01*
X131153757Y-58857246D01*
X131363713Y-58890500D01*
X131363714Y-58890500D01*
X131576286Y-58890500D01*
X131576287Y-58890500D01*
X131786243Y-58857246D01*
X131988412Y-58791557D01*
X132177816Y-58695051D01*
X132232572Y-58655269D01*
X132349786Y-58570109D01*
X132349788Y-58570106D01*
X132349792Y-58570104D01*
X132500104Y-58419792D01*
X132500106Y-58419788D01*
X132500109Y-58419786D01*
X132625048Y-58247820D01*
X132625047Y-58247820D01*
X132625051Y-58247816D01*
X132629514Y-58239054D01*
X132677488Y-58188259D01*
X132745308Y-58171463D01*
X132811444Y-58193999D01*
X132850486Y-58239056D01*
X132854951Y-58247820D01*
X132979890Y-58419786D01*
X133130213Y-58570109D01*
X133302179Y-58695048D01*
X133302181Y-58695049D01*
X133302184Y-58695051D01*
X133491588Y-58791557D01*
X133533553Y-58805192D01*
X133591229Y-58844630D01*
X133618427Y-58908988D01*
X133606512Y-58977835D01*
X133582917Y-59010803D01*
X133541014Y-59052706D01*
X133541010Y-59052711D01*
X133453409Y-59183814D01*
X133453402Y-59183827D01*
X133393064Y-59329498D01*
X133393061Y-59329510D01*
X133362300Y-59484153D01*
X133362300Y-59641846D01*
X133393061Y-59796489D01*
X133393064Y-59796501D01*
X133453402Y-59942172D01*
X133453409Y-59942185D01*
X133503138Y-60016609D01*
X133524016Y-60083287D01*
X133505531Y-60150667D01*
X133453553Y-60197357D01*
X133400036Y-60209500D01*
X132206270Y-60209500D01*
X132139231Y-60189815D01*
X132137379Y-60188602D01*
X132042744Y-60125368D01*
X132042731Y-60125361D01*
X131897060Y-60065023D01*
X131897048Y-60065020D01*
X131742404Y-60034259D01*
X131742401Y-60034259D01*
X131584717Y-60034259D01*
X131584714Y-60034259D01*
X131430069Y-60065020D01*
X131430057Y-60065023D01*
X131284386Y-60125361D01*
X131284373Y-60125368D01*
X131153270Y-60212969D01*
X131153266Y-60212972D01*
X131041772Y-60324466D01*
X131041769Y-60324470D01*
X130954168Y-60455573D01*
X130954161Y-60455586D01*
X130893823Y-60601257D01*
X130893820Y-60601269D01*
X130863059Y-60755912D01*
X130863059Y-60913605D01*
X130893820Y-61068248D01*
X130893823Y-61068260D01*
X130954161Y-61213931D01*
X130954168Y-61213944D01*
X131041769Y-61345047D01*
X131041772Y-61345051D01*
X131153269Y-61456548D01*
X131284374Y-61544149D01*
X131284380Y-61544153D01*
X131346251Y-61569780D01*
X131361536Y-61577384D01*
X131364661Y-61579217D01*
X131433305Y-61625084D01*
X131457870Y-61635259D01*
X131569888Y-61681659D01*
X131686041Y-61704763D01*
X131705268Y-61708587D01*
X131714881Y-61710500D01*
X131714882Y-61710500D01*
X131714883Y-61710500D01*
X131862718Y-61710500D01*
X156827770Y-61710500D01*
X156894809Y-61730185D01*
X156915451Y-61746819D01*
X157950767Y-62782135D01*
X157984252Y-62843457D01*
X157979268Y-62913149D01*
X157937396Y-62969082D01*
X157872826Y-62993432D01*
X157868152Y-62993800D01*
X157658272Y-63027042D01*
X157658269Y-63027042D01*
X157456182Y-63092704D01*
X157266839Y-63189180D01*
X157212682Y-63228527D01*
X157212682Y-63228528D01*
X157844991Y-63860837D01*
X157781407Y-63877875D01*
X157667393Y-63943701D01*
X157574301Y-64036793D01*
X157508475Y-64150807D01*
X157491437Y-64214391D01*
X156859128Y-63582082D01*
X156859127Y-63582082D01*
X156819780Y-63636240D01*
X156819776Y-63636246D01*
X156815160Y-63645305D01*
X156767181Y-63696097D01*
X156699359Y-63712887D01*
X156633226Y-63690343D01*
X156594194Y-63645293D01*
X156589451Y-63635984D01*
X156589449Y-63635981D01*
X156589448Y-63635979D01*
X156464509Y-63464013D01*
X156314186Y-63313690D01*
X156142220Y-63188751D01*
X155952814Y-63092244D01*
X155952813Y-63092243D01*
X155952812Y-63092243D01*
X155750643Y-63026554D01*
X155750641Y-63026553D01*
X155750640Y-63026553D01*
X155584845Y-63000294D01*
X155540687Y-62993300D01*
X155328113Y-62993300D01*
X155283955Y-63000294D01*
X155118160Y-63026553D01*
X154915985Y-63092244D01*
X154726579Y-63188751D01*
X154554613Y-63313690D01*
X154404290Y-63464013D01*
X154279349Y-63635982D01*
X154274884Y-63644746D01*
X154226909Y-63695542D01*
X154159088Y-63712336D01*
X154092953Y-63689798D01*
X154053916Y-63644746D01*
X154049450Y-63635982D01*
X153924509Y-63464013D01*
X153774186Y-63313690D01*
X153602220Y-63188751D01*
X153412814Y-63092244D01*
X153412813Y-63092243D01*
X153412812Y-63092243D01*
X153210643Y-63026554D01*
X153210641Y-63026553D01*
X153210640Y-63026553D01*
X153044845Y-63000294D01*
X153000687Y-62993300D01*
X152788113Y-62993300D01*
X152743955Y-63000294D01*
X152578160Y-63026553D01*
X152375985Y-63092244D01*
X152186579Y-63188751D01*
X152014613Y-63313690D01*
X151864290Y-63464013D01*
X151739349Y-63635982D01*
X151734884Y-63644746D01*
X151686909Y-63695542D01*
X151619088Y-63712336D01*
X151552953Y-63689798D01*
X151513916Y-63644746D01*
X151509450Y-63635982D01*
X151384509Y-63464013D01*
X151234186Y-63313690D01*
X151062220Y-63188751D01*
X150872814Y-63092244D01*
X150872813Y-63092243D01*
X150872812Y-63092243D01*
X150670643Y-63026554D01*
X150670641Y-63026553D01*
X150670640Y-63026553D01*
X150504845Y-63000294D01*
X150460687Y-62993300D01*
X150248113Y-62993300D01*
X150203955Y-63000294D01*
X150038160Y-63026553D01*
X149835985Y-63092244D01*
X149646579Y-63188751D01*
X149474613Y-63313690D01*
X149324290Y-63464013D01*
X149199349Y-63635982D01*
X149194602Y-63645299D01*
X149146627Y-63696093D01*
X149078805Y-63712887D01*
X149012671Y-63690348D01*
X148973634Y-63645295D01*
X148969026Y-63636252D01*
X148929670Y-63582082D01*
X148929669Y-63582082D01*
X148297362Y-64214390D01*
X148280325Y-64150807D01*
X148214499Y-64036793D01*
X148121407Y-63943701D01*
X148007393Y-63877875D01*
X147943809Y-63860837D01*
X148576116Y-63228528D01*
X148521950Y-63189175D01*
X148332617Y-63092704D01*
X148130529Y-63027042D01*
X147920646Y-62993800D01*
X147708154Y-62993800D01*
X147498272Y-63027042D01*
X147498269Y-63027042D01*
X147296182Y-63092704D01*
X147106839Y-63189180D01*
X147052682Y-63228527D01*
X147052682Y-63228528D01*
X147684991Y-63860837D01*
X147621407Y-63877875D01*
X147507393Y-63943701D01*
X147414301Y-64036793D01*
X147348475Y-64150807D01*
X147331437Y-64214391D01*
X146699128Y-63582082D01*
X146699127Y-63582082D01*
X146659780Y-63636240D01*
X146659776Y-63636246D01*
X146655160Y-63645305D01*
X146607181Y-63696097D01*
X146539359Y-63712887D01*
X146473226Y-63690343D01*
X146434194Y-63645293D01*
X146429451Y-63635984D01*
X146429449Y-63635981D01*
X146429448Y-63635979D01*
X146304509Y-63464013D01*
X146154186Y-63313690D01*
X145982220Y-63188751D01*
X145792814Y-63092244D01*
X145792813Y-63092243D01*
X145792812Y-63092243D01*
X145590643Y-63026554D01*
X145590641Y-63026553D01*
X145590640Y-63026553D01*
X145424845Y-63000294D01*
X145380687Y-62993300D01*
X145168113Y-62993300D01*
X145123955Y-63000294D01*
X144958160Y-63026553D01*
X144755985Y-63092244D01*
X144566579Y-63188751D01*
X144394613Y-63313690D01*
X144244294Y-63464009D01*
X144244290Y-63464014D01*
X144226584Y-63488385D01*
X144222252Y-63491725D01*
X144219979Y-63496703D01*
X144194876Y-63512835D01*
X144171254Y-63531051D01*
X144164582Y-63532303D01*
X144161201Y-63534477D01*
X144126266Y-63539500D01*
X143882534Y-63539500D01*
X143815495Y-63519815D01*
X143782216Y-63488385D01*
X143764509Y-63464014D01*
X143764505Y-63464009D01*
X143614186Y-63313690D01*
X143442220Y-63188751D01*
X143252814Y-63092244D01*
X143252813Y-63092243D01*
X143252812Y-63092243D01*
X143050643Y-63026554D01*
X143050641Y-63026553D01*
X143050640Y-63026553D01*
X142884845Y-63000294D01*
X142840687Y-62993300D01*
X142628113Y-62993300D01*
X142583955Y-63000294D01*
X142418160Y-63026553D01*
X142215985Y-63092244D01*
X142026579Y-63188751D01*
X141854613Y-63313690D01*
X141704294Y-63464009D01*
X141704290Y-63464014D01*
X141686584Y-63488385D01*
X141631254Y-63531051D01*
X141586266Y-63539500D01*
X120540229Y-63539500D01*
X120473190Y-63519815D01*
X120452548Y-63503181D01*
X116051548Y-59102180D01*
X116018063Y-59040857D01*
X116023047Y-58971165D01*
X116064919Y-58915232D01*
X116130383Y-58890815D01*
X116139229Y-58890499D01*
X117127871Y-58890499D01*
X117127872Y-58890499D01*
X117187483Y-58884091D01*
X117322331Y-58833796D01*
X117437546Y-58747546D01*
X117523796Y-58632331D01*
X117572810Y-58500916D01*
X117614681Y-58444984D01*
X117680145Y-58420566D01*
X117748418Y-58435417D01*
X117776673Y-58456569D01*
X117890213Y-58570109D01*
X118062179Y-58695048D01*
X118062181Y-58695049D01*
X118062184Y-58695051D01*
X118251588Y-58791557D01*
X118453757Y-58857246D01*
X118663713Y-58890500D01*
X118663714Y-58890500D01*
X118876286Y-58890500D01*
X118876287Y-58890500D01*
X119086243Y-58857246D01*
X119288412Y-58791557D01*
X119477816Y-58695051D01*
X119532572Y-58655269D01*
X119649786Y-58570109D01*
X119649788Y-58570106D01*
X119649792Y-58570104D01*
X119800104Y-58419792D01*
X119800106Y-58419788D01*
X119800109Y-58419786D01*
X119925048Y-58247820D01*
X119925047Y-58247820D01*
X119925051Y-58247816D01*
X119929514Y-58239054D01*
X119977488Y-58188259D01*
X120045308Y-58171463D01*
X120111444Y-58193999D01*
X120150486Y-58239056D01*
X120154951Y-58247820D01*
X120279890Y-58419786D01*
X120430213Y-58570109D01*
X120602179Y-58695048D01*
X120602181Y-58695049D01*
X120602184Y-58695051D01*
X120791588Y-58791557D01*
X120993757Y-58857246D01*
X121203713Y-58890500D01*
X121203714Y-58890500D01*
X121416286Y-58890500D01*
X121416287Y-58890500D01*
X121626243Y-58857246D01*
X121828412Y-58791557D01*
X122017816Y-58695051D01*
X122072572Y-58655269D01*
X122189786Y-58570109D01*
X122189788Y-58570106D01*
X122189792Y-58570104D01*
X122340104Y-58419792D01*
X122340106Y-58419788D01*
X122340109Y-58419786D01*
X122465048Y-58247820D01*
X122465047Y-58247820D01*
X122465051Y-58247816D01*
X122469514Y-58239054D01*
X122517488Y-58188259D01*
X122585308Y-58171463D01*
X122651444Y-58193999D01*
X122690486Y-58239056D01*
X122694951Y-58247820D01*
X122819890Y-58419786D01*
X122970213Y-58570109D01*
X123142179Y-58695048D01*
X123142181Y-58695049D01*
X123142184Y-58695051D01*
X123331588Y-58791557D01*
X123533757Y-58857246D01*
X123743713Y-58890500D01*
X123743714Y-58890500D01*
X123956286Y-58890500D01*
X123956287Y-58890500D01*
X124166243Y-58857246D01*
X124368412Y-58791557D01*
X124557816Y-58695051D01*
X124612572Y-58655269D01*
X124729786Y-58570109D01*
X124729788Y-58570106D01*
X124729792Y-58570104D01*
X124880104Y-58419792D01*
X124880106Y-58419788D01*
X124880109Y-58419786D01*
X124965890Y-58301717D01*
X125005051Y-58247816D01*
X125009793Y-58238508D01*
X125057763Y-58187711D01*
X125125583Y-58170911D01*
X125191719Y-58193445D01*
X125230763Y-58238500D01*
X125235373Y-58247547D01*
X125274728Y-58301716D01*
X125907037Y-57669408D01*
X125924075Y-57732993D01*
X125989901Y-57847007D01*
X126082993Y-57940099D01*
X126197007Y-58005925D01*
X126260590Y-58022962D01*
X125628282Y-58655269D01*
X125628282Y-58655270D01*
X125682449Y-58694624D01*
X125871782Y-58791095D01*
X126073870Y-58856757D01*
X126283754Y-58890000D01*
X126496246Y-58890000D01*
X126706127Y-58856757D01*
X126706130Y-58856757D01*
X126908217Y-58791095D01*
X127097554Y-58694622D01*
X127151716Y-58655270D01*
X127151717Y-58655270D01*
X126519408Y-58022962D01*
X126582993Y-58005925D01*
X126697007Y-57940099D01*
X126790099Y-57847007D01*
X126855925Y-57732993D01*
X126872962Y-57669408D01*
X127505270Y-58301717D01*
G37*
%TD.AperFunction*%
%TA.AperFunction,Conductor*%
G36*
X163634809Y-55770185D02*
G01*
X163655451Y-55786819D01*
X170650299Y-62781667D01*
X170683784Y-62842990D01*
X170678800Y-62912682D01*
X170636928Y-62968615D01*
X170572368Y-62992964D01*
X170568119Y-62993299D01*
X170358160Y-63026553D01*
X170155985Y-63092244D01*
X169966579Y-63188751D01*
X169794613Y-63313690D01*
X169644290Y-63464013D01*
X169519349Y-63635982D01*
X169514884Y-63644746D01*
X169466909Y-63695542D01*
X169399088Y-63712336D01*
X169332953Y-63689798D01*
X169293916Y-63644746D01*
X169289450Y-63635982D01*
X169164509Y-63464013D01*
X169014186Y-63313690D01*
X168842220Y-63188751D01*
X168652814Y-63092244D01*
X168652813Y-63092243D01*
X168652812Y-63092243D01*
X168450643Y-63026554D01*
X168450641Y-63026553D01*
X168450640Y-63026553D01*
X168284845Y-63000294D01*
X168240687Y-62993300D01*
X168028113Y-62993300D01*
X167983955Y-63000294D01*
X167818160Y-63026553D01*
X167615985Y-63092244D01*
X167426579Y-63188751D01*
X167254613Y-63313690D01*
X167104290Y-63464013D01*
X166979349Y-63635982D01*
X166974602Y-63645299D01*
X166926627Y-63696093D01*
X166858805Y-63712887D01*
X166792671Y-63690348D01*
X166753634Y-63645295D01*
X166749026Y-63636252D01*
X166709670Y-63582082D01*
X166709669Y-63582082D01*
X166077362Y-64214390D01*
X166060325Y-64150807D01*
X165994499Y-64036793D01*
X165901407Y-63943701D01*
X165787393Y-63877875D01*
X165723809Y-63860837D01*
X166356116Y-63228528D01*
X166301950Y-63189175D01*
X166112617Y-63092704D01*
X165910529Y-63027042D01*
X165700646Y-62993800D01*
X165488154Y-62993800D01*
X165278272Y-63027042D01*
X165278269Y-63027042D01*
X165076182Y-63092704D01*
X164886839Y-63189180D01*
X164832682Y-63228527D01*
X164832682Y-63228528D01*
X165464991Y-63860837D01*
X165401407Y-63877875D01*
X165287393Y-63943701D01*
X165194301Y-64036793D01*
X165128475Y-64150807D01*
X165111437Y-64214391D01*
X164479128Y-63582082D01*
X164479127Y-63582082D01*
X164439780Y-63636240D01*
X164439776Y-63636246D01*
X164435160Y-63645305D01*
X164387181Y-63696097D01*
X164319359Y-63712887D01*
X164253226Y-63690343D01*
X164214194Y-63645293D01*
X164209451Y-63635984D01*
X164209449Y-63635981D01*
X164209448Y-63635979D01*
X164084509Y-63464013D01*
X163934186Y-63313690D01*
X163762220Y-63188751D01*
X163572814Y-63092244D01*
X163572813Y-63092243D01*
X163572812Y-63092243D01*
X163370643Y-63026554D01*
X163370641Y-63026553D01*
X163370640Y-63026553D01*
X163204845Y-63000294D01*
X163160687Y-62993300D01*
X162948113Y-62993300D01*
X162948107Y-62993300D01*
X162903947Y-63000294D01*
X162834654Y-62991339D01*
X162796869Y-62965502D01*
X158811421Y-58980052D01*
X158811414Y-58980046D01*
X158737729Y-58930812D01*
X158737729Y-58930813D01*
X158688491Y-58897913D01*
X158551917Y-58841343D01*
X158551907Y-58841340D01*
X158406920Y-58812500D01*
X158406918Y-58812500D01*
X147593486Y-58812500D01*
X147526447Y-58792815D01*
X147480692Y-58740011D01*
X147469868Y-58678772D01*
X147471717Y-58655270D01*
X146839408Y-58022962D01*
X146902993Y-58005925D01*
X147017007Y-57940099D01*
X147110099Y-57847007D01*
X147175925Y-57732993D01*
X147192962Y-57669408D01*
X147825270Y-58301717D01*
X147825270Y-58301716D01*
X147864622Y-58247554D01*
X147961095Y-58058217D01*
X148026757Y-57856130D01*
X148026757Y-57856127D01*
X148060000Y-57646246D01*
X148060000Y-57433753D01*
X148026757Y-57223872D01*
X148026757Y-57223869D01*
X147961095Y-57021782D01*
X147864624Y-56832449D01*
X147825270Y-56778282D01*
X147825269Y-56778282D01*
X147192962Y-57410590D01*
X147175925Y-57347007D01*
X147110099Y-57232993D01*
X147017007Y-57139901D01*
X146902993Y-57074075D01*
X146839409Y-57057037D01*
X147471716Y-56424728D01*
X147417547Y-56385373D01*
X147417547Y-56385372D01*
X147408500Y-56380763D01*
X147357706Y-56332788D01*
X147340912Y-56264966D01*
X147363451Y-56198832D01*
X147408508Y-56159793D01*
X147417816Y-56155051D01*
X147507554Y-56089853D01*
X147589786Y-56030109D01*
X147589788Y-56030106D01*
X147589792Y-56030104D01*
X147740104Y-55879792D01*
X147740108Y-55879786D01*
X147796903Y-55801615D01*
X147852233Y-55758949D01*
X147897221Y-55750500D01*
X163567770Y-55750500D01*
X163634809Y-55770185D01*
G37*
%TD.AperFunction*%
%TA.AperFunction,Conductor*%
G36*
X146244075Y-57732993D02*
G01*
X146309901Y-57847007D01*
X146402993Y-57940099D01*
X146517007Y-58005925D01*
X146580590Y-58022962D01*
X145948282Y-58655269D01*
X145950132Y-58678770D01*
X145935768Y-58747148D01*
X145886717Y-58796905D01*
X145826514Y-58812500D01*
X145097796Y-58812500D01*
X145030757Y-58792815D01*
X144985002Y-58740011D01*
X144975058Y-58670853D01*
X145004083Y-58607297D01*
X145024911Y-58588182D01*
X145049785Y-58570109D01*
X145049783Y-58570109D01*
X145049792Y-58570104D01*
X145200104Y-58419792D01*
X145200106Y-58419788D01*
X145200109Y-58419786D01*
X145285890Y-58301717D01*
X145325051Y-58247816D01*
X145329793Y-58238508D01*
X145377763Y-58187711D01*
X145445583Y-58170911D01*
X145511719Y-58193445D01*
X145550763Y-58238500D01*
X145555373Y-58247547D01*
X145594728Y-58301716D01*
X146227037Y-57669408D01*
X146244075Y-57732993D01*
G37*
%TD.AperFunction*%
%TA.AperFunction,Conductor*%
G36*
X125191444Y-55653999D02*
G01*
X125230486Y-55699056D01*
X125234951Y-55707820D01*
X125359890Y-55879786D01*
X125510213Y-56030109D01*
X125682179Y-56155048D01*
X125682181Y-56155049D01*
X125682184Y-56155051D01*
X125691493Y-56159794D01*
X125742290Y-56207766D01*
X125759087Y-56275587D01*
X125736552Y-56341722D01*
X125691505Y-56380760D01*
X125682446Y-56385376D01*
X125682440Y-56385380D01*
X125628282Y-56424727D01*
X125628282Y-56424728D01*
X126260591Y-57057037D01*
X126197007Y-57074075D01*
X126082993Y-57139901D01*
X125989901Y-57232993D01*
X125924075Y-57347007D01*
X125907037Y-57410591D01*
X125274728Y-56778282D01*
X125274727Y-56778282D01*
X125235380Y-56832440D01*
X125235376Y-56832446D01*
X125230760Y-56841505D01*
X125182781Y-56892297D01*
X125114959Y-56909087D01*
X125048826Y-56886543D01*
X125009794Y-56841493D01*
X125005051Y-56832184D01*
X125005049Y-56832181D01*
X125005048Y-56832179D01*
X124880109Y-56660213D01*
X124729786Y-56509890D01*
X124557820Y-56384951D01*
X124549600Y-56380763D01*
X124549054Y-56380485D01*
X124498259Y-56332512D01*
X124481463Y-56264692D01*
X124503999Y-56198556D01*
X124549054Y-56159515D01*
X124557816Y-56155051D01*
X124647554Y-56089853D01*
X124729786Y-56030109D01*
X124729788Y-56030106D01*
X124729792Y-56030104D01*
X124880104Y-55879792D01*
X124880108Y-55879787D01*
X124880109Y-55879786D01*
X125005048Y-55707820D01*
X125005047Y-55707820D01*
X125005051Y-55707816D01*
X125009514Y-55699054D01*
X125057488Y-55648259D01*
X125125308Y-55631463D01*
X125191444Y-55653999D01*
G37*
%TD.AperFunction*%
%TA.AperFunction,Conductor*%
G36*
X145511444Y-55653999D02*
G01*
X145550486Y-55699056D01*
X145554951Y-55707820D01*
X145679890Y-55879786D01*
X145830213Y-56030109D01*
X146002179Y-56155048D01*
X146002181Y-56155049D01*
X146002184Y-56155051D01*
X146011493Y-56159794D01*
X146062290Y-56207766D01*
X146079087Y-56275587D01*
X146056552Y-56341722D01*
X146011505Y-56380760D01*
X146002446Y-56385376D01*
X146002440Y-56385380D01*
X145948282Y-56424727D01*
X145948282Y-56424728D01*
X146580591Y-57057037D01*
X146517007Y-57074075D01*
X146402993Y-57139901D01*
X146309901Y-57232993D01*
X146244075Y-57347007D01*
X146227037Y-57410591D01*
X145594728Y-56778282D01*
X145594727Y-56778282D01*
X145555380Y-56832440D01*
X145555376Y-56832446D01*
X145550760Y-56841505D01*
X145502781Y-56892297D01*
X145434959Y-56909087D01*
X145368826Y-56886543D01*
X145329794Y-56841493D01*
X145325051Y-56832184D01*
X145325049Y-56832181D01*
X145325048Y-56832179D01*
X145200109Y-56660213D01*
X145049786Y-56509890D01*
X144877820Y-56384951D01*
X144869600Y-56380763D01*
X144869054Y-56380485D01*
X144818259Y-56332512D01*
X144801463Y-56264692D01*
X144823999Y-56198556D01*
X144869054Y-56159515D01*
X144877816Y-56155051D01*
X144967554Y-56089853D01*
X145049786Y-56030109D01*
X145049788Y-56030106D01*
X145049792Y-56030104D01*
X145200104Y-55879792D01*
X145200108Y-55879787D01*
X145200109Y-55879786D01*
X145325048Y-55707820D01*
X145325047Y-55707820D01*
X145325051Y-55707816D01*
X145329514Y-55699054D01*
X145377488Y-55648259D01*
X145445308Y-55631463D01*
X145511444Y-55653999D01*
G37*
%TD.AperFunction*%
%TA.AperFunction,Conductor*%
G36*
X127731444Y-55653999D02*
G01*
X127770486Y-55699056D01*
X127774951Y-55707820D01*
X127899890Y-55879786D01*
X128050213Y-56030109D01*
X128222182Y-56155050D01*
X128230946Y-56159516D01*
X128281742Y-56207491D01*
X128298536Y-56275312D01*
X128275998Y-56341447D01*
X128230946Y-56380484D01*
X128222182Y-56384949D01*
X128050213Y-56509890D01*
X127899890Y-56660213D01*
X127774949Y-56832182D01*
X127770202Y-56841499D01*
X127722227Y-56892293D01*
X127654405Y-56909087D01*
X127588271Y-56886548D01*
X127549234Y-56841495D01*
X127544626Y-56832452D01*
X127505270Y-56778282D01*
X127505269Y-56778282D01*
X126872962Y-57410590D01*
X126855925Y-57347007D01*
X126790099Y-57232993D01*
X126697007Y-57139901D01*
X126582993Y-57074075D01*
X126519409Y-57057037D01*
X127151716Y-56424728D01*
X127097547Y-56385373D01*
X127097547Y-56385372D01*
X127088500Y-56380763D01*
X127037706Y-56332788D01*
X127020912Y-56264966D01*
X127043451Y-56198832D01*
X127088508Y-56159793D01*
X127097816Y-56155051D01*
X127187554Y-56089853D01*
X127269786Y-56030109D01*
X127269788Y-56030106D01*
X127269792Y-56030104D01*
X127420104Y-55879792D01*
X127420108Y-55879787D01*
X127420109Y-55879786D01*
X127545048Y-55707820D01*
X127545047Y-55707820D01*
X127545051Y-55707816D01*
X127549514Y-55699054D01*
X127597488Y-55648259D01*
X127665308Y-55631463D01*
X127731444Y-55653999D01*
G37*
%TD.AperFunction*%
%TA.AperFunction,Conductor*%
G36*
X120844075Y-55192993D02*
G01*
X120909901Y-55307007D01*
X121002993Y-55400099D01*
X121117007Y-55465925D01*
X121180590Y-55482962D01*
X120548282Y-56115269D01*
X120548282Y-56115270D01*
X120602452Y-56154626D01*
X120602451Y-56154626D01*
X120611495Y-56159234D01*
X120662292Y-56207208D01*
X120679087Y-56275029D01*
X120656550Y-56341164D01*
X120611499Y-56380202D01*
X120602182Y-56384949D01*
X120430213Y-56509890D01*
X120279890Y-56660213D01*
X120154949Y-56832182D01*
X120150484Y-56840946D01*
X120102509Y-56891742D01*
X120034688Y-56908536D01*
X119968553Y-56885998D01*
X119929516Y-56840946D01*
X119925050Y-56832182D01*
X119800109Y-56660213D01*
X119649786Y-56509890D01*
X119477820Y-56384951D01*
X119469600Y-56380763D01*
X119469054Y-56380485D01*
X119418259Y-56332512D01*
X119401463Y-56264692D01*
X119423999Y-56198556D01*
X119469054Y-56159515D01*
X119477816Y-56155051D01*
X119567554Y-56089853D01*
X119649786Y-56030109D01*
X119649788Y-56030106D01*
X119649792Y-56030104D01*
X119800104Y-55879792D01*
X119800108Y-55879787D01*
X119800109Y-55879786D01*
X119874667Y-55777164D01*
X119925051Y-55707816D01*
X119929793Y-55698508D01*
X119977763Y-55647711D01*
X120045583Y-55630911D01*
X120111719Y-55653445D01*
X120150763Y-55698500D01*
X120155373Y-55707547D01*
X120194728Y-55761716D01*
X120827037Y-55129408D01*
X120844075Y-55192993D01*
G37*
%TD.AperFunction*%
%TA.AperFunction,Conductor*%
G36*
X122425270Y-55761717D02*
G01*
X122425270Y-55761716D01*
X122464622Y-55707555D01*
X122469232Y-55698507D01*
X122517205Y-55647709D01*
X122585025Y-55630912D01*
X122651161Y-55653447D01*
X122690204Y-55698504D01*
X122694949Y-55707817D01*
X122819890Y-55879786D01*
X122970213Y-56030109D01*
X123142182Y-56155050D01*
X123150946Y-56159516D01*
X123201742Y-56207491D01*
X123218536Y-56275312D01*
X123195998Y-56341447D01*
X123150946Y-56380484D01*
X123142182Y-56384949D01*
X122970213Y-56509890D01*
X122819890Y-56660213D01*
X122694949Y-56832182D01*
X122690484Y-56840946D01*
X122642509Y-56891742D01*
X122574688Y-56908536D01*
X122508553Y-56885998D01*
X122469516Y-56840946D01*
X122465050Y-56832182D01*
X122340109Y-56660213D01*
X122189786Y-56509890D01*
X122017817Y-56384949D01*
X122008504Y-56380204D01*
X121957707Y-56332230D01*
X121940912Y-56264409D01*
X121963449Y-56198274D01*
X122008507Y-56159232D01*
X122017555Y-56154622D01*
X122071716Y-56115270D01*
X122071717Y-56115270D01*
X121439408Y-55482962D01*
X121502993Y-55465925D01*
X121617007Y-55400099D01*
X121710099Y-55307007D01*
X121775925Y-55192993D01*
X121792962Y-55129408D01*
X122425270Y-55761717D01*
G37*
%TD.AperFunction*%
%TA.AperFunction,Conductor*%
G36*
X131004075Y-55192993D02*
G01*
X131069901Y-55307007D01*
X131162993Y-55400099D01*
X131277007Y-55465925D01*
X131340590Y-55482962D01*
X130708282Y-56115269D01*
X130708282Y-56115270D01*
X130762452Y-56154626D01*
X130762451Y-56154626D01*
X130771495Y-56159234D01*
X130822292Y-56207208D01*
X130839087Y-56275029D01*
X130816550Y-56341164D01*
X130771499Y-56380202D01*
X130762182Y-56384949D01*
X130590213Y-56509890D01*
X130439890Y-56660213D01*
X130314949Y-56832182D01*
X130310484Y-56840946D01*
X130262509Y-56891742D01*
X130194688Y-56908536D01*
X130128553Y-56885998D01*
X130089516Y-56840946D01*
X130085050Y-56832182D01*
X129960109Y-56660213D01*
X129809786Y-56509890D01*
X129637820Y-56384951D01*
X129629600Y-56380763D01*
X129629054Y-56380485D01*
X129578259Y-56332512D01*
X129561463Y-56264692D01*
X129583999Y-56198556D01*
X129629054Y-56159515D01*
X129637816Y-56155051D01*
X129727554Y-56089853D01*
X129809786Y-56030109D01*
X129809788Y-56030106D01*
X129809792Y-56030104D01*
X129960104Y-55879792D01*
X129960108Y-55879787D01*
X129960109Y-55879786D01*
X130034667Y-55777164D01*
X130085051Y-55707816D01*
X130089793Y-55698508D01*
X130137763Y-55647711D01*
X130205583Y-55630911D01*
X130271719Y-55653445D01*
X130310763Y-55698500D01*
X130315373Y-55707547D01*
X130354728Y-55761716D01*
X130987037Y-55129408D01*
X131004075Y-55192993D01*
G37*
%TD.AperFunction*%
%TA.AperFunction,Conductor*%
G36*
X132585270Y-55761717D02*
G01*
X132585270Y-55761716D01*
X132624622Y-55707555D01*
X132629232Y-55698507D01*
X132677205Y-55647709D01*
X132745025Y-55630912D01*
X132811161Y-55653447D01*
X132850204Y-55698504D01*
X132854949Y-55707817D01*
X132979890Y-55879786D01*
X133130213Y-56030109D01*
X133302182Y-56155050D01*
X133310946Y-56159516D01*
X133361742Y-56207491D01*
X133378536Y-56275312D01*
X133355998Y-56341447D01*
X133310946Y-56380484D01*
X133302182Y-56384949D01*
X133130213Y-56509890D01*
X132979890Y-56660213D01*
X132854949Y-56832182D01*
X132850484Y-56840946D01*
X132802509Y-56891742D01*
X132734688Y-56908536D01*
X132668553Y-56885998D01*
X132629516Y-56840946D01*
X132625050Y-56832182D01*
X132500109Y-56660213D01*
X132349786Y-56509890D01*
X132177817Y-56384949D01*
X132168504Y-56380204D01*
X132117707Y-56332230D01*
X132100912Y-56264409D01*
X132123449Y-56198274D01*
X132168507Y-56159232D01*
X132177555Y-56154622D01*
X132231716Y-56115270D01*
X132231717Y-56115270D01*
X131599408Y-55482962D01*
X131662993Y-55465925D01*
X131777007Y-55400099D01*
X131870099Y-55307007D01*
X131935925Y-55192993D01*
X131952962Y-55129409D01*
X132585270Y-55761717D01*
G37*
%TD.AperFunction*%
%TA.AperFunction,Conductor*%
G36*
X138624075Y-55192993D02*
G01*
X138689901Y-55307007D01*
X138782993Y-55400099D01*
X138897007Y-55465925D01*
X138960590Y-55482962D01*
X138328282Y-56115269D01*
X138328282Y-56115270D01*
X138382452Y-56154626D01*
X138382451Y-56154626D01*
X138391495Y-56159234D01*
X138442292Y-56207208D01*
X138459087Y-56275029D01*
X138436550Y-56341164D01*
X138391499Y-56380202D01*
X138382182Y-56384949D01*
X138210213Y-56509890D01*
X138059890Y-56660213D01*
X137934949Y-56832182D01*
X137930484Y-56840946D01*
X137882509Y-56891742D01*
X137814688Y-56908536D01*
X137748553Y-56885998D01*
X137709516Y-56840946D01*
X137705050Y-56832182D01*
X137580109Y-56660213D01*
X137429786Y-56509890D01*
X137257820Y-56384951D01*
X137249600Y-56380763D01*
X137249054Y-56380485D01*
X137198259Y-56332512D01*
X137181463Y-56264692D01*
X137203999Y-56198556D01*
X137249054Y-56159515D01*
X137257816Y-56155051D01*
X137347554Y-56089853D01*
X137429786Y-56030109D01*
X137429788Y-56030106D01*
X137429792Y-56030104D01*
X137580104Y-55879792D01*
X137580108Y-55879787D01*
X137580109Y-55879786D01*
X137654667Y-55777164D01*
X137705051Y-55707816D01*
X137709793Y-55698508D01*
X137757763Y-55647711D01*
X137825583Y-55630911D01*
X137891719Y-55653445D01*
X137930763Y-55698500D01*
X137935373Y-55707547D01*
X137974728Y-55761716D01*
X138607037Y-55129408D01*
X138624075Y-55192993D01*
G37*
%TD.AperFunction*%
%TA.AperFunction,Conductor*%
G36*
X140205270Y-55761717D02*
G01*
X140205270Y-55761716D01*
X140244622Y-55707555D01*
X140249232Y-55698507D01*
X140297205Y-55647709D01*
X140365025Y-55630912D01*
X140431161Y-55653447D01*
X140470204Y-55698504D01*
X140474949Y-55707817D01*
X140599890Y-55879786D01*
X140750213Y-56030109D01*
X140922182Y-56155050D01*
X140930946Y-56159516D01*
X140981742Y-56207491D01*
X140998536Y-56275312D01*
X140975998Y-56341447D01*
X140930946Y-56380484D01*
X140922182Y-56384949D01*
X140750213Y-56509890D01*
X140599890Y-56660213D01*
X140474949Y-56832182D01*
X140470484Y-56840946D01*
X140422509Y-56891742D01*
X140354688Y-56908536D01*
X140288553Y-56885998D01*
X140249516Y-56840946D01*
X140245050Y-56832182D01*
X140120109Y-56660213D01*
X139969786Y-56509890D01*
X139797817Y-56384949D01*
X139788504Y-56380204D01*
X139737707Y-56332230D01*
X139720912Y-56264409D01*
X139743449Y-56198274D01*
X139788507Y-56159232D01*
X139797555Y-56154622D01*
X139851716Y-56115270D01*
X139851717Y-56115270D01*
X139219408Y-55482962D01*
X139282993Y-55465925D01*
X139397007Y-55400099D01*
X139490099Y-55307007D01*
X139555925Y-55192993D01*
X139572962Y-55129409D01*
X140205270Y-55761717D01*
G37*
%TD.AperFunction*%
%TA.AperFunction,Conductor*%
G36*
X199442539Y-50520185D02*
G01*
X199488294Y-50572989D01*
X199499500Y-50624500D01*
X199499500Y-149375500D01*
X199479815Y-149442539D01*
X199427011Y-149488294D01*
X199375500Y-149499500D01*
X100624500Y-149499500D01*
X100557461Y-149479815D01*
X100511706Y-149427011D01*
X100500500Y-149375500D01*
X100500500Y-139056135D01*
X101011500Y-139056135D01*
X101011500Y-140851870D01*
X101011501Y-140851876D01*
X101017908Y-140911483D01*
X101068202Y-141046328D01*
X101068206Y-141046335D01*
X101154452Y-141161544D01*
X101154455Y-141161547D01*
X101269664Y-141247793D01*
X101269671Y-141247797D01*
X101401082Y-141296810D01*
X101457016Y-141338681D01*
X101481433Y-141404145D01*
X101466582Y-141472418D01*
X101445431Y-141500673D01*
X101331889Y-141614215D01*
X101206951Y-141786179D01*
X101110444Y-141975585D01*
X101044753Y-142177760D01*
X101011500Y-142387713D01*
X101011500Y-142600286D01*
X101044753Y-142810239D01*
X101110444Y-143012414D01*
X101206951Y-143201820D01*
X101331890Y-143373786D01*
X101482213Y-143524109D01*
X101654179Y-143649048D01*
X101654181Y-143649049D01*
X101654184Y-143649051D01*
X101663493Y-143653794D01*
X101714290Y-143701766D01*
X101731087Y-143769587D01*
X101708552Y-143835722D01*
X101663505Y-143874760D01*
X101654446Y-143879376D01*
X101654440Y-143879380D01*
X101600282Y-143918727D01*
X101600282Y-143918728D01*
X102232591Y-144551037D01*
X102169007Y-144568075D01*
X102054993Y-144633901D01*
X101961901Y-144726993D01*
X101896075Y-144841007D01*
X101879037Y-144904591D01*
X101246728Y-144272282D01*
X101246727Y-144272282D01*
X101207380Y-144326439D01*
X101110904Y-144515782D01*
X101045242Y-144717869D01*
X101045242Y-144717872D01*
X101012000Y-144927753D01*
X101012000Y-145140246D01*
X101045242Y-145350127D01*
X101045242Y-145350130D01*
X101110904Y-145552217D01*
X101207375Y-145741550D01*
X101246728Y-145795716D01*
X101879037Y-145163408D01*
X101896075Y-145226993D01*
X101961901Y-145341007D01*
X102054993Y-145434099D01*
X102169007Y-145499925D01*
X102232590Y-145516962D01*
X101600282Y-146149269D01*
X101600282Y-146149270D01*
X101654449Y-146188624D01*
X101843782Y-146285095D01*
X102045870Y-146350757D01*
X102255754Y-146384000D01*
X102468246Y-146384000D01*
X102678127Y-146350757D01*
X102678130Y-146350757D01*
X102880217Y-146285095D01*
X103069554Y-146188622D01*
X103123716Y-146149270D01*
X103123717Y-146149270D01*
X102491408Y-145516962D01*
X102554993Y-145499925D01*
X102669007Y-145434099D01*
X102762099Y-145341007D01*
X102827925Y-145226993D01*
X102844962Y-145163408D01*
X103477270Y-145795717D01*
X103477270Y-145795716D01*
X103516622Y-145741554D01*
X103613095Y-145552217D01*
X103678757Y-145350130D01*
X103678757Y-145350127D01*
X103712000Y-145140246D01*
X103712000Y-144927753D01*
X103678757Y-144717872D01*
X103678757Y-144717869D01*
X103613095Y-144515782D01*
X103516624Y-144326449D01*
X103477270Y-144272282D01*
X103477269Y-144272282D01*
X102844962Y-144904590D01*
X102827925Y-144841007D01*
X102762099Y-144726993D01*
X102669007Y-144633901D01*
X102554993Y-144568075D01*
X102491409Y-144551037D01*
X103123716Y-143918728D01*
X103069547Y-143879373D01*
X103069547Y-143879372D01*
X103060500Y-143874763D01*
X103009706Y-143826788D01*
X102992912Y-143758966D01*
X103015451Y-143692832D01*
X103060508Y-143653793D01*
X103069816Y-143649051D01*
X103149007Y-143591515D01*
X103241786Y-143524109D01*
X103241788Y-143524106D01*
X103241792Y-143524104D01*
X103392104Y-143373792D01*
X103392106Y-143373788D01*
X103392109Y-143373786D01*
X103517048Y-143201820D01*
X103517047Y-143201820D01*
X103517051Y-143201816D01*
X103613557Y-143012412D01*
X103679246Y-142810243D01*
X103712500Y-142600287D01*
X103712500Y-142387713D01*
X103679246Y-142177757D01*
X103613557Y-141975588D01*
X103517051Y-141786184D01*
X103517049Y-141786181D01*
X103517048Y-141786179D01*
X103392109Y-141614213D01*
X103278569Y-141500673D01*
X103245084Y-141439350D01*
X103250068Y-141369658D01*
X103291940Y-141313725D01*
X103322915Y-141296810D01*
X103454331Y-141247796D01*
X103569546Y-141161546D01*
X103655796Y-141046331D01*
X103706091Y-140911483D01*
X103712500Y-140851873D01*
X103712499Y-139056128D01*
X103706091Y-138996517D01*
X103706060Y-138996435D01*
X103655797Y-138861671D01*
X103655793Y-138861664D01*
X103569547Y-138746455D01*
X103569544Y-138746452D01*
X103454335Y-138660206D01*
X103454328Y-138660202D01*
X103319482Y-138609908D01*
X103319483Y-138609908D01*
X103259883Y-138603501D01*
X103259881Y-138603500D01*
X103259873Y-138603500D01*
X103259864Y-138603500D01*
X101464129Y-138603500D01*
X101464123Y-138603501D01*
X101404516Y-138609908D01*
X101269671Y-138660202D01*
X101269664Y-138660206D01*
X101154455Y-138746452D01*
X101154452Y-138746455D01*
X101068206Y-138861664D01*
X101068202Y-138861671D01*
X101017908Y-138996517D01*
X101012998Y-139042190D01*
X101011501Y-139056123D01*
X101011500Y-139056135D01*
X100500500Y-139056135D01*
X100500500Y-118547648D01*
X103619500Y-118547648D01*
X103619500Y-118752351D01*
X103651522Y-118954534D01*
X103714781Y-119149223D01*
X103778398Y-119274076D01*
X103801106Y-119318644D01*
X103807715Y-119331613D01*
X103928028Y-119497213D01*
X104072786Y-119641971D01*
X104227526Y-119754394D01*
X104238390Y-119762287D01*
X104329840Y-119808883D01*
X104331080Y-119809515D01*
X104381876Y-119857490D01*
X104398671Y-119925311D01*
X104376134Y-119991446D01*
X104331080Y-120030485D01*
X104238386Y-120077715D01*
X104072786Y-120198028D01*
X103928028Y-120342786D01*
X103807715Y-120508386D01*
X103714781Y-120690776D01*
X103651522Y-120885465D01*
X103619500Y-121087648D01*
X103619500Y-121292351D01*
X103651522Y-121494534D01*
X103714781Y-121689223D01*
X103807715Y-121871613D01*
X103928028Y-122037213D01*
X104072786Y-122181971D01*
X104227749Y-122294556D01*
X104238390Y-122302287D01*
X104329840Y-122348883D01*
X104331080Y-122349515D01*
X104381876Y-122397490D01*
X104398671Y-122465311D01*
X104376134Y-122531446D01*
X104331080Y-122570485D01*
X104238386Y-122617715D01*
X104072786Y-122738028D01*
X103928028Y-122882786D01*
X103807715Y-123048386D01*
X103714781Y-123230776D01*
X103651522Y-123425465D01*
X103619500Y-123627648D01*
X103619500Y-123832351D01*
X103651522Y-124034534D01*
X103714781Y-124229223D01*
X103807715Y-124411613D01*
X103928028Y-124577213D01*
X104072786Y-124721971D01*
X104227749Y-124834556D01*
X104238390Y-124842287D01*
X104329840Y-124888883D01*
X104331080Y-124889515D01*
X104381876Y-124937490D01*
X104398671Y-125005311D01*
X104376134Y-125071446D01*
X104331080Y-125110485D01*
X104238386Y-125157715D01*
X104072786Y-125278028D01*
X103928028Y-125422786D01*
X103807715Y-125588386D01*
X103714781Y-125770776D01*
X103651522Y-125965465D01*
X103619500Y-126167648D01*
X103619500Y-126372351D01*
X103651522Y-126574534D01*
X103714781Y-126769223D01*
X103774921Y-126887253D01*
X103803709Y-126943752D01*
X103807715Y-126951613D01*
X103928028Y-127117213D01*
X104072786Y-127261971D01*
X104200685Y-127354893D01*
X104238390Y-127382287D01*
X104329840Y-127428883D01*
X104331080Y-127429515D01*
X104381876Y-127477490D01*
X104398671Y-127545311D01*
X104376134Y-127611446D01*
X104331080Y-127650485D01*
X104238386Y-127697715D01*
X104072786Y-127818028D01*
X103928028Y-127962786D01*
X103807715Y-128128386D01*
X103714781Y-128310776D01*
X103651522Y-128505465D01*
X103619500Y-128707648D01*
X103619500Y-128912351D01*
X103651522Y-129114534D01*
X103714781Y-129309223D01*
X103775483Y-129428355D01*
X103804270Y-129484853D01*
X103807715Y-129491613D01*
X103928028Y-129657213D01*
X104072786Y-129801971D01*
X104238385Y-129922284D01*
X104238387Y-129922285D01*
X104238390Y-129922287D01*
X104331080Y-129969515D01*
X104331630Y-129969795D01*
X104382426Y-130017770D01*
X104399221Y-130085591D01*
X104376684Y-130151725D01*
X104331630Y-130190765D01*
X104238644Y-130238143D01*
X104194077Y-130270523D01*
X104194077Y-130270524D01*
X104873554Y-130950000D01*
X104867339Y-130950000D01*
X104765606Y-130977259D01*
X104674394Y-131029920D01*
X104599920Y-131104394D01*
X104547259Y-131195606D01*
X104520000Y-131297339D01*
X104520000Y-131303553D01*
X103840524Y-130624077D01*
X103840523Y-130624077D01*
X103808143Y-130668644D01*
X103715244Y-130850968D01*
X103652009Y-131045582D01*
X103620000Y-131247682D01*
X103620000Y-131452317D01*
X103652009Y-131654417D01*
X103715244Y-131849031D01*
X103808141Y-132031350D01*
X103808147Y-132031359D01*
X103840523Y-132075921D01*
X103840524Y-132075922D01*
X104520000Y-131396446D01*
X104520000Y-131402661D01*
X104547259Y-131504394D01*
X104599920Y-131595606D01*
X104674394Y-131670080D01*
X104765606Y-131722741D01*
X104867339Y-131750000D01*
X104873553Y-131750000D01*
X104194076Y-132429474D01*
X104238650Y-132461859D01*
X104420968Y-132554755D01*
X104615582Y-132617990D01*
X104817683Y-132650000D01*
X105022317Y-132650000D01*
X105224417Y-132617990D01*
X105419031Y-132554755D01*
X105601349Y-132461859D01*
X105645921Y-132429474D01*
X104966447Y-131750000D01*
X104972661Y-131750000D01*
X105074394Y-131722741D01*
X105165606Y-131670080D01*
X105240080Y-131595606D01*
X105292741Y-131504394D01*
X105320000Y-131402661D01*
X105320000Y-131396447D01*
X105999474Y-132075921D01*
X106031859Y-132031349D01*
X106124755Y-131849031D01*
X106187990Y-131654417D01*
X106220000Y-131452317D01*
X106220000Y-131247682D01*
X106187990Y-131045582D01*
X106124755Y-130850968D01*
X106031859Y-130668650D01*
X105999474Y-130624077D01*
X105999474Y-130624076D01*
X105320000Y-131303551D01*
X105320000Y-131297339D01*
X105292741Y-131195606D01*
X105240080Y-131104394D01*
X105165606Y-131029920D01*
X105074394Y-130977259D01*
X104972661Y-130950000D01*
X104966446Y-130950000D01*
X105645922Y-130270524D01*
X105645921Y-130270523D01*
X105601359Y-130238147D01*
X105601350Y-130238141D01*
X105508369Y-130190765D01*
X105457573Y-130142790D01*
X105440778Y-130074969D01*
X105463315Y-130008835D01*
X105508370Y-129969795D01*
X105508920Y-129969515D01*
X105601610Y-129922287D01*
X105719596Y-129836566D01*
X105767213Y-129801971D01*
X105767215Y-129801968D01*
X105767219Y-129801966D01*
X105911966Y-129657219D01*
X105911968Y-129657215D01*
X105911971Y-129657213D01*
X105966561Y-129582075D01*
X106032287Y-129491610D01*
X106125220Y-129309219D01*
X106188477Y-129114534D01*
X106220500Y-128912352D01*
X106220500Y-128707648D01*
X106220371Y-128706832D01*
X106188477Y-128505465D01*
X106125218Y-128310776D01*
X106076833Y-128215816D01*
X106032287Y-128128390D01*
X106024556Y-128117749D01*
X105911971Y-127962786D01*
X105767213Y-127818028D01*
X105601614Y-127697715D01*
X105595006Y-127694348D01*
X105508917Y-127650483D01*
X105458123Y-127602511D01*
X105441328Y-127534690D01*
X105463865Y-127468555D01*
X105508917Y-127429516D01*
X105601610Y-127382287D01*
X105693582Y-127315466D01*
X105767213Y-127261971D01*
X105767215Y-127261968D01*
X105767219Y-127261966D01*
X105911966Y-127117219D01*
X105911968Y-127117215D01*
X105911971Y-127117213D01*
X105974549Y-127031080D01*
X106032287Y-126951610D01*
X106125220Y-126769219D01*
X106188477Y-126574534D01*
X106220500Y-126372352D01*
X106220500Y-126167648D01*
X106188477Y-125965466D01*
X106175485Y-125925482D01*
X106159127Y-125875137D01*
X106125220Y-125770781D01*
X106125218Y-125770778D01*
X106125218Y-125770776D01*
X106091503Y-125704607D01*
X106032287Y-125588390D01*
X106024556Y-125577749D01*
X105911971Y-125422786D01*
X105767213Y-125278028D01*
X105601614Y-125157715D01*
X105595006Y-125154348D01*
X105508917Y-125110483D01*
X105458123Y-125062511D01*
X105441328Y-124994690D01*
X105463865Y-124928555D01*
X105508917Y-124889516D01*
X105601610Y-124842287D01*
X105622770Y-124826913D01*
X105767213Y-124721971D01*
X105767215Y-124721968D01*
X105767219Y-124721966D01*
X105911966Y-124577219D01*
X105911968Y-124577215D01*
X105911971Y-124577213D01*
X105964732Y-124504590D01*
X106032287Y-124411610D01*
X106125220Y-124229219D01*
X106188477Y-124034534D01*
X106220500Y-123832352D01*
X106220500Y-123627648D01*
X106188477Y-123425466D01*
X106125220Y-123230781D01*
X106125218Y-123230778D01*
X106125218Y-123230776D01*
X106091503Y-123164607D01*
X106032287Y-123048390D01*
X106024556Y-123037749D01*
X105911971Y-122882786D01*
X105767213Y-122738028D01*
X105601614Y-122617715D01*
X105595006Y-122614348D01*
X105508917Y-122570483D01*
X105458123Y-122522511D01*
X105441328Y-122454690D01*
X105463865Y-122388555D01*
X105508917Y-122349516D01*
X105601610Y-122302287D01*
X105622770Y-122286913D01*
X105767213Y-122181971D01*
X105767215Y-122181968D01*
X105767219Y-122181966D01*
X105911966Y-122037219D01*
X105911968Y-122037215D01*
X105911971Y-122037213D01*
X105964732Y-121964590D01*
X106032287Y-121871610D01*
X106125220Y-121689219D01*
X106188477Y-121494534D01*
X106220500Y-121292352D01*
X106220500Y-121087648D01*
X106188477Y-120885466D01*
X106183235Y-120869334D01*
X106136638Y-120725922D01*
X106125220Y-120690781D01*
X106125218Y-120690778D01*
X106125218Y-120690776D01*
X106078965Y-120600001D01*
X106032287Y-120508390D01*
X106024556Y-120497749D01*
X105911971Y-120342786D01*
X105767213Y-120198028D01*
X105601614Y-120077715D01*
X105595006Y-120074348D01*
X105508917Y-120030483D01*
X105458123Y-119982511D01*
X105441328Y-119914690D01*
X105463865Y-119848555D01*
X105508917Y-119809516D01*
X105601610Y-119762287D01*
X105680348Y-119705081D01*
X105767213Y-119641971D01*
X105767215Y-119641968D01*
X105767219Y-119641966D01*
X105911966Y-119497219D01*
X105911968Y-119497215D01*
X105911971Y-119497213D01*
X105972869Y-119413392D01*
X106032287Y-119331610D01*
X106125220Y-119149219D01*
X106188477Y-118954534D01*
X106220500Y-118752352D01*
X106220500Y-118547648D01*
X106211681Y-118491971D01*
X106220635Y-118422679D01*
X106246470Y-118384895D01*
X106581382Y-118049983D01*
X113779500Y-118049983D01*
X113779500Y-119250001D01*
X113779501Y-119250018D01*
X113790000Y-119352796D01*
X113790001Y-119352799D01*
X113831894Y-119479221D01*
X113845186Y-119519334D01*
X113937288Y-119668656D01*
X114061344Y-119792712D01*
X114210666Y-119884814D01*
X114292570Y-119911954D01*
X114350015Y-119951727D01*
X114376838Y-120016243D01*
X114364523Y-120085018D01*
X114326451Y-120129978D01*
X114232787Y-120198028D01*
X114232782Y-120198032D01*
X114088028Y-120342786D01*
X113967715Y-120508386D01*
X113874781Y-120690776D01*
X113811522Y-120885465D01*
X113779500Y-121087648D01*
X113779500Y-121292351D01*
X113811522Y-121494534D01*
X113874781Y-121689223D01*
X113967715Y-121871613D01*
X114088028Y-122037213D01*
X114232786Y-122181971D01*
X114387749Y-122294556D01*
X114398390Y-122302287D01*
X114489840Y-122348883D01*
X114491080Y-122349515D01*
X114541876Y-122397490D01*
X114558671Y-122465311D01*
X114536134Y-122531446D01*
X114491080Y-122570485D01*
X114398386Y-122617715D01*
X114232786Y-122738028D01*
X114088028Y-122882786D01*
X113967715Y-123048386D01*
X113874781Y-123230776D01*
X113811522Y-123425465D01*
X113779500Y-123627648D01*
X113779500Y-123832351D01*
X113811522Y-124034534D01*
X113874781Y-124229223D01*
X113967715Y-124411613D01*
X114088028Y-124577213D01*
X114232786Y-124721971D01*
X114387749Y-124834556D01*
X114398390Y-124842287D01*
X114489840Y-124888883D01*
X114491080Y-124889515D01*
X114541876Y-124937490D01*
X114558671Y-125005311D01*
X114536134Y-125071446D01*
X114491080Y-125110485D01*
X114398386Y-125157715D01*
X114232786Y-125278028D01*
X114088028Y-125422786D01*
X113967715Y-125588386D01*
X113874781Y-125770776D01*
X113811522Y-125965465D01*
X113779500Y-126167648D01*
X113779500Y-126372351D01*
X113811522Y-126574534D01*
X113874781Y-126769223D01*
X113934921Y-126887253D01*
X113963709Y-126943752D01*
X113967715Y-126951613D01*
X114088028Y-127117213D01*
X114232786Y-127261971D01*
X114360685Y-127354893D01*
X114398390Y-127382287D01*
X114489840Y-127428883D01*
X114491080Y-127429515D01*
X114541876Y-127477490D01*
X114558671Y-127545311D01*
X114536134Y-127611446D01*
X114491080Y-127650485D01*
X114398386Y-127697715D01*
X114232786Y-127818028D01*
X114088028Y-127962786D01*
X113967715Y-128128386D01*
X113874781Y-128310776D01*
X113811522Y-128505465D01*
X113779500Y-128707648D01*
X113779500Y-128912351D01*
X113811522Y-129114534D01*
X113874781Y-129309223D01*
X113935483Y-129428355D01*
X113964270Y-129484853D01*
X113967715Y-129491613D01*
X114088028Y-129657213D01*
X114232786Y-129801971D01*
X114387749Y-129914556D01*
X114398390Y-129922287D01*
X114489840Y-129968883D01*
X114491080Y-129969515D01*
X114541876Y-130017490D01*
X114558671Y-130085311D01*
X114536134Y-130151446D01*
X114491080Y-130190485D01*
X114398386Y-130237715D01*
X114232786Y-130358028D01*
X114088028Y-130502786D01*
X113967715Y-130668386D01*
X113874781Y-130850776D01*
X113811522Y-131045465D01*
X113779500Y-131247648D01*
X113779500Y-131452351D01*
X113811522Y-131654534D01*
X113874781Y-131849223D01*
X113938691Y-131974653D01*
X113967585Y-132031359D01*
X113967715Y-132031613D01*
X114088028Y-132197213D01*
X114232786Y-132341971D01*
X114353226Y-132429474D01*
X114398390Y-132462287D01*
X114514607Y-132521503D01*
X114580776Y-132555218D01*
X114580778Y-132555218D01*
X114580781Y-132555220D01*
X114685137Y-132589127D01*
X114775465Y-132618477D01*
X114876557Y-132634488D01*
X114977648Y-132650500D01*
X114977649Y-132650500D01*
X115182351Y-132650500D01*
X115182352Y-132650500D01*
X115384534Y-132618477D01*
X115579219Y-132555220D01*
X115761610Y-132462287D01*
X115854590Y-132394732D01*
X115927213Y-132341971D01*
X115927215Y-132341968D01*
X115927219Y-132341966D01*
X116071966Y-132197219D01*
X116071968Y-132197215D01*
X116071971Y-132197213D01*
X116124732Y-132124590D01*
X116192287Y-132031610D01*
X116285220Y-131849219D01*
X116348477Y-131654534D01*
X116380500Y-131452352D01*
X116380500Y-131247648D01*
X116373369Y-131202624D01*
X116362723Y-131135409D01*
X116348477Y-131045465D01*
X116317458Y-130950000D01*
X116285220Y-130850781D01*
X116285218Y-130850778D01*
X116285218Y-130850776D01*
X116192419Y-130668650D01*
X116192287Y-130668390D01*
X116160092Y-130624077D01*
X116071971Y-130502786D01*
X115927213Y-130358028D01*
X115761614Y-130237715D01*
X115755006Y-130234348D01*
X115668917Y-130190483D01*
X115618123Y-130142511D01*
X115601328Y-130074690D01*
X115623865Y-130008555D01*
X115668917Y-129969516D01*
X115761610Y-129922287D01*
X115927219Y-129801966D01*
X116071966Y-129657219D01*
X116071968Y-129657215D01*
X116071971Y-129657213D01*
X116126561Y-129582075D01*
X116192287Y-129491610D01*
X116285220Y-129309219D01*
X116348477Y-129114534D01*
X116380500Y-128912352D01*
X116380500Y-128707648D01*
X116380371Y-128706832D01*
X116348477Y-128505465D01*
X116285218Y-128310776D01*
X116236833Y-128215816D01*
X116192287Y-128128390D01*
X116184556Y-128117749D01*
X116071971Y-127962786D01*
X115927213Y-127818028D01*
X115761614Y-127697715D01*
X115755006Y-127694348D01*
X115668917Y-127650483D01*
X115618123Y-127602511D01*
X115601328Y-127534690D01*
X115623865Y-127468555D01*
X115668917Y-127429516D01*
X115761610Y-127382287D01*
X115853582Y-127315466D01*
X115927213Y-127261971D01*
X115927215Y-127261968D01*
X115927219Y-127261966D01*
X116071966Y-127117219D01*
X116071968Y-127117215D01*
X116071971Y-127117213D01*
X116134549Y-127031080D01*
X116192287Y-126951610D01*
X116285220Y-126769219D01*
X116348477Y-126574534D01*
X116380500Y-126372352D01*
X116380500Y-126167648D01*
X116348477Y-125965466D01*
X116335485Y-125925482D01*
X116319127Y-125875137D01*
X116285220Y-125770781D01*
X116285218Y-125770778D01*
X116285218Y-125770776D01*
X116251503Y-125704607D01*
X116192287Y-125588390D01*
X116184556Y-125577749D01*
X116071971Y-125422786D01*
X115927213Y-125278028D01*
X115761614Y-125157715D01*
X115755006Y-125154348D01*
X115668917Y-125110483D01*
X115618123Y-125062511D01*
X115601328Y-124994690D01*
X115623865Y-124928555D01*
X115668917Y-124889516D01*
X115761610Y-124842287D01*
X115782770Y-124826913D01*
X115927213Y-124721971D01*
X115927215Y-124721968D01*
X115927219Y-124721966D01*
X116071966Y-124577219D01*
X116071968Y-124577215D01*
X116071971Y-124577213D01*
X116124732Y-124504590D01*
X116192287Y-124411610D01*
X116285220Y-124229219D01*
X116336910Y-124070135D01*
X121077500Y-124070135D01*
X121077500Y-125865870D01*
X121077501Y-125865876D01*
X121083908Y-125925483D01*
X121134202Y-126060328D01*
X121134206Y-126060335D01*
X121220452Y-126175544D01*
X121220455Y-126175547D01*
X121335664Y-126261793D01*
X121335671Y-126261797D01*
X121467082Y-126310810D01*
X121523016Y-126352681D01*
X121547433Y-126418145D01*
X121532582Y-126486418D01*
X121511431Y-126514673D01*
X121397889Y-126628215D01*
X121272951Y-126800179D01*
X121176444Y-126989585D01*
X121110753Y-127191760D01*
X121077500Y-127401713D01*
X121077500Y-127614286D01*
X121109770Y-127818034D01*
X121110754Y-127824243D01*
X121140216Y-127914918D01*
X121176444Y-128026414D01*
X121272951Y-128215820D01*
X121397890Y-128387786D01*
X121548213Y-128538109D01*
X121720179Y-128663048D01*
X121720181Y-128663049D01*
X121720184Y-128663051D01*
X121729493Y-128667794D01*
X121780290Y-128715766D01*
X121797087Y-128783587D01*
X121774552Y-128849722D01*
X121729505Y-128888760D01*
X121720446Y-128893376D01*
X121720440Y-128893380D01*
X121666282Y-128932727D01*
X121666282Y-128932728D01*
X122298591Y-129565037D01*
X122235007Y-129582075D01*
X122120993Y-129647901D01*
X122027901Y-129740993D01*
X121962075Y-129855007D01*
X121945037Y-129918591D01*
X121312728Y-129286282D01*
X121312727Y-129286282D01*
X121273380Y-129340439D01*
X121176904Y-129529782D01*
X121111242Y-129731869D01*
X121111242Y-129731872D01*
X121078000Y-129941753D01*
X121078000Y-130154246D01*
X121111242Y-130364127D01*
X121111242Y-130364130D01*
X121176904Y-130566217D01*
X121273375Y-130755550D01*
X121312728Y-130809716D01*
X121945037Y-130177408D01*
X121962075Y-130240993D01*
X122027901Y-130355007D01*
X122120993Y-130448099D01*
X122235007Y-130513925D01*
X122298590Y-130530962D01*
X121666282Y-131163269D01*
X121666282Y-131163270D01*
X121720449Y-131202624D01*
X121909782Y-131299095D01*
X122111870Y-131364757D01*
X122321754Y-131398000D01*
X122534246Y-131398000D01*
X122744127Y-131364757D01*
X122744130Y-131364757D01*
X122946217Y-131299095D01*
X123135554Y-131202622D01*
X123189716Y-131163270D01*
X123189717Y-131163270D01*
X122557408Y-130530962D01*
X122620993Y-130513925D01*
X122735007Y-130448099D01*
X122828099Y-130355007D01*
X122893925Y-130240993D01*
X122910962Y-130177409D01*
X123543270Y-130809717D01*
X123543270Y-130809716D01*
X123582622Y-130755554D01*
X123679095Y-130566217D01*
X123744757Y-130364130D01*
X123744757Y-130364127D01*
X123778000Y-130154246D01*
X123778000Y-129941753D01*
X123744757Y-129731872D01*
X123744757Y-129731869D01*
X123679095Y-129529782D01*
X123582624Y-129340449D01*
X123543270Y-129286282D01*
X123543269Y-129286282D01*
X122910962Y-129918590D01*
X122893925Y-129855007D01*
X122828099Y-129740993D01*
X122735007Y-129647901D01*
X122620993Y-129582075D01*
X122557409Y-129565037D01*
X123189716Y-128932728D01*
X123135547Y-128893373D01*
X123135547Y-128893372D01*
X123126500Y-128888763D01*
X123075706Y-128840788D01*
X123058912Y-128772966D01*
X123081451Y-128706832D01*
X123126508Y-128667793D01*
X123135816Y-128663051D01*
X123215007Y-128605515D01*
X123307786Y-128538109D01*
X123307788Y-128538106D01*
X123307792Y-128538104D01*
X123458104Y-128387792D01*
X123458106Y-128387788D01*
X123458109Y-128387786D01*
X123583048Y-128215820D01*
X123583047Y-128215820D01*
X123583051Y-128215816D01*
X123679557Y-128026412D01*
X123745246Y-127824243D01*
X123778500Y-127614287D01*
X123778500Y-127401713D01*
X123745246Y-127191757D01*
X123679557Y-126989588D01*
X123583051Y-126800184D01*
X123583049Y-126800181D01*
X123583048Y-126800179D01*
X123458109Y-126628213D01*
X123344569Y-126514673D01*
X123311084Y-126453350D01*
X123316068Y-126383658D01*
X123357940Y-126327725D01*
X123388915Y-126310810D01*
X123520331Y-126261796D01*
X123635546Y-126175546D01*
X123721796Y-126060331D01*
X123772091Y-125925483D01*
X123778500Y-125865873D01*
X123778500Y-125842500D01*
X123798185Y-125775461D01*
X123850989Y-125729706D01*
X123902500Y-125718500D01*
X133653501Y-125718500D01*
X133720540Y-125738185D01*
X133766295Y-125790989D01*
X133777501Y-125842500D01*
X133777501Y-125865876D01*
X133783908Y-125925483D01*
X133834202Y-126060328D01*
X133834206Y-126060335D01*
X133920452Y-126175544D01*
X133920455Y-126175547D01*
X134035664Y-126261793D01*
X134035671Y-126261797D01*
X134167082Y-126310810D01*
X134223016Y-126352681D01*
X134247433Y-126418145D01*
X134232582Y-126486418D01*
X134211431Y-126514673D01*
X134097889Y-126628215D01*
X133972951Y-126800179D01*
X133876444Y-126989585D01*
X133810753Y-127191760D01*
X133777500Y-127401713D01*
X133777500Y-127614286D01*
X133809770Y-127818034D01*
X133810754Y-127824243D01*
X133840216Y-127914918D01*
X133876444Y-128026414D01*
X133972951Y-128215820D01*
X134097890Y-128387786D01*
X134248213Y-128538109D01*
X134420179Y-128663048D01*
X134420181Y-128663049D01*
X134420184Y-128663051D01*
X134429493Y-128667794D01*
X134480290Y-128715766D01*
X134497087Y-128783587D01*
X134474552Y-128849722D01*
X134429505Y-128888760D01*
X134420446Y-128893376D01*
X134420440Y-128893380D01*
X134366282Y-128932727D01*
X134366282Y-128932728D01*
X134998591Y-129565037D01*
X134935007Y-129582075D01*
X134820993Y-129647901D01*
X134727901Y-129740993D01*
X134662075Y-129855007D01*
X134645037Y-129918591D01*
X134012728Y-129286282D01*
X134012727Y-129286282D01*
X133973380Y-129340439D01*
X133876904Y-129529782D01*
X133811242Y-129731869D01*
X133811242Y-129731872D01*
X133778000Y-129941753D01*
X133778000Y-130154246D01*
X133811242Y-130364127D01*
X133811242Y-130364130D01*
X133876904Y-130566217D01*
X133973375Y-130755550D01*
X134012728Y-130809716D01*
X134645037Y-130177408D01*
X134662075Y-130240993D01*
X134727901Y-130355007D01*
X134820993Y-130448099D01*
X134935007Y-130513925D01*
X134998590Y-130530962D01*
X134366282Y-131163269D01*
X134366282Y-131163270D01*
X134420449Y-131202624D01*
X134609782Y-131299095D01*
X134811870Y-131364757D01*
X135021754Y-131398000D01*
X135234246Y-131398000D01*
X135444127Y-131364757D01*
X135444130Y-131364757D01*
X135646217Y-131299095D01*
X135835554Y-131202622D01*
X135889716Y-131163270D01*
X135889717Y-131163270D01*
X135257408Y-130530962D01*
X135320993Y-130513925D01*
X135435007Y-130448099D01*
X135528099Y-130355007D01*
X135593925Y-130240993D01*
X135610962Y-130177408D01*
X136243270Y-130809717D01*
X136243270Y-130809716D01*
X136282622Y-130755554D01*
X136379095Y-130566217D01*
X136444757Y-130364130D01*
X136444757Y-130364127D01*
X136478000Y-130154246D01*
X136478000Y-129941753D01*
X136444757Y-129731872D01*
X136444757Y-129731869D01*
X136379095Y-129529782D01*
X136282624Y-129340449D01*
X136243270Y-129286282D01*
X136243269Y-129286282D01*
X135610962Y-129918590D01*
X135593925Y-129855007D01*
X135528099Y-129740993D01*
X135435007Y-129647901D01*
X135320993Y-129582075D01*
X135257409Y-129565037D01*
X135889716Y-128932728D01*
X135835547Y-128893373D01*
X135835547Y-128893372D01*
X135826500Y-128888763D01*
X135775706Y-128840788D01*
X135758912Y-128772966D01*
X135781451Y-128706832D01*
X135826508Y-128667793D01*
X135835816Y-128663051D01*
X135915007Y-128605515D01*
X136007786Y-128538109D01*
X136007788Y-128538106D01*
X136007792Y-128538104D01*
X136158104Y-128387792D01*
X136158106Y-128387788D01*
X136158109Y-128387786D01*
X136283048Y-128215820D01*
X136283047Y-128215820D01*
X136283051Y-128215816D01*
X136379557Y-128026412D01*
X136445246Y-127824243D01*
X136478500Y-127614287D01*
X136478500Y-127401713D01*
X136445246Y-127191757D01*
X136379557Y-126989588D01*
X136283051Y-126800184D01*
X136283049Y-126800181D01*
X136283048Y-126800179D01*
X136158109Y-126628213D01*
X136044569Y-126514673D01*
X136011084Y-126453350D01*
X136016068Y-126383658D01*
X136057940Y-126327725D01*
X136088915Y-126310810D01*
X136220331Y-126261796D01*
X136335546Y-126175546D01*
X136421796Y-126060331D01*
X136472091Y-125925483D01*
X136478500Y-125865873D01*
X136478499Y-124070128D01*
X136472091Y-124010517D01*
X136421796Y-123875669D01*
X136421795Y-123875668D01*
X136421793Y-123875664D01*
X136335547Y-123760455D01*
X136335544Y-123760452D01*
X136220335Y-123674206D01*
X136220328Y-123674202D01*
X136085482Y-123623908D01*
X136085483Y-123623908D01*
X136025883Y-123617501D01*
X136025881Y-123617500D01*
X136025873Y-123617500D01*
X136025864Y-123617500D01*
X134230129Y-123617500D01*
X134230123Y-123617501D01*
X134170516Y-123623908D01*
X134035671Y-123674202D01*
X134035664Y-123674206D01*
X133920455Y-123760452D01*
X133920452Y-123760455D01*
X133834206Y-123875664D01*
X133834202Y-123875671D01*
X133783908Y-124010517D01*
X133777501Y-124070116D01*
X133777501Y-124070123D01*
X133777500Y-124070135D01*
X133777500Y-124093500D01*
X133757815Y-124160539D01*
X133705011Y-124206294D01*
X133653500Y-124217500D01*
X123902499Y-124217500D01*
X123835460Y-124197815D01*
X123789705Y-124145011D01*
X123778499Y-124093500D01*
X123778499Y-124070129D01*
X123778498Y-124070123D01*
X123778497Y-124070116D01*
X123772091Y-124010517D01*
X123721796Y-123875669D01*
X123721795Y-123875668D01*
X123721793Y-123875664D01*
X123635547Y-123760455D01*
X123635544Y-123760452D01*
X123520335Y-123674206D01*
X123520328Y-123674202D01*
X123385482Y-123623908D01*
X123385483Y-123623908D01*
X123325883Y-123617501D01*
X123325881Y-123617500D01*
X123325873Y-123617500D01*
X123325864Y-123617500D01*
X121530129Y-123617500D01*
X121530123Y-123617501D01*
X121470516Y-123623908D01*
X121335671Y-123674202D01*
X121335664Y-123674206D01*
X121220455Y-123760452D01*
X121220452Y-123760455D01*
X121134206Y-123875664D01*
X121134202Y-123875671D01*
X121083908Y-124010517D01*
X121077501Y-124070116D01*
X121077501Y-124070123D01*
X121077500Y-124070135D01*
X116336910Y-124070135D01*
X116348477Y-124034534D01*
X116380500Y-123832352D01*
X116380500Y-123627648D01*
X116348477Y-123425466D01*
X116285220Y-123230781D01*
X116285218Y-123230778D01*
X116285218Y-123230776D01*
X116251503Y-123164607D01*
X116192287Y-123048390D01*
X116184556Y-123037749D01*
X116071971Y-122882786D01*
X115927213Y-122738028D01*
X115761614Y-122617715D01*
X115755006Y-122614348D01*
X115668917Y-122570483D01*
X115618123Y-122522511D01*
X115601328Y-122454690D01*
X115623865Y-122388555D01*
X115668917Y-122349516D01*
X115761610Y-122302287D01*
X115782770Y-122286913D01*
X115927213Y-122181971D01*
X115927215Y-122181968D01*
X115927219Y-122181966D01*
X116071966Y-122037219D01*
X116071968Y-122037215D01*
X116071971Y-122037213D01*
X116124732Y-121964590D01*
X116192287Y-121871610D01*
X116285220Y-121689219D01*
X116348477Y-121494534D01*
X116380500Y-121292352D01*
X116380500Y-121087648D01*
X116348477Y-120885466D01*
X116343235Y-120869334D01*
X116296638Y-120725922D01*
X116285220Y-120690781D01*
X116285218Y-120690778D01*
X116285218Y-120690776D01*
X116238965Y-120600001D01*
X116192287Y-120508390D01*
X116184556Y-120497749D01*
X116071971Y-120342786D01*
X115927219Y-120198034D01*
X115867153Y-120154394D01*
X115833547Y-120129978D01*
X115790882Y-120074649D01*
X115784903Y-120005036D01*
X115817508Y-119943240D01*
X115867426Y-119911955D01*
X115949334Y-119884814D01*
X116098656Y-119792712D01*
X116222712Y-119668656D01*
X116314814Y-119519334D01*
X116369999Y-119352797D01*
X116380500Y-119250009D01*
X116380499Y-118049992D01*
X116373840Y-117984809D01*
X116369999Y-117947203D01*
X116369998Y-117947200D01*
X116352270Y-117893700D01*
X116314814Y-117780666D01*
X116222712Y-117631344D01*
X116098656Y-117507288D01*
X115949334Y-117415186D01*
X115782797Y-117360001D01*
X115782795Y-117360000D01*
X115680010Y-117349500D01*
X114479998Y-117349500D01*
X114479981Y-117349501D01*
X114377203Y-117360000D01*
X114377200Y-117360001D01*
X114210668Y-117415185D01*
X114210663Y-117415187D01*
X114061342Y-117507289D01*
X113937289Y-117631342D01*
X113845187Y-117780663D01*
X113845186Y-117780666D01*
X113790001Y-117947203D01*
X113790001Y-117947204D01*
X113790000Y-117947204D01*
X113779500Y-118049983D01*
X106581382Y-118049983D01*
X110763748Y-113867619D01*
X110825071Y-113834134D01*
X110851429Y-113831300D01*
X131925320Y-113831300D01*
X132022862Y-113811896D01*
X132070313Y-113802458D01*
X132206895Y-113745884D01*
X132256129Y-113712986D01*
X132329816Y-113663752D01*
X132895819Y-113097749D01*
X132957142Y-113064264D01*
X133026834Y-113069248D01*
X133082767Y-113111120D01*
X133107184Y-113176584D01*
X133107500Y-113185430D01*
X133107500Y-116631918D01*
X133107500Y-116631920D01*
X133107499Y-116631920D01*
X133136340Y-116776907D01*
X133136343Y-116776917D01*
X133179379Y-116880814D01*
X133192916Y-116913495D01*
X133210086Y-116939193D01*
X133218558Y-116951872D01*
X133275049Y-117036418D01*
X133275052Y-117036421D01*
X143593526Y-127354893D01*
X143627011Y-127416216D01*
X143628318Y-127461971D01*
X143619500Y-127517647D01*
X143619500Y-127722351D01*
X143651522Y-127924534D01*
X143714781Y-128119223D01*
X143807715Y-128301613D01*
X143928028Y-128467213D01*
X144072786Y-128611971D01*
X144227749Y-128724556D01*
X144238390Y-128732287D01*
X144339072Y-128783587D01*
X144420776Y-128825218D01*
X144420778Y-128825218D01*
X144420781Y-128825220D01*
X144523206Y-128858500D01*
X144615465Y-128888477D01*
X144699564Y-128901797D01*
X144817648Y-128920500D01*
X144817649Y-128920500D01*
X145022350Y-128920500D01*
X145022352Y-128920500D01*
X145078027Y-128911681D01*
X145147319Y-128920635D01*
X145185106Y-128946473D01*
X150498849Y-134260216D01*
X150592137Y-134353504D01*
X150603385Y-134364752D01*
X150726298Y-134446880D01*
X150726311Y-134446887D01*
X150862882Y-134503456D01*
X150862887Y-134503458D01*
X150862891Y-134503458D01*
X150862892Y-134503459D01*
X151007879Y-134532300D01*
X151007882Y-134532300D01*
X151007883Y-134532300D01*
X151155717Y-134532300D01*
X151866796Y-134532300D01*
X151914244Y-134541737D01*
X151937903Y-134551537D01*
X151937908Y-134551538D01*
X151937911Y-134551539D01*
X152092553Y-134582299D01*
X152092556Y-134582300D01*
X152092558Y-134582300D01*
X152250244Y-134582300D01*
X152250245Y-134582299D01*
X152404897Y-134551537D01*
X152550579Y-134491194D01*
X152681689Y-134403589D01*
X152793189Y-134292089D01*
X152880794Y-134160979D01*
X152941137Y-134015297D01*
X152971900Y-133860642D01*
X152971900Y-133702958D01*
X152971900Y-133702955D01*
X152971899Y-133702953D01*
X152965991Y-133673251D01*
X152941137Y-133548303D01*
X152941135Y-133548298D01*
X152880797Y-133402627D01*
X152880790Y-133402614D01*
X152793189Y-133271511D01*
X152793186Y-133271507D01*
X152681692Y-133160013D01*
X152681688Y-133160010D01*
X152550585Y-133072409D01*
X152550572Y-133072402D01*
X152404901Y-133012064D01*
X152404889Y-133012061D01*
X152250245Y-132981300D01*
X152250242Y-132981300D01*
X152092558Y-132981300D01*
X152092555Y-132981300D01*
X151937911Y-133012060D01*
X151937906Y-133012062D01*
X151937904Y-133012062D01*
X151937903Y-133012063D01*
X151914244Y-133021862D01*
X151866796Y-133031300D01*
X151444029Y-133031300D01*
X151376990Y-133011615D01*
X151356348Y-132994981D01*
X149565060Y-131203692D01*
X147492301Y-129130933D01*
X147458816Y-129069610D01*
X147463800Y-128999918D01*
X147505672Y-128943985D01*
X147560584Y-128920779D01*
X147562346Y-128920500D01*
X147562352Y-128920500D01*
X147764534Y-128888477D01*
X147959219Y-128825220D01*
X148141610Y-128732287D01*
X148236910Y-128663048D01*
X148307213Y-128611971D01*
X148307215Y-128611968D01*
X148307219Y-128611966D01*
X148451966Y-128467219D01*
X148451968Y-128467215D01*
X148451971Y-128467213D01*
X148572284Y-128301614D01*
X148572285Y-128301613D01*
X148572287Y-128301610D01*
X148619516Y-128208917D01*
X148667489Y-128158123D01*
X148735310Y-128141328D01*
X148801445Y-128163865D01*
X148840485Y-128208919D01*
X148887715Y-128301614D01*
X149008028Y-128467213D01*
X149152786Y-128611971D01*
X149307749Y-128724556D01*
X149318390Y-128732287D01*
X149419072Y-128783587D01*
X149500776Y-128825218D01*
X149500778Y-128825218D01*
X149500781Y-128825220D01*
X149603206Y-128858500D01*
X149695465Y-128888477D01*
X149779564Y-128901797D01*
X149897648Y-128920500D01*
X149897649Y-128920500D01*
X150102351Y-128920500D01*
X150102352Y-128920500D01*
X150304534Y-128888477D01*
X150499219Y-128825220D01*
X150681610Y-128732287D01*
X150776910Y-128663048D01*
X150847213Y-128611971D01*
X150847215Y-128611968D01*
X150847219Y-128611966D01*
X150991966Y-128467219D01*
X150991968Y-128467215D01*
X150991971Y-128467213D01*
X151112284Y-128301614D01*
X151112285Y-128301613D01*
X151112287Y-128301610D01*
X151159516Y-128208917D01*
X151207489Y-128158123D01*
X151275310Y-128141328D01*
X151341445Y-128163865D01*
X151380485Y-128208919D01*
X151427715Y-128301614D01*
X151548028Y-128467213D01*
X151692786Y-128611971D01*
X151847749Y-128724556D01*
X151858390Y-128732287D01*
X151959072Y-128783587D01*
X152040776Y-128825218D01*
X152040778Y-128825218D01*
X152040781Y-128825220D01*
X152143206Y-128858500D01*
X152235465Y-128888477D01*
X152319564Y-128901797D01*
X152437648Y-128920500D01*
X152437649Y-128920500D01*
X152642351Y-128920500D01*
X152642352Y-128920500D01*
X152844534Y-128888477D01*
X153039219Y-128825220D01*
X153221610Y-128732287D01*
X153316910Y-128663048D01*
X153387213Y-128611971D01*
X153387215Y-128611968D01*
X153387219Y-128611966D01*
X153531966Y-128467219D01*
X153531968Y-128467215D01*
X153531971Y-128467213D01*
X153589677Y-128387786D01*
X153652287Y-128301610D01*
X153745220Y-128119219D01*
X153808477Y-127924534D01*
X153840500Y-127722352D01*
X153840500Y-127517648D01*
X153840500Y-127517647D01*
X153808477Y-127315465D01*
X153768282Y-127191760D01*
X153745220Y-127120781D01*
X153745218Y-127120778D01*
X153745218Y-127120776D01*
X153699515Y-127031080D01*
X153652287Y-126938390D01*
X153615134Y-126887253D01*
X153531971Y-126772786D01*
X153387213Y-126628028D01*
X153221613Y-126507715D01*
X153221612Y-126507714D01*
X153221610Y-126507713D01*
X153163091Y-126477896D01*
X153039223Y-126414781D01*
X152844534Y-126351522D01*
X152669995Y-126323878D01*
X152642352Y-126319500D01*
X152437648Y-126319500D01*
X152413329Y-126323351D01*
X152235465Y-126351522D01*
X152040776Y-126414781D01*
X151858386Y-126507715D01*
X151692786Y-126628028D01*
X151548028Y-126772786D01*
X151427715Y-126938386D01*
X151380485Y-127031080D01*
X151332510Y-127081876D01*
X151264689Y-127098671D01*
X151198554Y-127076134D01*
X151159515Y-127031080D01*
X151158883Y-127029840D01*
X151112287Y-126938390D01*
X151075134Y-126887253D01*
X150991971Y-126772786D01*
X150847213Y-126628028D01*
X150681613Y-126507715D01*
X150681612Y-126507714D01*
X150681610Y-126507713D01*
X150623091Y-126477896D01*
X150499223Y-126414781D01*
X150304534Y-126351522D01*
X150129995Y-126323878D01*
X150102352Y-126319500D01*
X149897648Y-126319500D01*
X149873329Y-126323351D01*
X149695465Y-126351522D01*
X149500776Y-126414781D01*
X149318386Y-126507715D01*
X149152786Y-126628028D01*
X149008028Y-126772786D01*
X148887715Y-126938386D01*
X148840485Y-127031080D01*
X148792510Y-127081876D01*
X148724689Y-127098671D01*
X148658554Y-127076134D01*
X148619515Y-127031080D01*
X148618883Y-127029840D01*
X148572287Y-126938390D01*
X148535134Y-126887253D01*
X148451971Y-126772786D01*
X148307213Y-126628028D01*
X148141613Y-126507715D01*
X148141612Y-126507714D01*
X148141610Y-126507713D01*
X148083091Y-126477896D01*
X147959223Y-126414781D01*
X147764534Y-126351522D01*
X147589995Y-126323878D01*
X147562352Y-126319500D01*
X147357648Y-126319500D01*
X147333329Y-126323351D01*
X147155465Y-126351522D01*
X146960776Y-126414781D01*
X146778386Y-126507715D01*
X146612786Y-126628028D01*
X146468028Y-126772786D01*
X146347715Y-126938386D01*
X146300485Y-127031080D01*
X146252510Y-127081876D01*
X146184689Y-127098671D01*
X146118554Y-127076134D01*
X146079515Y-127031080D01*
X146078883Y-127029840D01*
X146032287Y-126938390D01*
X145995134Y-126887253D01*
X145911971Y-126772786D01*
X145767213Y-126628028D01*
X145601613Y-126507715D01*
X145601612Y-126507714D01*
X145601610Y-126507713D01*
X145543091Y-126477896D01*
X145419223Y-126414781D01*
X145224534Y-126351522D01*
X145049995Y-126323878D01*
X145022352Y-126319500D01*
X144817648Y-126319500D01*
X144761971Y-126328318D01*
X144692678Y-126319363D01*
X144654893Y-126293526D01*
X137845883Y-119484515D01*
X137761351Y-119399983D01*
X143619500Y-119399983D01*
X143619500Y-120600001D01*
X143619501Y-120600018D01*
X143630000Y-120702796D01*
X143630001Y-120702799D01*
X143685185Y-120869331D01*
X143685187Y-120869336D01*
X143711676Y-120912282D01*
X143777288Y-121018656D01*
X143901344Y-121142712D01*
X144050666Y-121234814D01*
X144217203Y-121289999D01*
X144319991Y-121300500D01*
X145520008Y-121300499D01*
X145622797Y-121289999D01*
X145789334Y-121234814D01*
X145938656Y-121142712D01*
X146062712Y-121018656D01*
X146154814Y-120869334D01*
X146181955Y-120787427D01*
X146221726Y-120729984D01*
X146286242Y-120703161D01*
X146355018Y-120715476D01*
X146399977Y-120753547D01*
X146427078Y-120790847D01*
X146468034Y-120847219D01*
X146612786Y-120991971D01*
X146733226Y-121079474D01*
X146778390Y-121112287D01*
X146894607Y-121171503D01*
X146960776Y-121205218D01*
X146960778Y-121205218D01*
X146960781Y-121205220D01*
X147051856Y-121234812D01*
X147155465Y-121268477D01*
X147236994Y-121281390D01*
X147357648Y-121300500D01*
X147357649Y-121300500D01*
X147562351Y-121300500D01*
X147562352Y-121300500D01*
X147764534Y-121268477D01*
X147959219Y-121205220D01*
X148141610Y-121112287D01*
X148270482Y-121018657D01*
X148307213Y-120991971D01*
X148307215Y-120991968D01*
X148307219Y-120991966D01*
X148451966Y-120847219D01*
X148451968Y-120847215D01*
X148451971Y-120847213D01*
X148572284Y-120681614D01*
X148572286Y-120681611D01*
X148572287Y-120681610D01*
X148619516Y-120588917D01*
X148667489Y-120538123D01*
X148735310Y-120521328D01*
X148801445Y-120543865D01*
X148840483Y-120588917D01*
X148846140Y-120600018D01*
X148887715Y-120681614D01*
X149008028Y-120847213D01*
X149152786Y-120991971D01*
X149273226Y-121079474D01*
X149318390Y-121112287D01*
X149434607Y-121171503D01*
X149500776Y-121205218D01*
X149500778Y-121205218D01*
X149500781Y-121205220D01*
X149591856Y-121234812D01*
X149695465Y-121268477D01*
X149776994Y-121281390D01*
X149897648Y-121300500D01*
X149897649Y-121300500D01*
X150102351Y-121300500D01*
X150102352Y-121300500D01*
X150304534Y-121268477D01*
X150499219Y-121205220D01*
X150681610Y-121112287D01*
X150810482Y-121018657D01*
X150847213Y-120991971D01*
X150847215Y-120991968D01*
X150847219Y-120991966D01*
X150991966Y-120847219D01*
X150991968Y-120847215D01*
X150991971Y-120847213D01*
X151096894Y-120702797D01*
X151112287Y-120681610D01*
X151159795Y-120588369D01*
X151207769Y-120537573D01*
X151275590Y-120520778D01*
X151341725Y-120543315D01*
X151380765Y-120588369D01*
X151428141Y-120681350D01*
X151428147Y-120681359D01*
X151460523Y-120725921D01*
X151460524Y-120725922D01*
X152140000Y-120046446D01*
X152140000Y-120052661D01*
X152167259Y-120154394D01*
X152219920Y-120245606D01*
X152294394Y-120320080D01*
X152385606Y-120372741D01*
X152487339Y-120400000D01*
X152493553Y-120400000D01*
X151814076Y-121079474D01*
X151858650Y-121111859D01*
X152040968Y-121204755D01*
X152235582Y-121267990D01*
X152437683Y-121300000D01*
X152642317Y-121300000D01*
X152844417Y-121267990D01*
X153039031Y-121204755D01*
X153221349Y-121111859D01*
X153265921Y-121079474D01*
X152586447Y-120400000D01*
X152592661Y-120400000D01*
X152694394Y-120372741D01*
X152785606Y-120320080D01*
X152860080Y-120245606D01*
X152912741Y-120154394D01*
X152940000Y-120052661D01*
X152940000Y-120046448D01*
X153619474Y-120725922D01*
X153619474Y-120725921D01*
X153651859Y-120681349D01*
X153744755Y-120499031D01*
X153807990Y-120304417D01*
X153840000Y-120102317D01*
X153840000Y-119897682D01*
X153807990Y-119695582D01*
X153744755Y-119500968D01*
X153651859Y-119318650D01*
X153619474Y-119274077D01*
X153619474Y-119274076D01*
X152940000Y-119953551D01*
X152940000Y-119947339D01*
X152912741Y-119845606D01*
X152860080Y-119754394D01*
X152785606Y-119679920D01*
X152694394Y-119627259D01*
X152592661Y-119600000D01*
X152586446Y-119600000D01*
X153265922Y-118920524D01*
X153265921Y-118920523D01*
X153221359Y-118888147D01*
X153221350Y-118888141D01*
X153039031Y-118795244D01*
X152844417Y-118732009D01*
X152642317Y-118700000D01*
X152437683Y-118700000D01*
X152235582Y-118732009D01*
X152040968Y-118795244D01*
X151858644Y-118888143D01*
X151814077Y-118920523D01*
X151814077Y-118920524D01*
X152493554Y-119600000D01*
X152487339Y-119600000D01*
X152385606Y-119627259D01*
X152294394Y-119679920D01*
X152219920Y-119754394D01*
X152167259Y-119845606D01*
X152140000Y-119947339D01*
X152140000Y-119953553D01*
X151460524Y-119274077D01*
X151460523Y-119274077D01*
X151428143Y-119318644D01*
X151380765Y-119411630D01*
X151332790Y-119462426D01*
X151264969Y-119479221D01*
X151198834Y-119456683D01*
X151159795Y-119411630D01*
X151159515Y-119411080D01*
X151112287Y-119318390D01*
X151112285Y-119318387D01*
X151112284Y-119318385D01*
X150991971Y-119152786D01*
X150847213Y-119008028D01*
X150681613Y-118887715D01*
X150681612Y-118887714D01*
X150681610Y-118887713D01*
X150621898Y-118857288D01*
X150499223Y-118794781D01*
X150304534Y-118731522D01*
X150129995Y-118703878D01*
X150102352Y-118699500D01*
X149897648Y-118699500D01*
X149873329Y-118703351D01*
X149695465Y-118731522D01*
X149500776Y-118794781D01*
X149318386Y-118887715D01*
X149152786Y-119008028D01*
X149008028Y-119152786D01*
X148887715Y-119318386D01*
X148840485Y-119411080D01*
X148792510Y-119461876D01*
X148724689Y-119478671D01*
X148658554Y-119456134D01*
X148619515Y-119411080D01*
X148589818Y-119352797D01*
X148572287Y-119318390D01*
X148540092Y-119274077D01*
X148451971Y-119152786D01*
X148307213Y-119008028D01*
X148141613Y-118887715D01*
X148141612Y-118887714D01*
X148141610Y-118887713D01*
X148081898Y-118857288D01*
X147959223Y-118794781D01*
X147764534Y-118731522D01*
X147589995Y-118703878D01*
X147562352Y-118699500D01*
X147357648Y-118699500D01*
X147333329Y-118703351D01*
X147155465Y-118731522D01*
X146960776Y-118794781D01*
X146778386Y-118887715D01*
X146612786Y-119008028D01*
X146468032Y-119152782D01*
X146468028Y-119152787D01*
X146399978Y-119246451D01*
X146344648Y-119289117D01*
X146275035Y-119295096D01*
X146213240Y-119262490D01*
X146181954Y-119212570D01*
X146154814Y-119130666D01*
X146062712Y-118981344D01*
X145938656Y-118857288D01*
X145789334Y-118765186D01*
X145622797Y-118710001D01*
X145622795Y-118710000D01*
X145520010Y-118699500D01*
X144319998Y-118699500D01*
X144319981Y-118699501D01*
X144217203Y-118710000D01*
X144217200Y-118710001D01*
X144050668Y-118765185D01*
X144050663Y-118765187D01*
X143901342Y-118857289D01*
X143777289Y-118981342D01*
X143685187Y-119130663D01*
X143685186Y-119130666D01*
X143630001Y-119297203D01*
X143630001Y-119297204D01*
X143630000Y-119297204D01*
X143619500Y-119399983D01*
X137761351Y-119399983D01*
X134644819Y-116283451D01*
X134611334Y-116222128D01*
X134608500Y-116195770D01*
X134608500Y-111436429D01*
X134628185Y-111369390D01*
X134644819Y-111348748D01*
X138784348Y-107209219D01*
X138784351Y-107209216D01*
X138866484Y-107086295D01*
X138923058Y-106949713D01*
X138951900Y-106804718D01*
X138951900Y-106656883D01*
X138951900Y-73536030D01*
X138971585Y-73468991D01*
X139024389Y-73423236D01*
X139093547Y-73413292D01*
X139157103Y-73442317D01*
X139163581Y-73448349D01*
X141403049Y-75687816D01*
X141507583Y-75792350D01*
X141507585Y-75792352D01*
X141630498Y-75874480D01*
X141630511Y-75874487D01*
X141767082Y-75931056D01*
X141767087Y-75931058D01*
X141767091Y-75931058D01*
X141767092Y-75931059D01*
X141912079Y-75959900D01*
X141912082Y-75959900D01*
X162374520Y-75959900D01*
X162472062Y-75940496D01*
X162519513Y-75931058D01*
X162656095Y-75874484D01*
X162705329Y-75841586D01*
X162779016Y-75792352D01*
X170323983Y-68247382D01*
X170385304Y-68213899D01*
X170431056Y-68212592D01*
X170568113Y-68234300D01*
X170568115Y-68234300D01*
X170780686Y-68234300D01*
X170780687Y-68234300D01*
X170990643Y-68201046D01*
X171192812Y-68135357D01*
X171382216Y-68038851D01*
X171419300Y-68011908D01*
X171554186Y-67913909D01*
X171554188Y-67913906D01*
X171554192Y-67913904D01*
X171704504Y-67763592D01*
X171704506Y-67763588D01*
X171704509Y-67763586D01*
X171790290Y-67645517D01*
X171829451Y-67591616D01*
X171834193Y-67582308D01*
X171882163Y-67531511D01*
X171949983Y-67514711D01*
X172016119Y-67537245D01*
X172055163Y-67582300D01*
X172059773Y-67591347D01*
X172099128Y-67645516D01*
X172731437Y-67013208D01*
X172748475Y-67076793D01*
X172814301Y-67190807D01*
X172907393Y-67283899D01*
X173021407Y-67349725D01*
X173084990Y-67366762D01*
X172452682Y-67999069D01*
X172452682Y-67999070D01*
X172506849Y-68038424D01*
X172696182Y-68134895D01*
X172898270Y-68200557D01*
X173108154Y-68233800D01*
X173320646Y-68233800D01*
X173530527Y-68200557D01*
X173530530Y-68200557D01*
X173732617Y-68134895D01*
X173921954Y-68038422D01*
X173976116Y-67999070D01*
X173976117Y-67999070D01*
X173343808Y-67366762D01*
X173407393Y-67349725D01*
X173521407Y-67283899D01*
X173614499Y-67190807D01*
X173680325Y-67076793D01*
X173697362Y-67013208D01*
X174329670Y-67645517D01*
X174329670Y-67645516D01*
X174369022Y-67591355D01*
X174373632Y-67582307D01*
X174421605Y-67531509D01*
X174489425Y-67514712D01*
X174555561Y-67537247D01*
X174594604Y-67582304D01*
X174599349Y-67591617D01*
X174724290Y-67763586D01*
X174874613Y-67913909D01*
X175046579Y-68038848D01*
X175046581Y-68038849D01*
X175046584Y-68038851D01*
X175235988Y-68135357D01*
X175438157Y-68201046D01*
X175648113Y-68234300D01*
X175648114Y-68234300D01*
X175860686Y-68234300D01*
X175860687Y-68234300D01*
X176070643Y-68201046D01*
X176272812Y-68135357D01*
X176462216Y-68038851D01*
X176502614Y-68009499D01*
X176568421Y-67986020D01*
X176636475Y-68001845D01*
X176685170Y-68051951D01*
X176699500Y-68109818D01*
X176699500Y-118173970D01*
X176679815Y-118241009D01*
X176663181Y-118261651D01*
X176455046Y-118469786D01*
X174417050Y-120507780D01*
X174417044Y-120507788D01*
X174367812Y-120581468D01*
X174367813Y-120581469D01*
X174334921Y-120630696D01*
X174334914Y-120630708D01*
X174278342Y-120767286D01*
X174278340Y-120767292D01*
X174249500Y-120912279D01*
X174249500Y-123493500D01*
X174229815Y-123560539D01*
X174177011Y-123606294D01*
X174125506Y-123617500D01*
X174108132Y-123617500D01*
X174108123Y-123617501D01*
X174048516Y-123623908D01*
X173913671Y-123674202D01*
X173913664Y-123674206D01*
X173798455Y-123760452D01*
X173798452Y-123760455D01*
X173712206Y-123875664D01*
X173712202Y-123875671D01*
X173661908Y-124010517D01*
X173655501Y-124070116D01*
X173655501Y-124070123D01*
X173655500Y-124070135D01*
X173655500Y-124125500D01*
X173635815Y-124192539D01*
X173583011Y-124238294D01*
X173531500Y-124249500D01*
X163780499Y-124249500D01*
X163713460Y-124229815D01*
X163667705Y-124177011D01*
X163656499Y-124125500D01*
X163656499Y-124070129D01*
X163656498Y-124070123D01*
X163656497Y-124070116D01*
X163650091Y-124010517D01*
X163599796Y-123875669D01*
X163599795Y-123875668D01*
X163599793Y-123875664D01*
X163513547Y-123760455D01*
X163513544Y-123760452D01*
X163398335Y-123674206D01*
X163398328Y-123674202D01*
X163263482Y-123623908D01*
X163263483Y-123623908D01*
X163203883Y-123617501D01*
X163203881Y-123617500D01*
X163203873Y-123617500D01*
X163203864Y-123617500D01*
X161408129Y-123617500D01*
X161408123Y-123617501D01*
X161348516Y-123623908D01*
X161213671Y-123674202D01*
X161213664Y-123674206D01*
X161098455Y-123760452D01*
X161098452Y-123760455D01*
X161012206Y-123875664D01*
X161012202Y-123875671D01*
X160961908Y-124010517D01*
X160955501Y-124070116D01*
X160955501Y-124070123D01*
X160955500Y-124070135D01*
X160955500Y-125865870D01*
X160955501Y-125865876D01*
X160961908Y-125925483D01*
X161012202Y-126060328D01*
X161012206Y-126060335D01*
X161098452Y-126175544D01*
X161098455Y-126175547D01*
X161213664Y-126261793D01*
X161213671Y-126261797D01*
X161345082Y-126310810D01*
X161401016Y-126352681D01*
X161425433Y-126418145D01*
X161410582Y-126486418D01*
X161389431Y-126514673D01*
X161275889Y-126628215D01*
X161150951Y-126800179D01*
X161054444Y-126989585D01*
X160988753Y-127191760D01*
X160955500Y-127401713D01*
X160955500Y-127614286D01*
X160987770Y-127818034D01*
X160988754Y-127824243D01*
X161018216Y-127914918D01*
X161054444Y-128026414D01*
X161150951Y-128215820D01*
X161275890Y-128387786D01*
X161426213Y-128538109D01*
X161598179Y-128663048D01*
X161598181Y-128663049D01*
X161598184Y-128663051D01*
X161607493Y-128667794D01*
X161658290Y-128715766D01*
X161675087Y-128783587D01*
X161652552Y-128849722D01*
X161607505Y-128888760D01*
X161598446Y-128893376D01*
X161598440Y-128893380D01*
X161544282Y-128932727D01*
X161544282Y-128932728D01*
X162176591Y-129565037D01*
X162113007Y-129582075D01*
X161998993Y-129647901D01*
X161905901Y-129740993D01*
X161840075Y-129855007D01*
X161823037Y-129918591D01*
X161190728Y-129286282D01*
X161190727Y-129286282D01*
X161151380Y-129340439D01*
X161054904Y-129529782D01*
X160989242Y-129731869D01*
X160989242Y-129731872D01*
X160956000Y-129941753D01*
X160956000Y-130154246D01*
X160989242Y-130364127D01*
X160989242Y-130364130D01*
X161054904Y-130566217D01*
X161151375Y-130755550D01*
X161190728Y-130809716D01*
X161823037Y-130177408D01*
X161840075Y-130240993D01*
X161905901Y-130355007D01*
X161998993Y-130448099D01*
X162113007Y-130513925D01*
X162176590Y-130530962D01*
X161544282Y-131163269D01*
X161544282Y-131163270D01*
X161598449Y-131202624D01*
X161787782Y-131299095D01*
X161989870Y-131364757D01*
X162199754Y-131398000D01*
X162412246Y-131398000D01*
X162622127Y-131364757D01*
X162622130Y-131364757D01*
X162824217Y-131299095D01*
X163013554Y-131202622D01*
X163067716Y-131163270D01*
X163067717Y-131163270D01*
X162435408Y-130530962D01*
X162498993Y-130513925D01*
X162613007Y-130448099D01*
X162706099Y-130355007D01*
X162771925Y-130240993D01*
X162788962Y-130177408D01*
X163421270Y-130809717D01*
X163421270Y-130809716D01*
X163460622Y-130755554D01*
X163557095Y-130566217D01*
X163622757Y-130364130D01*
X163622757Y-130364127D01*
X163656000Y-130154246D01*
X163656000Y-129941753D01*
X163622757Y-129731872D01*
X163622757Y-129731869D01*
X163557095Y-129529782D01*
X163460624Y-129340449D01*
X163421270Y-129286282D01*
X163421269Y-129286282D01*
X162788962Y-129918590D01*
X162771925Y-129855007D01*
X162706099Y-129740993D01*
X162613007Y-129647901D01*
X162498993Y-129582075D01*
X162435409Y-129565037D01*
X163067716Y-128932728D01*
X163013547Y-128893373D01*
X163013547Y-128893372D01*
X163004500Y-128888763D01*
X162953706Y-128840788D01*
X162936912Y-128772966D01*
X162959451Y-128706832D01*
X163004508Y-128667793D01*
X163013816Y-128663051D01*
X163093007Y-128605515D01*
X163185786Y-128538109D01*
X163185788Y-128538106D01*
X163185792Y-128538104D01*
X163336104Y-128387792D01*
X163336106Y-128387788D01*
X163336109Y-128387786D01*
X163461048Y-128215820D01*
X163461047Y-128215820D01*
X163461051Y-128215816D01*
X163557557Y-128026412D01*
X163623246Y-127824243D01*
X163656500Y-127614287D01*
X163656500Y-127401713D01*
X163623246Y-127191757D01*
X163557557Y-126989588D01*
X163461051Y-126800184D01*
X163461049Y-126800181D01*
X163461048Y-126800179D01*
X163336109Y-126628213D01*
X163222569Y-126514673D01*
X163189084Y-126453350D01*
X163194068Y-126383658D01*
X163235940Y-126327725D01*
X163266915Y-126310810D01*
X163398331Y-126261796D01*
X163513546Y-126175546D01*
X163599796Y-126060331D01*
X163650091Y-125925483D01*
X163656500Y-125865873D01*
X163656500Y-125865870D01*
X163656855Y-125862572D01*
X163658210Y-125862717D01*
X163679630Y-125801983D01*
X163734803Y-125759115D01*
X163780215Y-125750500D01*
X173531785Y-125750500D01*
X173598824Y-125770185D01*
X173644579Y-125822989D01*
X173654328Y-125862658D01*
X173655146Y-125862571D01*
X173661908Y-125925483D01*
X173712202Y-126060328D01*
X173712206Y-126060335D01*
X173798452Y-126175544D01*
X173798455Y-126175547D01*
X173913664Y-126261793D01*
X173913671Y-126261797D01*
X174045082Y-126310810D01*
X174101016Y-126352681D01*
X174125433Y-126418145D01*
X174110582Y-126486418D01*
X174089431Y-126514673D01*
X173975889Y-126628215D01*
X173850951Y-126800179D01*
X173754444Y-126989585D01*
X173688753Y-127191760D01*
X173655500Y-127401713D01*
X173655500Y-127614286D01*
X173687770Y-127818034D01*
X173688754Y-127824243D01*
X173718216Y-127914918D01*
X173754444Y-128026414D01*
X173850951Y-128215820D01*
X173975890Y-128387786D01*
X174126213Y-128538109D01*
X174298179Y-128663048D01*
X174298181Y-128663049D01*
X174298184Y-128663051D01*
X174307493Y-128667794D01*
X174358290Y-128715766D01*
X174375087Y-128783587D01*
X174352552Y-128849722D01*
X174307505Y-128888760D01*
X174298446Y-128893376D01*
X174298440Y-128893380D01*
X174244282Y-128932727D01*
X174244282Y-128932728D01*
X174876591Y-129565037D01*
X174813007Y-129582075D01*
X174698993Y-129647901D01*
X174605901Y-129740993D01*
X174540075Y-129855007D01*
X174523037Y-129918591D01*
X173890728Y-129286282D01*
X173890727Y-129286282D01*
X173851380Y-129340439D01*
X173754904Y-129529782D01*
X173689242Y-129731869D01*
X173689242Y-129731872D01*
X173656000Y-129941753D01*
X173656000Y-130154246D01*
X173689242Y-130364127D01*
X173689242Y-130364130D01*
X173754904Y-130566217D01*
X173851375Y-130755550D01*
X173890728Y-130809716D01*
X174523037Y-130177408D01*
X174540075Y-130240993D01*
X174605901Y-130355007D01*
X174698993Y-130448099D01*
X174813007Y-130513925D01*
X174876590Y-130530962D01*
X174244282Y-131163269D01*
X174244282Y-131163270D01*
X174298449Y-131202624D01*
X174487782Y-131299095D01*
X174689870Y-131364757D01*
X174899754Y-131398000D01*
X175112246Y-131398000D01*
X175322127Y-131364757D01*
X175322130Y-131364757D01*
X175524217Y-131299095D01*
X175713554Y-131202622D01*
X175767716Y-131163270D01*
X175767717Y-131163270D01*
X175135408Y-130530962D01*
X175198993Y-130513925D01*
X175313007Y-130448099D01*
X175406099Y-130355007D01*
X175471925Y-130240993D01*
X175488962Y-130177409D01*
X176121270Y-130809717D01*
X176121270Y-130809716D01*
X176160622Y-130755554D01*
X176205415Y-130667645D01*
X176253390Y-130616849D01*
X176321211Y-130600054D01*
X176387346Y-130622592D01*
X176430797Y-130677307D01*
X176439900Y-130723940D01*
X176439900Y-131184370D01*
X176420215Y-131251409D01*
X176403581Y-131272051D01*
X173690051Y-133985581D01*
X173628728Y-134019066D01*
X173602370Y-134021900D01*
X172188994Y-134021900D01*
X172044006Y-134050740D01*
X172043996Y-134050743D01*
X171907425Y-134107312D01*
X171907410Y-134107320D01*
X171862555Y-134137293D01*
X171862552Y-134137295D01*
X171784503Y-134189443D01*
X171784498Y-134189447D01*
X166806765Y-139167181D01*
X166745442Y-139200666D01*
X166719084Y-139203500D01*
X156668499Y-139203500D01*
X156601460Y-139183815D01*
X156555705Y-139131011D01*
X156544499Y-139079500D01*
X156544499Y-139056129D01*
X156544498Y-139056123D01*
X156544497Y-139056116D01*
X156538091Y-138996517D01*
X156538060Y-138996435D01*
X156487797Y-138861671D01*
X156487793Y-138861664D01*
X156401547Y-138746455D01*
X156401544Y-138746452D01*
X156286335Y-138660206D01*
X156286328Y-138660202D01*
X156151482Y-138609908D01*
X156151483Y-138609908D01*
X156091883Y-138603501D01*
X156091881Y-138603500D01*
X156091873Y-138603500D01*
X156091864Y-138603500D01*
X154296129Y-138603500D01*
X154296123Y-138603501D01*
X154236516Y-138609908D01*
X154101671Y-138660202D01*
X154101664Y-138660206D01*
X153986455Y-138746452D01*
X153986452Y-138746455D01*
X153900206Y-138861664D01*
X153900202Y-138861671D01*
X153849908Y-138996517D01*
X153844998Y-139042190D01*
X153843501Y-139056123D01*
X153843500Y-139056135D01*
X153843500Y-140851870D01*
X153843501Y-140851876D01*
X153849908Y-140911483D01*
X153900202Y-141046328D01*
X153900206Y-141046335D01*
X153986452Y-141161544D01*
X153986455Y-141161547D01*
X154101664Y-141247793D01*
X154101671Y-141247797D01*
X154233082Y-141296810D01*
X154289016Y-141338681D01*
X154313433Y-141404145D01*
X154298582Y-141472418D01*
X154277431Y-141500673D01*
X154163889Y-141614215D01*
X154038951Y-141786179D01*
X153942444Y-141975585D01*
X153876753Y-142177760D01*
X153843500Y-142387713D01*
X153843500Y-142600286D01*
X153876753Y-142810239D01*
X153942444Y-143012414D01*
X154038951Y-143201820D01*
X154163890Y-143373786D01*
X154314213Y-143524109D01*
X154486179Y-143649048D01*
X154486181Y-143649049D01*
X154486184Y-143649051D01*
X154495493Y-143653794D01*
X154546290Y-143701766D01*
X154563087Y-143769587D01*
X154540552Y-143835722D01*
X154495505Y-143874760D01*
X154486446Y-143879376D01*
X154486440Y-143879380D01*
X154432282Y-143918727D01*
X154432282Y-143918728D01*
X155064591Y-144551037D01*
X155001007Y-144568075D01*
X154886993Y-144633901D01*
X154793901Y-144726993D01*
X154728075Y-144841007D01*
X154711037Y-144904591D01*
X154078728Y-144272282D01*
X154078727Y-144272282D01*
X154039380Y-144326439D01*
X153942904Y-144515782D01*
X153877242Y-144717869D01*
X153877242Y-144717872D01*
X153844000Y-144927753D01*
X153844000Y-145140246D01*
X153877242Y-145350127D01*
X153877242Y-145350130D01*
X153942904Y-145552217D01*
X154039375Y-145741550D01*
X154078728Y-145795716D01*
X154711037Y-145163408D01*
X154728075Y-145226993D01*
X154793901Y-145341007D01*
X154886993Y-145434099D01*
X155001007Y-145499925D01*
X155064590Y-145516962D01*
X154432282Y-146149269D01*
X154432282Y-146149270D01*
X154486449Y-146188624D01*
X154675782Y-146285095D01*
X154877870Y-146350757D01*
X155087754Y-146384000D01*
X155300246Y-146384000D01*
X155510127Y-146350757D01*
X155510130Y-146350757D01*
X155712217Y-146285095D01*
X155901554Y-146188622D01*
X155955716Y-146149270D01*
X155955717Y-146149270D01*
X155323408Y-145516962D01*
X155386993Y-145499925D01*
X155501007Y-145434099D01*
X155594099Y-145341007D01*
X155659925Y-145226993D01*
X155676962Y-145163408D01*
X156309270Y-145795717D01*
X156309270Y-145795716D01*
X156348622Y-145741554D01*
X156445095Y-145552217D01*
X156510757Y-145350130D01*
X156510757Y-145350127D01*
X156544000Y-145140246D01*
X156544000Y-144927753D01*
X156510757Y-144717872D01*
X156510757Y-144717869D01*
X156445095Y-144515782D01*
X156348624Y-144326449D01*
X156309270Y-144272282D01*
X155676962Y-144904590D01*
X155659925Y-144841007D01*
X155594099Y-144726993D01*
X155501007Y-144633901D01*
X155386993Y-144568075D01*
X155323409Y-144551037D01*
X155955716Y-143918728D01*
X155901547Y-143879373D01*
X155901547Y-143879372D01*
X155892500Y-143874763D01*
X155841706Y-143826788D01*
X155824912Y-143758966D01*
X155847451Y-143692832D01*
X155892508Y-143653793D01*
X155901816Y-143649051D01*
X155981007Y-143591515D01*
X156073786Y-143524109D01*
X156073788Y-143524106D01*
X156073792Y-143524104D01*
X156224104Y-143373792D01*
X156224106Y-143373788D01*
X156224109Y-143373786D01*
X156349048Y-143201820D01*
X156349047Y-143201820D01*
X156349051Y-143201816D01*
X156445557Y-143012412D01*
X156511246Y-142810243D01*
X156544500Y-142600287D01*
X156544500Y-142387713D01*
X156511246Y-142177757D01*
X156445557Y-141975588D01*
X156349051Y-141786184D01*
X156349049Y-141786181D01*
X156349048Y-141786179D01*
X156224109Y-141614213D01*
X156110569Y-141500673D01*
X156077084Y-141439350D01*
X156082068Y-141369658D01*
X156123940Y-141313725D01*
X156154915Y-141296810D01*
X156286331Y-141247796D01*
X156401546Y-141161546D01*
X156487796Y-141046331D01*
X156538091Y-140911483D01*
X156544500Y-140851873D01*
X156544500Y-140828500D01*
X156564185Y-140761461D01*
X156616989Y-140715706D01*
X156668500Y-140704500D01*
X167155234Y-140704500D01*
X167252776Y-140685096D01*
X167300227Y-140675658D01*
X167436809Y-140619084D01*
X167486043Y-140586186D01*
X167559730Y-140536952D01*
X172537463Y-135559219D01*
X172598786Y-135525734D01*
X172625144Y-135522900D01*
X174038520Y-135522900D01*
X174136062Y-135503496D01*
X174183513Y-135494058D01*
X174320095Y-135437484D01*
X174369329Y-135404586D01*
X174443016Y-135355352D01*
X177041019Y-132757347D01*
X177102342Y-132723863D01*
X177172034Y-132728847D01*
X177227967Y-132770719D01*
X177252384Y-132836183D01*
X177252700Y-132845029D01*
X177252700Y-134353504D01*
X177252700Y-134353506D01*
X177252699Y-134353506D01*
X177281540Y-134498493D01*
X177281543Y-134498503D01*
X177338112Y-134635074D01*
X177338116Y-134635081D01*
X177361084Y-134669455D01*
X177361085Y-134669458D01*
X177361086Y-134669458D01*
X177420251Y-134758006D01*
X178585820Y-135923575D01*
X178619305Y-135984898D01*
X178614321Y-136054590D01*
X178572449Y-136110523D01*
X178571025Y-136111573D01*
X178545816Y-136129888D01*
X178545809Y-136129894D01*
X178395490Y-136280213D01*
X178270549Y-136452182D01*
X178266084Y-136460946D01*
X178218109Y-136511742D01*
X178150288Y-136528536D01*
X178084153Y-136505998D01*
X178045116Y-136460946D01*
X178040650Y-136452182D01*
X177915709Y-136280213D01*
X177765386Y-136129890D01*
X177593420Y-136004951D01*
X177404014Y-135908444D01*
X177404013Y-135908443D01*
X177404012Y-135908443D01*
X177201843Y-135842754D01*
X177201841Y-135842753D01*
X177201840Y-135842753D01*
X177040557Y-135817208D01*
X176991887Y-135809500D01*
X176779313Y-135809500D01*
X176730642Y-135817208D01*
X176569360Y-135842753D01*
X176367185Y-135908444D01*
X176177779Y-136004951D01*
X176005815Y-136129889D01*
X175891885Y-136243819D01*
X175830562Y-136277303D01*
X175760870Y-136272319D01*
X175704937Y-136230447D01*
X175688022Y-136199470D01*
X175638954Y-136067913D01*
X175638950Y-136067906D01*
X175552790Y-135952812D01*
X175552787Y-135952809D01*
X175437693Y-135866649D01*
X175437686Y-135866645D01*
X175302979Y-135816403D01*
X175302972Y-135816401D01*
X175243444Y-135810000D01*
X174595600Y-135810000D01*
X174595600Y-136726988D01*
X174538593Y-136694075D01*
X174411426Y-136660000D01*
X174279774Y-136660000D01*
X174152607Y-136694075D01*
X174095600Y-136726988D01*
X174095600Y-135810000D01*
X173447755Y-135810000D01*
X173388227Y-135816401D01*
X173388220Y-135816403D01*
X173253513Y-135866645D01*
X173253506Y-135866649D01*
X173138412Y-135952809D01*
X173138409Y-135952812D01*
X173052249Y-136067906D01*
X173052245Y-136067913D01*
X173002003Y-136202620D01*
X173002001Y-136202627D01*
X172995600Y-136262155D01*
X172995600Y-136910000D01*
X173912588Y-136910000D01*
X173879675Y-136967007D01*
X173845600Y-137094174D01*
X173845600Y-137225826D01*
X173879675Y-137352993D01*
X173912588Y-137410000D01*
X172995600Y-137410000D01*
X172995600Y-138057844D01*
X173002001Y-138117372D01*
X173002003Y-138117379D01*
X173052245Y-138252086D01*
X173052249Y-138252093D01*
X173138409Y-138367187D01*
X173138412Y-138367190D01*
X173253506Y-138453350D01*
X173253513Y-138453354D01*
X173388220Y-138503596D01*
X173388227Y-138503598D01*
X173447755Y-138509999D01*
X173447772Y-138510000D01*
X174095600Y-138510000D01*
X174095600Y-137593012D01*
X174152607Y-137625925D01*
X174279774Y-137660000D01*
X174411426Y-137660000D01*
X174538593Y-137625925D01*
X174595600Y-137593012D01*
X174595600Y-138510000D01*
X175243428Y-138510000D01*
X175243444Y-138509999D01*
X175302972Y-138503598D01*
X175302979Y-138503596D01*
X175437686Y-138453354D01*
X175437693Y-138453350D01*
X175552787Y-138367190D01*
X175552790Y-138367187D01*
X175638950Y-138252093D01*
X175638954Y-138252086D01*
X175688022Y-138120529D01*
X175729893Y-138064595D01*
X175795357Y-138040178D01*
X175863630Y-138055030D01*
X175891885Y-138076181D01*
X176005813Y-138190109D01*
X176177779Y-138315048D01*
X176177781Y-138315049D01*
X176177784Y-138315051D01*
X176367188Y-138411557D01*
X176569357Y-138477246D01*
X176779313Y-138510500D01*
X176779314Y-138510500D01*
X176991886Y-138510500D01*
X176991887Y-138510500D01*
X177201843Y-138477246D01*
X177404012Y-138411557D01*
X177593416Y-138315051D01*
X177680071Y-138252093D01*
X177765386Y-138190109D01*
X177765388Y-138190106D01*
X177765392Y-138190104D01*
X177915704Y-138039792D01*
X177915706Y-138039788D01*
X177915709Y-138039786D01*
X178040648Y-137867820D01*
X178040647Y-137867820D01*
X178040651Y-137867816D01*
X178045114Y-137859054D01*
X178093088Y-137808259D01*
X178160908Y-137791463D01*
X178227044Y-137813999D01*
X178266086Y-137859056D01*
X178270551Y-137867820D01*
X178395490Y-138039786D01*
X178545813Y-138190109D01*
X178717779Y-138315048D01*
X178717781Y-138315049D01*
X178717784Y-138315051D01*
X178907188Y-138411557D01*
X179109357Y-138477246D01*
X179319313Y-138510500D01*
X179319314Y-138510500D01*
X179531886Y-138510500D01*
X179531887Y-138510500D01*
X179741843Y-138477246D01*
X179944012Y-138411557D01*
X180133416Y-138315051D01*
X180220071Y-138252093D01*
X180305386Y-138190109D01*
X180305388Y-138190106D01*
X180305392Y-138190104D01*
X180455704Y-138039792D01*
X180455706Y-138039788D01*
X180455709Y-138039786D01*
X180580648Y-137867820D01*
X180580647Y-137867820D01*
X180580651Y-137867816D01*
X180585114Y-137859054D01*
X180633088Y-137808259D01*
X180700908Y-137791463D01*
X180767044Y-137813999D01*
X180806086Y-137859056D01*
X180810551Y-137867820D01*
X180935490Y-138039786D01*
X181085813Y-138190109D01*
X181257779Y-138315048D01*
X181257781Y-138315049D01*
X181257784Y-138315051D01*
X181447188Y-138411557D01*
X181649357Y-138477246D01*
X181859313Y-138510500D01*
X181859314Y-138510500D01*
X182071886Y-138510500D01*
X182071887Y-138510500D01*
X182281843Y-138477246D01*
X182484012Y-138411557D01*
X182673416Y-138315051D01*
X182760071Y-138252093D01*
X182845386Y-138190109D01*
X182845388Y-138190106D01*
X182845392Y-138190104D01*
X182995704Y-138039792D01*
X182995706Y-138039788D01*
X182995709Y-138039786D01*
X183120648Y-137867820D01*
X183120647Y-137867820D01*
X183120651Y-137867816D01*
X183125114Y-137859054D01*
X183173088Y-137808259D01*
X183240908Y-137791463D01*
X183307044Y-137813999D01*
X183346086Y-137859056D01*
X183350551Y-137867820D01*
X183475490Y-138039786D01*
X183625813Y-138190109D01*
X183797779Y-138315048D01*
X183797781Y-138315049D01*
X183797784Y-138315051D01*
X183987188Y-138411557D01*
X184189357Y-138477246D01*
X184399313Y-138510500D01*
X184399314Y-138510500D01*
X184611886Y-138510500D01*
X184611887Y-138510500D01*
X184821843Y-138477246D01*
X185024012Y-138411557D01*
X185213416Y-138315051D01*
X185300071Y-138252093D01*
X185385386Y-138190109D01*
X185385388Y-138190106D01*
X185385392Y-138190104D01*
X185535704Y-138039792D01*
X185535706Y-138039788D01*
X185535709Y-138039786D01*
X185660648Y-137867820D01*
X185660647Y-137867820D01*
X185660651Y-137867816D01*
X185757157Y-137678412D01*
X185822846Y-137476243D01*
X185856100Y-137266287D01*
X185856100Y-137053713D01*
X185822846Y-136843757D01*
X185757157Y-136641588D01*
X185660651Y-136452184D01*
X185660649Y-136452181D01*
X185660648Y-136452179D01*
X185535709Y-136280213D01*
X185385386Y-136129890D01*
X185213420Y-136004951D01*
X185024014Y-135908444D01*
X185024013Y-135908443D01*
X185024012Y-135908443D01*
X184821843Y-135842754D01*
X184821841Y-135842753D01*
X184821840Y-135842753D01*
X184660557Y-135817208D01*
X184611887Y-135809500D01*
X184399313Y-135809500D01*
X184350642Y-135817208D01*
X184189360Y-135842753D01*
X183987185Y-135908444D01*
X183797779Y-136004951D01*
X183625813Y-136129890D01*
X183475490Y-136280213D01*
X183350549Y-136452182D01*
X183346084Y-136460946D01*
X183298109Y-136511742D01*
X183230288Y-136528536D01*
X183164153Y-136505998D01*
X183125116Y-136460946D01*
X183120650Y-136452182D01*
X182995709Y-136280213D01*
X182845386Y-136129890D01*
X182673420Y-136004951D01*
X182484014Y-135908444D01*
X182484013Y-135908443D01*
X182484012Y-135908443D01*
X182281843Y-135842754D01*
X182281841Y-135842753D01*
X182281840Y-135842753D01*
X182120557Y-135817208D01*
X182071887Y-135809500D01*
X181859313Y-135809500D01*
X181859308Y-135809500D01*
X181807725Y-135817670D01*
X181738432Y-135808716D01*
X181700646Y-135782878D01*
X179591019Y-133673251D01*
X179557534Y-133611928D01*
X179554700Y-133585570D01*
X179554700Y-124070135D01*
X181021500Y-124070135D01*
X181021500Y-125865870D01*
X181021501Y-125865876D01*
X181027908Y-125925483D01*
X181078202Y-126060328D01*
X181078206Y-126060335D01*
X181164452Y-126175544D01*
X181164455Y-126175547D01*
X181279664Y-126261793D01*
X181279671Y-126261797D01*
X181411082Y-126310810D01*
X181467016Y-126352681D01*
X181491433Y-126418145D01*
X181476582Y-126486418D01*
X181455431Y-126514673D01*
X181341889Y-126628215D01*
X181216951Y-126800179D01*
X181120444Y-126989585D01*
X181054753Y-127191760D01*
X181021500Y-127401713D01*
X181021500Y-127614286D01*
X181053770Y-127818034D01*
X181054754Y-127824243D01*
X181084216Y-127914918D01*
X181120444Y-128026414D01*
X181216951Y-128215820D01*
X181341890Y-128387786D01*
X181492213Y-128538109D01*
X181664179Y-128663048D01*
X181664181Y-128663049D01*
X181664184Y-128663051D01*
X181673493Y-128667794D01*
X181724290Y-128715766D01*
X181741087Y-128783587D01*
X181718552Y-128849722D01*
X181673505Y-128888760D01*
X181664446Y-128893376D01*
X181664440Y-128893380D01*
X181610282Y-128932727D01*
X181610282Y-128932728D01*
X182242591Y-129565037D01*
X182179007Y-129582075D01*
X182064993Y-129647901D01*
X181971901Y-129740993D01*
X181906075Y-129855007D01*
X181889037Y-129918591D01*
X181256728Y-129286282D01*
X181256727Y-129286282D01*
X181217380Y-129340439D01*
X181120904Y-129529782D01*
X181055242Y-129731869D01*
X181055242Y-129731872D01*
X181022000Y-129941753D01*
X181022000Y-130154246D01*
X181055242Y-130364127D01*
X181055242Y-130364130D01*
X181120904Y-130566217D01*
X181217375Y-130755550D01*
X181256728Y-130809716D01*
X181889037Y-130177408D01*
X181906075Y-130240993D01*
X181971901Y-130355007D01*
X182064993Y-130448099D01*
X182179007Y-130513925D01*
X182242590Y-130530962D01*
X181610282Y-131163269D01*
X181610282Y-131163270D01*
X181664449Y-131202624D01*
X181853782Y-131299095D01*
X182055870Y-131364757D01*
X182265754Y-131398000D01*
X182478246Y-131398000D01*
X182688127Y-131364757D01*
X182688130Y-131364757D01*
X182890217Y-131299095D01*
X183079554Y-131202622D01*
X183133716Y-131163270D01*
X183133717Y-131163270D01*
X182501408Y-130530962D01*
X182564993Y-130513925D01*
X182679007Y-130448099D01*
X182772099Y-130355007D01*
X182837925Y-130240993D01*
X182854962Y-130177408D01*
X183487270Y-130809717D01*
X183487270Y-130809716D01*
X183526622Y-130755554D01*
X183623095Y-130566217D01*
X183688757Y-130364130D01*
X183688757Y-130364127D01*
X183722000Y-130154246D01*
X183722000Y-129941753D01*
X183688757Y-129731872D01*
X183688757Y-129731869D01*
X183623095Y-129529782D01*
X183526624Y-129340449D01*
X183487270Y-129286282D01*
X183487269Y-129286282D01*
X182854962Y-129918590D01*
X182837925Y-129855007D01*
X182772099Y-129740993D01*
X182679007Y-129647901D01*
X182564993Y-129582075D01*
X182501409Y-129565037D01*
X183133716Y-128932728D01*
X183079547Y-128893373D01*
X183079547Y-128893372D01*
X183070500Y-128888763D01*
X183019706Y-128840788D01*
X183002912Y-128772966D01*
X183025451Y-128706832D01*
X183070508Y-128667793D01*
X183079816Y-128663051D01*
X183159007Y-128605515D01*
X183251786Y-128538109D01*
X183251788Y-128538106D01*
X183251792Y-128538104D01*
X183402104Y-128387792D01*
X183402106Y-128387788D01*
X183402109Y-128387786D01*
X183527048Y-128215820D01*
X183527047Y-128215820D01*
X183527051Y-128215816D01*
X183623557Y-128026412D01*
X183689246Y-127824243D01*
X183722500Y-127614287D01*
X183722500Y-127401713D01*
X183689246Y-127191757D01*
X183623557Y-126989588D01*
X183527051Y-126800184D01*
X183527049Y-126800181D01*
X183527048Y-126800179D01*
X183402109Y-126628213D01*
X183288569Y-126514673D01*
X183255084Y-126453350D01*
X183260068Y-126383658D01*
X183301940Y-126327725D01*
X183332915Y-126310810D01*
X183464331Y-126261796D01*
X183579546Y-126175546D01*
X183665796Y-126060331D01*
X183716091Y-125925483D01*
X183722500Y-125865873D01*
X183722499Y-124070128D01*
X183716091Y-124010517D01*
X183665796Y-123875669D01*
X183665795Y-123875668D01*
X183665793Y-123875664D01*
X183579547Y-123760455D01*
X183579544Y-123760452D01*
X183464335Y-123674206D01*
X183464328Y-123674202D01*
X183329482Y-123623908D01*
X183329483Y-123623908D01*
X183269883Y-123617501D01*
X183269881Y-123617500D01*
X183269873Y-123617500D01*
X183269864Y-123617500D01*
X181474129Y-123617500D01*
X181474123Y-123617501D01*
X181414516Y-123623908D01*
X181279671Y-123674202D01*
X181279664Y-123674206D01*
X181164455Y-123760452D01*
X181164452Y-123760455D01*
X181078206Y-123875664D01*
X181078202Y-123875671D01*
X181027908Y-124010517D01*
X181021501Y-124070116D01*
X181021501Y-124070123D01*
X181021500Y-124070135D01*
X179554700Y-124070135D01*
X179554700Y-121024028D01*
X179574385Y-120956989D01*
X179591014Y-120936352D01*
X181087095Y-119440270D01*
X181127319Y-119413393D01*
X181150979Y-119403594D01*
X181282089Y-119315989D01*
X181393589Y-119204489D01*
X181481194Y-119073379D01*
X181541537Y-118927697D01*
X181572300Y-118773042D01*
X181572300Y-118615358D01*
X181572300Y-118615355D01*
X181572299Y-118615353D01*
X181558832Y-118547649D01*
X181541537Y-118460703D01*
X181525787Y-118422679D01*
X181481197Y-118315027D01*
X181481190Y-118315014D01*
X181393589Y-118183911D01*
X181393586Y-118183907D01*
X181282092Y-118072413D01*
X181282088Y-118072410D01*
X181150985Y-117984809D01*
X181150972Y-117984802D01*
X181005301Y-117924464D01*
X181005289Y-117924461D01*
X180850645Y-117893700D01*
X180850642Y-117893700D01*
X180692958Y-117893700D01*
X180692955Y-117893700D01*
X180538310Y-117924461D01*
X180538298Y-117924464D01*
X180392627Y-117984802D01*
X180392614Y-117984809D01*
X180268191Y-118067947D01*
X180201513Y-118088825D01*
X180134133Y-118070340D01*
X180087443Y-118018362D01*
X180075300Y-117964845D01*
X180075300Y-117682902D01*
X180084739Y-117635450D01*
X180137824Y-117507289D01*
X180143537Y-117493497D01*
X180174300Y-117338842D01*
X180174300Y-117181158D01*
X180174300Y-117181155D01*
X180174299Y-117181153D01*
X180143537Y-117026503D01*
X180143535Y-117026498D01*
X180083197Y-116880827D01*
X180083190Y-116880814D01*
X179995589Y-116749711D01*
X179995586Y-116749707D01*
X179884092Y-116638213D01*
X179884088Y-116638210D01*
X179752985Y-116550609D01*
X179752972Y-116550602D01*
X179607301Y-116490264D01*
X179607289Y-116490261D01*
X179452645Y-116459500D01*
X179452642Y-116459500D01*
X179398300Y-116459500D01*
X179331261Y-116439815D01*
X179285506Y-116387011D01*
X179274300Y-116335500D01*
X179274300Y-69508429D01*
X179293985Y-69441390D01*
X179310619Y-69420748D01*
X180483984Y-68247382D01*
X180545305Y-68213899D01*
X180591056Y-68212592D01*
X180728113Y-68234300D01*
X180728115Y-68234300D01*
X180940686Y-68234300D01*
X180940687Y-68234300D01*
X181150643Y-68201046D01*
X181352812Y-68135357D01*
X181542216Y-68038851D01*
X181579300Y-68011908D01*
X181714186Y-67913909D01*
X181714188Y-67913906D01*
X181714192Y-67913904D01*
X181864504Y-67763592D01*
X181864506Y-67763588D01*
X181864509Y-67763586D01*
X181989448Y-67591620D01*
X181989447Y-67591620D01*
X181989451Y-67591616D01*
X181993914Y-67582854D01*
X182041888Y-67532059D01*
X182109708Y-67515263D01*
X182175844Y-67537799D01*
X182214886Y-67582856D01*
X182219351Y-67591620D01*
X182344290Y-67763586D01*
X182494613Y-67913909D01*
X182666579Y-68038848D01*
X182666581Y-68038849D01*
X182666584Y-68038851D01*
X182855988Y-68135357D01*
X183058157Y-68201046D01*
X183268113Y-68234300D01*
X183268114Y-68234300D01*
X183480686Y-68234300D01*
X183480687Y-68234300D01*
X183627407Y-68211061D01*
X183696700Y-68220015D01*
X183734486Y-68245853D01*
X188316181Y-72827548D01*
X188349666Y-72888871D01*
X188352500Y-72915229D01*
X188352500Y-138345754D01*
X188332815Y-138412793D01*
X188316181Y-138433435D01*
X179874435Y-146875181D01*
X179813112Y-146908666D01*
X179786754Y-146911500D01*
X154120230Y-146911500D01*
X154053191Y-146891815D01*
X154032549Y-146875181D01*
X152167930Y-145010562D01*
X143480421Y-136323052D01*
X143480414Y-136323046D01*
X143406063Y-136273367D01*
X143406063Y-136273368D01*
X143357491Y-136240913D01*
X143220917Y-136184343D01*
X143220907Y-136184340D01*
X143075920Y-136155500D01*
X143075918Y-136155500D01*
X118020082Y-136155500D01*
X118020080Y-136155500D01*
X117875092Y-136184340D01*
X117875082Y-136184343D01*
X117738508Y-136240913D01*
X117689937Y-136273368D01*
X117689936Y-136273367D01*
X117615585Y-136323046D01*
X117615578Y-136323052D01*
X115371449Y-138567181D01*
X115310126Y-138600666D01*
X115283768Y-138603500D01*
X114164129Y-138603500D01*
X114164123Y-138603501D01*
X114104516Y-138609908D01*
X113969671Y-138660202D01*
X113969664Y-138660206D01*
X113854455Y-138746452D01*
X113854452Y-138746455D01*
X113768206Y-138861664D01*
X113768202Y-138861671D01*
X113717908Y-138996517D01*
X113712998Y-139042190D01*
X113711501Y-139056123D01*
X113711500Y-139056135D01*
X113711500Y-140851870D01*
X113711501Y-140851876D01*
X113717908Y-140911483D01*
X113768202Y-141046328D01*
X113768206Y-141046335D01*
X113854452Y-141161544D01*
X113854455Y-141161547D01*
X113969664Y-141247793D01*
X113969671Y-141247797D01*
X114101082Y-141296810D01*
X114157016Y-141338681D01*
X114181433Y-141404145D01*
X114166582Y-141472418D01*
X114145431Y-141500673D01*
X114031889Y-141614215D01*
X113906951Y-141786179D01*
X113810444Y-141975585D01*
X113744753Y-142177760D01*
X113711500Y-142387713D01*
X113711500Y-142600286D01*
X113744753Y-142810239D01*
X113810444Y-143012414D01*
X113906951Y-143201820D01*
X114031890Y-143373786D01*
X114182213Y-143524109D01*
X114354179Y-143649048D01*
X114354181Y-143649049D01*
X114354184Y-143649051D01*
X114363493Y-143653794D01*
X114414290Y-143701766D01*
X114431087Y-143769587D01*
X114408552Y-143835722D01*
X114363505Y-143874760D01*
X114354446Y-143879376D01*
X114354440Y-143879380D01*
X114300282Y-143918727D01*
X114300282Y-143918728D01*
X114932591Y-144551037D01*
X114869007Y-144568075D01*
X114754993Y-144633901D01*
X114661901Y-144726993D01*
X114596075Y-144841007D01*
X114579037Y-144904591D01*
X113946728Y-144272282D01*
X113946727Y-144272282D01*
X113907380Y-144326439D01*
X113810904Y-144515782D01*
X113745242Y-144717869D01*
X113745242Y-144717872D01*
X113712000Y-144927753D01*
X113712000Y-145140246D01*
X113745242Y-145350127D01*
X113745242Y-145350130D01*
X113810904Y-145552217D01*
X113907375Y-145741550D01*
X113946728Y-145795716D01*
X114579037Y-145163408D01*
X114596075Y-145226993D01*
X114661901Y-145341007D01*
X114754993Y-145434099D01*
X114869007Y-145499925D01*
X114932590Y-145516962D01*
X114300282Y-146149269D01*
X114300282Y-146149270D01*
X114354449Y-146188624D01*
X114543782Y-146285095D01*
X114745870Y-146350757D01*
X114955754Y-146384000D01*
X115168246Y-146384000D01*
X115378127Y-146350757D01*
X115378130Y-146350757D01*
X115580217Y-146285095D01*
X115769554Y-146188622D01*
X115823716Y-146149270D01*
X115823717Y-146149270D01*
X115191408Y-145516962D01*
X115254993Y-145499925D01*
X115369007Y-145434099D01*
X115462099Y-145341007D01*
X115527925Y-145226993D01*
X115544962Y-145163408D01*
X116177270Y-145795717D01*
X116177270Y-145795716D01*
X116216622Y-145741554D01*
X116313095Y-145552217D01*
X116378757Y-145350130D01*
X116378757Y-145350127D01*
X116412000Y-145140246D01*
X116412000Y-144927753D01*
X116378757Y-144717872D01*
X116378757Y-144717869D01*
X116313095Y-144515782D01*
X116216624Y-144326449D01*
X116177270Y-144272282D01*
X116177269Y-144272282D01*
X115544962Y-144904590D01*
X115527925Y-144841007D01*
X115462099Y-144726993D01*
X115369007Y-144633901D01*
X115254993Y-144568075D01*
X115191409Y-144551037D01*
X115823716Y-143918728D01*
X115769547Y-143879373D01*
X115769547Y-143879372D01*
X115760500Y-143874763D01*
X115709706Y-143826788D01*
X115692912Y-143758966D01*
X115715451Y-143692832D01*
X115760508Y-143653793D01*
X115769816Y-143649051D01*
X115849007Y-143591515D01*
X115941786Y-143524109D01*
X115941788Y-143524106D01*
X115941792Y-143524104D01*
X116092104Y-143373792D01*
X116092106Y-143373788D01*
X116092109Y-143373786D01*
X116217048Y-143201820D01*
X116217047Y-143201820D01*
X116217051Y-143201816D01*
X116313557Y-143012412D01*
X116379246Y-142810243D01*
X116412500Y-142600287D01*
X116412500Y-142387713D01*
X116379246Y-142177757D01*
X116313557Y-141975588D01*
X116217051Y-141786184D01*
X116217049Y-141786181D01*
X116217048Y-141786179D01*
X116092109Y-141614213D01*
X115978569Y-141500673D01*
X115945084Y-141439350D01*
X115950068Y-141369658D01*
X115991940Y-141313725D01*
X116022915Y-141296810D01*
X116154331Y-141247796D01*
X116269546Y-141161546D01*
X116355796Y-141046331D01*
X116406091Y-140911483D01*
X116412500Y-140851873D01*
X116412499Y-139700228D01*
X116432184Y-139633190D01*
X116448813Y-139612553D01*
X117005232Y-139056135D01*
X121077500Y-139056135D01*
X121077500Y-140851870D01*
X121077501Y-140851876D01*
X121083908Y-140911483D01*
X121134202Y-141046328D01*
X121134206Y-141046335D01*
X121220452Y-141161544D01*
X121220455Y-141161547D01*
X121335664Y-141247793D01*
X121335671Y-141247797D01*
X121467082Y-141296810D01*
X121523016Y-141338681D01*
X121547433Y-141404145D01*
X121532582Y-141472418D01*
X121511431Y-141500673D01*
X121397889Y-141614215D01*
X121272951Y-141786179D01*
X121176444Y-141975585D01*
X121110753Y-142177760D01*
X121077500Y-142387713D01*
X121077500Y-142600286D01*
X121110753Y-142810239D01*
X121176444Y-143012414D01*
X121272951Y-143201820D01*
X121397890Y-143373786D01*
X121548213Y-143524109D01*
X121720179Y-143649048D01*
X121720181Y-143649049D01*
X121720184Y-143649051D01*
X121729493Y-143653794D01*
X121780290Y-143701766D01*
X121797087Y-143769587D01*
X121774552Y-143835722D01*
X121729505Y-143874760D01*
X121720446Y-143879376D01*
X121720440Y-143879380D01*
X121666282Y-143918727D01*
X121666282Y-143918728D01*
X122298591Y-144551037D01*
X122235007Y-144568075D01*
X122120993Y-144633901D01*
X122027901Y-144726993D01*
X121962075Y-144841007D01*
X121945037Y-144904591D01*
X121312728Y-144272282D01*
X121312727Y-144272282D01*
X121273380Y-144326439D01*
X121176904Y-144515782D01*
X121111242Y-144717869D01*
X121111242Y-144717872D01*
X121078000Y-144927753D01*
X121078000Y-145140246D01*
X121111242Y-145350127D01*
X121111242Y-145350130D01*
X121176904Y-145552217D01*
X121273375Y-145741550D01*
X121312728Y-145795716D01*
X121945037Y-145163408D01*
X121962075Y-145226993D01*
X122027901Y-145341007D01*
X122120993Y-145434099D01*
X122235007Y-145499925D01*
X122298590Y-145516962D01*
X121666282Y-146149269D01*
X121666282Y-146149270D01*
X121720449Y-146188624D01*
X121909782Y-146285095D01*
X122111870Y-146350757D01*
X122321754Y-146384000D01*
X122534246Y-146384000D01*
X122744127Y-146350757D01*
X122744130Y-146350757D01*
X122946217Y-146285095D01*
X123135554Y-146188622D01*
X123189716Y-146149270D01*
X123189717Y-146149270D01*
X122557408Y-145516962D01*
X122620993Y-145499925D01*
X122735007Y-145434099D01*
X122828099Y-145341007D01*
X122893925Y-145226993D01*
X122910962Y-145163409D01*
X123543270Y-145795717D01*
X123543270Y-145795716D01*
X123582622Y-145741554D01*
X123679095Y-145552217D01*
X123744757Y-145350130D01*
X123744757Y-145350127D01*
X123778000Y-145140246D01*
X123778000Y-144927753D01*
X123744757Y-144717872D01*
X123744757Y-144717869D01*
X123679095Y-144515782D01*
X123582624Y-144326449D01*
X123543270Y-144272282D01*
X123543269Y-144272282D01*
X122910962Y-144904590D01*
X122893925Y-144841007D01*
X122828099Y-144726993D01*
X122735007Y-144633901D01*
X122620993Y-144568075D01*
X122557409Y-144551037D01*
X123189716Y-143918728D01*
X123135547Y-143879373D01*
X123135547Y-143879372D01*
X123126500Y-143874763D01*
X123075706Y-143826788D01*
X123058912Y-143758966D01*
X123081451Y-143692832D01*
X123126508Y-143653793D01*
X123135816Y-143649051D01*
X123215007Y-143591515D01*
X123307786Y-143524109D01*
X123307788Y-143524106D01*
X123307792Y-143524104D01*
X123458104Y-143373792D01*
X123458106Y-143373788D01*
X123458109Y-143373786D01*
X123583048Y-143201820D01*
X123583047Y-143201820D01*
X123583051Y-143201816D01*
X123679557Y-143012412D01*
X123745246Y-142810243D01*
X123778500Y-142600287D01*
X123778500Y-142387713D01*
X123745246Y-142177757D01*
X123679557Y-141975588D01*
X123583051Y-141786184D01*
X123583049Y-141786181D01*
X123583048Y-141786179D01*
X123458109Y-141614213D01*
X123344569Y-141500673D01*
X123311084Y-141439350D01*
X123316068Y-141369658D01*
X123357940Y-141313725D01*
X123388915Y-141296810D01*
X123520331Y-141247796D01*
X123635546Y-141161546D01*
X123721796Y-141046331D01*
X123772091Y-140911483D01*
X123778500Y-140851873D01*
X123778499Y-139056128D01*
X123772091Y-138996517D01*
X123772060Y-138996435D01*
X123721797Y-138861671D01*
X123721793Y-138861664D01*
X123635547Y-138746455D01*
X123635544Y-138746452D01*
X123520335Y-138660206D01*
X123520328Y-138660202D01*
X123385482Y-138609908D01*
X123385483Y-138609908D01*
X123325883Y-138603501D01*
X123325881Y-138603500D01*
X123325873Y-138603500D01*
X123325864Y-138603500D01*
X121530129Y-138603500D01*
X121530123Y-138603501D01*
X121470516Y-138609908D01*
X121335671Y-138660202D01*
X121335664Y-138660206D01*
X121220455Y-138746452D01*
X121220452Y-138746455D01*
X121134206Y-138861664D01*
X121134202Y-138861671D01*
X121083908Y-138996517D01*
X121078998Y-139042190D01*
X121077501Y-139056123D01*
X121077500Y-139056135D01*
X117005232Y-139056135D01*
X118368549Y-137692819D01*
X118429872Y-137659334D01*
X118456230Y-137656500D01*
X142639770Y-137656500D01*
X142706809Y-137676185D01*
X142727451Y-137692819D01*
X143426451Y-138391819D01*
X143459936Y-138453142D01*
X143454952Y-138522834D01*
X143413080Y-138578767D01*
X143347616Y-138603184D01*
X143338770Y-138603500D01*
X141596129Y-138603500D01*
X141596123Y-138603501D01*
X141536516Y-138609908D01*
X141401671Y-138660202D01*
X141401664Y-138660206D01*
X141286455Y-138746452D01*
X141286452Y-138746455D01*
X141200206Y-138861664D01*
X141200202Y-138861671D01*
X141149908Y-138996517D01*
X141144998Y-139042190D01*
X141143501Y-139056123D01*
X141143500Y-139056135D01*
X141143500Y-140851870D01*
X141143501Y-140851876D01*
X141149908Y-140911483D01*
X141200202Y-141046328D01*
X141200206Y-141046335D01*
X141286452Y-141161544D01*
X141286455Y-141161547D01*
X141401664Y-141247793D01*
X141401671Y-141247797D01*
X141533082Y-141296810D01*
X141589016Y-141338681D01*
X141613433Y-141404145D01*
X141598582Y-141472418D01*
X141577431Y-141500673D01*
X141463889Y-141614215D01*
X141338951Y-141786179D01*
X141242444Y-141975585D01*
X141176753Y-142177760D01*
X141143500Y-142387713D01*
X141143500Y-142600286D01*
X141176753Y-142810239D01*
X141242444Y-143012414D01*
X141338951Y-143201820D01*
X141463890Y-143373786D01*
X141614213Y-143524109D01*
X141786179Y-143649048D01*
X141786181Y-143649049D01*
X141786184Y-143649051D01*
X141795493Y-143653794D01*
X141846290Y-143701766D01*
X141863087Y-143769587D01*
X141840552Y-143835722D01*
X141795505Y-143874760D01*
X141786446Y-143879376D01*
X141786440Y-143879380D01*
X141732282Y-143918727D01*
X141732282Y-143918728D01*
X142364591Y-144551037D01*
X142301007Y-144568075D01*
X142186993Y-144633901D01*
X142093901Y-144726993D01*
X142028075Y-144841007D01*
X142011037Y-144904591D01*
X141378728Y-144272282D01*
X141378727Y-144272282D01*
X141339380Y-144326439D01*
X141242905Y-144515781D01*
X141215982Y-144598640D01*
X141176544Y-144656315D01*
X141112185Y-144683513D01*
X141043339Y-144671598D01*
X141010370Y-144648002D01*
X136514818Y-140152450D01*
X136481333Y-140091127D01*
X136478499Y-140064769D01*
X136478499Y-139056129D01*
X136478498Y-139056123D01*
X136478497Y-139056116D01*
X136472091Y-138996517D01*
X136472060Y-138996435D01*
X136421797Y-138861671D01*
X136421793Y-138861664D01*
X136335547Y-138746455D01*
X136335544Y-138746452D01*
X136220335Y-138660206D01*
X136220328Y-138660202D01*
X136085482Y-138609908D01*
X136085483Y-138609908D01*
X136025883Y-138603501D01*
X136025881Y-138603500D01*
X136025873Y-138603500D01*
X136025864Y-138603500D01*
X134230129Y-138603500D01*
X134230123Y-138603501D01*
X134170516Y-138609908D01*
X134035671Y-138660202D01*
X134035664Y-138660206D01*
X133920455Y-138746452D01*
X133920452Y-138746455D01*
X133834206Y-138861664D01*
X133834202Y-138861671D01*
X133783908Y-138996517D01*
X133778998Y-139042190D01*
X133777501Y-139056123D01*
X133777500Y-139056135D01*
X133777500Y-140851870D01*
X133777501Y-140851876D01*
X133783908Y-140911483D01*
X133834202Y-141046328D01*
X133834206Y-141046335D01*
X133920452Y-141161544D01*
X133920455Y-141161547D01*
X134035664Y-141247793D01*
X134035671Y-141247797D01*
X134167082Y-141296810D01*
X134223016Y-141338681D01*
X134247433Y-141404145D01*
X134232582Y-141472418D01*
X134211431Y-141500673D01*
X134097889Y-141614215D01*
X133972951Y-141786179D01*
X133876444Y-141975585D01*
X133810753Y-142177760D01*
X133777500Y-142387713D01*
X133777500Y-142600286D01*
X133810753Y-142810239D01*
X133876444Y-143012414D01*
X133972951Y-143201820D01*
X134097890Y-143373786D01*
X134248213Y-143524109D01*
X134420179Y-143649048D01*
X134420181Y-143649049D01*
X134420184Y-143649051D01*
X134429493Y-143653794D01*
X134480290Y-143701766D01*
X134497087Y-143769587D01*
X134474552Y-143835722D01*
X134429505Y-143874760D01*
X134420446Y-143879376D01*
X134420440Y-143879380D01*
X134366282Y-143918727D01*
X134366282Y-143918728D01*
X134998591Y-144551037D01*
X134935007Y-144568075D01*
X134820993Y-144633901D01*
X134727901Y-144726993D01*
X134662075Y-144841007D01*
X134645037Y-144904591D01*
X134012728Y-144272282D01*
X134012727Y-144272282D01*
X133973380Y-144326439D01*
X133876904Y-144515782D01*
X133811242Y-144717869D01*
X133811242Y-144717872D01*
X133778000Y-144927753D01*
X133778000Y-145140246D01*
X133811242Y-145350127D01*
X133811242Y-145350130D01*
X133876904Y-145552217D01*
X133973375Y-145741550D01*
X134012728Y-145795716D01*
X134645037Y-145163408D01*
X134662075Y-145226993D01*
X134727901Y-145341007D01*
X134820993Y-145434099D01*
X134935007Y-145499925D01*
X134998590Y-145516962D01*
X134366282Y-146149269D01*
X134366282Y-146149270D01*
X134420449Y-146188624D01*
X134609782Y-146285095D01*
X134811870Y-146350757D01*
X135021754Y-146384000D01*
X135234246Y-146384000D01*
X135444127Y-146350757D01*
X135444130Y-146350757D01*
X135646217Y-146285095D01*
X135835554Y-146188622D01*
X135889716Y-146149270D01*
X135889717Y-146149270D01*
X135257408Y-145516962D01*
X135320993Y-145499925D01*
X135435007Y-145434099D01*
X135528099Y-145341007D01*
X135593925Y-145226993D01*
X135610962Y-145163408D01*
X136243270Y-145795717D01*
X136243270Y-145795716D01*
X136282622Y-145741554D01*
X136379095Y-145552217D01*
X136444757Y-145350130D01*
X136444757Y-145350127D01*
X136478000Y-145140246D01*
X136478000Y-144927753D01*
X136444757Y-144717872D01*
X136444757Y-144717869D01*
X136379095Y-144515782D01*
X136282624Y-144326449D01*
X136243270Y-144272282D01*
X136243269Y-144272282D01*
X135610962Y-144904590D01*
X135593925Y-144841007D01*
X135528099Y-144726993D01*
X135435007Y-144633901D01*
X135320993Y-144568075D01*
X135257409Y-144551037D01*
X135889716Y-143918728D01*
X135835547Y-143879373D01*
X135835547Y-143879372D01*
X135826500Y-143874763D01*
X135775706Y-143826788D01*
X135758912Y-143758966D01*
X135781451Y-143692832D01*
X135826508Y-143653793D01*
X135835816Y-143649051D01*
X135915007Y-143591515D01*
X136007786Y-143524109D01*
X136007788Y-143524106D01*
X136007792Y-143524104D01*
X136158104Y-143373792D01*
X136158106Y-143373788D01*
X136158109Y-143373786D01*
X136283048Y-143201820D01*
X136283047Y-143201820D01*
X136283051Y-143201816D01*
X136379557Y-143012412D01*
X136445246Y-142810243D01*
X136478500Y-142600287D01*
X136478500Y-142538230D01*
X136498185Y-142471191D01*
X136550989Y-142425436D01*
X136620147Y-142415492D01*
X136683703Y-142444517D01*
X136690181Y-142450549D01*
X143285580Y-149045948D01*
X143285584Y-149045951D01*
X143408498Y-149128080D01*
X143408511Y-149128087D01*
X143545082Y-149184656D01*
X143545087Y-149184658D01*
X143545091Y-149184658D01*
X143545092Y-149184659D01*
X143690079Y-149213500D01*
X143690082Y-149213500D01*
X180554690Y-149213500D01*
X180652232Y-149194096D01*
X180699683Y-149184658D01*
X180836265Y-149128084D01*
X180885499Y-149095186D01*
X180959186Y-149045952D01*
X190490752Y-139514385D01*
X190523159Y-139465883D01*
X190555789Y-139417050D01*
X190562635Y-139406801D01*
X190572884Y-139391465D01*
X190619741Y-139278342D01*
X190629459Y-139254882D01*
X190658300Y-139109887D01*
X190658300Y-138962052D01*
X190658300Y-124070135D01*
X193721500Y-124070135D01*
X193721500Y-125865870D01*
X193721501Y-125865876D01*
X193727908Y-125925483D01*
X193778202Y-126060328D01*
X193778206Y-126060335D01*
X193864452Y-126175544D01*
X193864455Y-126175547D01*
X193979664Y-126261793D01*
X193979671Y-126261797D01*
X194111082Y-126310810D01*
X194167016Y-126352681D01*
X194191433Y-126418145D01*
X194176582Y-126486418D01*
X194155431Y-126514673D01*
X194041889Y-126628215D01*
X193916951Y-126800179D01*
X193820444Y-126989585D01*
X193754753Y-127191760D01*
X193721500Y-127401713D01*
X193721500Y-127614286D01*
X193753770Y-127818034D01*
X193754754Y-127824243D01*
X193784216Y-127914918D01*
X193820444Y-128026414D01*
X193916951Y-128215820D01*
X194041890Y-128387786D01*
X194192213Y-128538109D01*
X194364179Y-128663048D01*
X194364181Y-128663049D01*
X194364184Y-128663051D01*
X194373493Y-128667794D01*
X194424290Y-128715766D01*
X194441087Y-128783587D01*
X194418552Y-128849722D01*
X194373505Y-128888760D01*
X194364446Y-128893376D01*
X194364440Y-128893380D01*
X194310282Y-128932727D01*
X194310282Y-128932728D01*
X194942591Y-129565037D01*
X194879007Y-129582075D01*
X194764993Y-129647901D01*
X194671901Y-129740993D01*
X194606075Y-129855007D01*
X194589037Y-129918590D01*
X193956728Y-129286282D01*
X193956727Y-129286282D01*
X193917380Y-129340439D01*
X193820904Y-129529782D01*
X193755242Y-129731869D01*
X193755242Y-129731872D01*
X193722000Y-129941753D01*
X193722000Y-130154246D01*
X193755242Y-130364127D01*
X193755242Y-130364130D01*
X193820904Y-130566217D01*
X193917375Y-130755550D01*
X193956728Y-130809716D01*
X194589037Y-130177408D01*
X194606075Y-130240993D01*
X194671901Y-130355007D01*
X194764993Y-130448099D01*
X194879007Y-130513925D01*
X194942590Y-130530962D01*
X194310282Y-131163269D01*
X194310282Y-131163270D01*
X194364449Y-131202624D01*
X194553782Y-131299095D01*
X194755870Y-131364757D01*
X194965754Y-131398000D01*
X195178246Y-131398000D01*
X195388127Y-131364757D01*
X195388130Y-131364757D01*
X195590217Y-131299095D01*
X195779554Y-131202622D01*
X195833716Y-131163270D01*
X195833717Y-131163270D01*
X195201408Y-130530962D01*
X195264993Y-130513925D01*
X195379007Y-130448099D01*
X195472099Y-130355007D01*
X195537925Y-130240993D01*
X195554962Y-130177408D01*
X196187270Y-130809717D01*
X196187270Y-130809716D01*
X196226622Y-130755554D01*
X196323095Y-130566217D01*
X196388757Y-130364130D01*
X196388757Y-130364127D01*
X196422000Y-130154246D01*
X196422000Y-129941753D01*
X196388757Y-129731872D01*
X196388757Y-129731869D01*
X196323095Y-129529782D01*
X196226624Y-129340449D01*
X196187270Y-129286282D01*
X196187269Y-129286282D01*
X195554962Y-129918590D01*
X195537925Y-129855007D01*
X195472099Y-129740993D01*
X195379007Y-129647901D01*
X195264993Y-129582075D01*
X195201409Y-129565037D01*
X195833716Y-128932728D01*
X195779547Y-128893373D01*
X195779547Y-128893372D01*
X195770500Y-128888763D01*
X195719706Y-128840788D01*
X195702912Y-128772966D01*
X195725451Y-128706832D01*
X195770508Y-128667793D01*
X195779816Y-128663051D01*
X195859007Y-128605515D01*
X195951786Y-128538109D01*
X195951788Y-128538106D01*
X195951792Y-128538104D01*
X196102104Y-128387792D01*
X196102106Y-128387788D01*
X196102109Y-128387786D01*
X196227048Y-128215820D01*
X196227047Y-128215820D01*
X196227051Y-128215816D01*
X196323557Y-128026412D01*
X196389246Y-127824243D01*
X196422500Y-127614287D01*
X196422500Y-127401713D01*
X196389246Y-127191757D01*
X196323557Y-126989588D01*
X196227051Y-126800184D01*
X196227049Y-126800181D01*
X196227048Y-126800179D01*
X196102109Y-126628213D01*
X195988569Y-126514673D01*
X195955084Y-126453350D01*
X195960068Y-126383658D01*
X196001940Y-126327725D01*
X196032915Y-126310810D01*
X196164331Y-126261796D01*
X196279546Y-126175546D01*
X196365796Y-126060331D01*
X196416091Y-125925483D01*
X196422500Y-125865873D01*
X196422499Y-124070128D01*
X196416091Y-124010517D01*
X196365796Y-123875669D01*
X196365795Y-123875668D01*
X196365793Y-123875664D01*
X196279547Y-123760455D01*
X196279544Y-123760452D01*
X196164335Y-123674206D01*
X196164328Y-123674202D01*
X196029482Y-123623908D01*
X196029483Y-123623908D01*
X195969883Y-123617501D01*
X195969881Y-123617500D01*
X195969873Y-123617500D01*
X195969864Y-123617500D01*
X194174129Y-123617500D01*
X194174123Y-123617501D01*
X194114516Y-123623908D01*
X193979671Y-123674202D01*
X193979664Y-123674206D01*
X193864455Y-123760452D01*
X193864452Y-123760455D01*
X193778206Y-123875664D01*
X193778202Y-123875671D01*
X193727908Y-124010517D01*
X193721501Y-124070116D01*
X193721501Y-124070123D01*
X193721500Y-124070135D01*
X190658300Y-124070135D01*
X190658300Y-70743882D01*
X190658300Y-70743879D01*
X190629459Y-70598892D01*
X190629458Y-70598891D01*
X190629458Y-70598887D01*
X190589602Y-70502665D01*
X190572886Y-70462309D01*
X190572885Y-70462307D01*
X190539986Y-70413070D01*
X190539985Y-70413068D01*
X190490756Y-70339389D01*
X190490752Y-70339384D01*
X188581681Y-68430313D01*
X188548196Y-68368990D01*
X188553180Y-68299298D01*
X188595052Y-68243365D01*
X188649962Y-68220160D01*
X188770643Y-68201046D01*
X188972812Y-68135357D01*
X189162216Y-68038851D01*
X189199300Y-68011908D01*
X189334186Y-67913909D01*
X189334188Y-67913906D01*
X189334192Y-67913904D01*
X189484504Y-67763592D01*
X189484506Y-67763588D01*
X189484509Y-67763586D01*
X189570290Y-67645517D01*
X189609451Y-67591616D01*
X189614193Y-67582308D01*
X189662163Y-67531511D01*
X189729983Y-67514711D01*
X189796119Y-67537245D01*
X189835163Y-67582300D01*
X189839773Y-67591347D01*
X189879128Y-67645516D01*
X190511437Y-67013208D01*
X190528475Y-67076793D01*
X190594301Y-67190807D01*
X190687393Y-67283899D01*
X190801407Y-67349725D01*
X190864990Y-67366762D01*
X190232682Y-67999069D01*
X190232682Y-67999070D01*
X190286849Y-68038424D01*
X190476182Y-68134895D01*
X190678270Y-68200557D01*
X190888154Y-68233800D01*
X191100646Y-68233800D01*
X191310527Y-68200557D01*
X191310530Y-68200557D01*
X191512617Y-68134895D01*
X191701954Y-68038422D01*
X191756116Y-67999070D01*
X191756117Y-67999070D01*
X191123808Y-67366762D01*
X191187393Y-67349725D01*
X191301407Y-67283899D01*
X191394499Y-67190807D01*
X191460325Y-67076793D01*
X191477362Y-67013208D01*
X192109670Y-67645517D01*
X192109670Y-67645516D01*
X192149022Y-67591354D01*
X192245495Y-67402017D01*
X192311157Y-67199930D01*
X192311157Y-67199927D01*
X192344400Y-66990046D01*
X192344400Y-66777553D01*
X192311157Y-66567672D01*
X192311157Y-66567669D01*
X192245495Y-66365582D01*
X192149024Y-66176249D01*
X192109670Y-66122082D01*
X192109669Y-66122082D01*
X191477362Y-66754390D01*
X191460325Y-66690807D01*
X191394499Y-66576793D01*
X191301407Y-66483701D01*
X191187393Y-66417875D01*
X191123809Y-66400837D01*
X191756116Y-65768528D01*
X191701947Y-65729173D01*
X191701947Y-65729172D01*
X191692900Y-65724563D01*
X191642106Y-65676588D01*
X191625312Y-65608766D01*
X191647851Y-65542632D01*
X191692908Y-65503593D01*
X191702216Y-65498851D01*
X191819501Y-65413639D01*
X191874186Y-65373909D01*
X191874188Y-65373906D01*
X191874192Y-65373904D01*
X192024504Y-65223592D01*
X192024506Y-65223588D01*
X192024509Y-65223586D01*
X192149448Y-65051620D01*
X192149447Y-65051620D01*
X192149451Y-65051616D01*
X192245957Y-64862212D01*
X192311646Y-64660043D01*
X192344900Y-64450087D01*
X192344900Y-64237513D01*
X192311646Y-64027557D01*
X192245957Y-63825388D01*
X192149451Y-63635984D01*
X192149449Y-63635981D01*
X192149448Y-63635979D01*
X192024509Y-63464013D01*
X191874186Y-63313690D01*
X191702220Y-63188751D01*
X191512814Y-63092244D01*
X191512813Y-63092243D01*
X191512812Y-63092243D01*
X191310643Y-63026554D01*
X191310641Y-63026553D01*
X191310640Y-63026553D01*
X191144845Y-63000294D01*
X191100687Y-62993300D01*
X190888113Y-62993300D01*
X190843955Y-63000294D01*
X190678160Y-63026553D01*
X190475985Y-63092244D01*
X190286579Y-63188751D01*
X190114613Y-63313690D01*
X189964290Y-63464013D01*
X189839349Y-63635982D01*
X189834884Y-63644746D01*
X189786909Y-63695542D01*
X189719088Y-63712336D01*
X189652953Y-63689798D01*
X189613916Y-63644746D01*
X189609450Y-63635982D01*
X189484509Y-63464013D01*
X189334186Y-63313690D01*
X189162220Y-63188751D01*
X188972814Y-63092244D01*
X188972813Y-63092243D01*
X188972812Y-63092243D01*
X188770643Y-63026554D01*
X188770641Y-63026553D01*
X188770640Y-63026553D01*
X188604845Y-63000294D01*
X188560687Y-62993300D01*
X188348113Y-62993300D01*
X188303955Y-63000294D01*
X188138160Y-63026553D01*
X187935985Y-63092244D01*
X187746579Y-63188751D01*
X187574613Y-63313690D01*
X187424290Y-63464013D01*
X187299349Y-63635982D01*
X187294884Y-63644746D01*
X187246909Y-63695542D01*
X187179088Y-63712336D01*
X187112953Y-63689798D01*
X187073916Y-63644746D01*
X187069450Y-63635982D01*
X186944509Y-63464013D01*
X186794186Y-63313690D01*
X186622220Y-63188751D01*
X186432814Y-63092244D01*
X186432813Y-63092243D01*
X186432812Y-63092243D01*
X186230643Y-63026554D01*
X186230641Y-63026553D01*
X186230640Y-63026553D01*
X186064845Y-63000294D01*
X186020687Y-62993300D01*
X185808113Y-62993300D01*
X185763955Y-63000294D01*
X185598160Y-63026553D01*
X185395985Y-63092244D01*
X185206579Y-63188751D01*
X185034613Y-63313690D01*
X184884290Y-63464013D01*
X184759349Y-63635982D01*
X184754602Y-63645299D01*
X184706627Y-63696093D01*
X184638805Y-63712887D01*
X184572671Y-63690348D01*
X184533634Y-63645295D01*
X184529026Y-63636252D01*
X184489670Y-63582082D01*
X184489669Y-63582082D01*
X183857362Y-64214390D01*
X183840325Y-64150807D01*
X183774499Y-64036793D01*
X183681407Y-63943701D01*
X183567393Y-63877875D01*
X183503809Y-63860837D01*
X184136116Y-63228528D01*
X184081950Y-63189175D01*
X183892617Y-63092704D01*
X183690529Y-63027042D01*
X183480646Y-62993800D01*
X183268154Y-62993800D01*
X183058272Y-63027042D01*
X183058269Y-63027042D01*
X182856182Y-63092704D01*
X182666839Y-63189180D01*
X182612682Y-63228527D01*
X182612682Y-63228528D01*
X183244991Y-63860837D01*
X183181407Y-63877875D01*
X183067393Y-63943701D01*
X182974301Y-64036793D01*
X182908475Y-64150807D01*
X182891437Y-64214391D01*
X182259128Y-63582082D01*
X182259127Y-63582082D01*
X182219780Y-63636240D01*
X182219776Y-63636246D01*
X182215160Y-63645305D01*
X182167181Y-63696097D01*
X182099359Y-63712887D01*
X182033226Y-63690343D01*
X181994194Y-63645293D01*
X181989451Y-63635984D01*
X181989449Y-63635981D01*
X181989448Y-63635979D01*
X181864509Y-63464013D01*
X181714186Y-63313690D01*
X181542220Y-63188751D01*
X181352814Y-63092244D01*
X181352813Y-63092243D01*
X181352812Y-63092243D01*
X181150643Y-63026554D01*
X181150641Y-63026553D01*
X181150640Y-63026553D01*
X180984845Y-63000294D01*
X180940687Y-62993300D01*
X180728113Y-62993300D01*
X180683955Y-63000294D01*
X180518160Y-63026553D01*
X180315985Y-63092244D01*
X180126579Y-63188751D01*
X179954613Y-63313690D01*
X179804290Y-63464013D01*
X179679349Y-63635982D01*
X179674602Y-63645299D01*
X179626627Y-63696093D01*
X179558805Y-63712887D01*
X179492671Y-63690348D01*
X179453634Y-63645295D01*
X179449026Y-63636252D01*
X179409670Y-63582082D01*
X179409669Y-63582082D01*
X178777362Y-64214390D01*
X178760325Y-64150807D01*
X178694499Y-64036793D01*
X178601407Y-63943701D01*
X178487393Y-63877875D01*
X178423809Y-63860837D01*
X179056116Y-63228528D01*
X179001950Y-63189175D01*
X178812617Y-63092704D01*
X178610529Y-63027042D01*
X178400646Y-62993800D01*
X178188154Y-62993800D01*
X177978272Y-63027042D01*
X177978269Y-63027042D01*
X177776182Y-63092704D01*
X177586839Y-63189180D01*
X177532682Y-63228527D01*
X177532682Y-63228528D01*
X178164991Y-63860837D01*
X178101407Y-63877875D01*
X177987393Y-63943701D01*
X177894301Y-64036793D01*
X177828475Y-64150807D01*
X177811437Y-64214391D01*
X177179128Y-63582082D01*
X177179127Y-63582082D01*
X177139780Y-63636240D01*
X177139776Y-63636246D01*
X177135160Y-63645305D01*
X177087181Y-63696097D01*
X177019359Y-63712887D01*
X176953226Y-63690343D01*
X176914194Y-63645293D01*
X176909451Y-63635984D01*
X176909449Y-63635981D01*
X176909448Y-63635979D01*
X176784509Y-63464013D01*
X176634186Y-63313690D01*
X176462220Y-63188751D01*
X176272814Y-63092244D01*
X176272813Y-63092243D01*
X176272812Y-63092243D01*
X176070643Y-63026554D01*
X176070641Y-63026553D01*
X176070640Y-63026553D01*
X175904845Y-63000294D01*
X175860687Y-62993300D01*
X175648113Y-62993300D01*
X175603955Y-63000294D01*
X175438160Y-63026553D01*
X175235985Y-63092244D01*
X175046579Y-63188751D01*
X174874613Y-63313690D01*
X174724290Y-63464013D01*
X174599349Y-63635982D01*
X174594884Y-63644746D01*
X174546909Y-63695542D01*
X174479088Y-63712336D01*
X174412953Y-63689798D01*
X174373916Y-63644746D01*
X174369450Y-63635982D01*
X174244509Y-63464013D01*
X174094186Y-63313690D01*
X173922220Y-63188751D01*
X173732814Y-63092244D01*
X173732813Y-63092243D01*
X173732812Y-63092243D01*
X173530643Y-63026554D01*
X173530641Y-63026553D01*
X173530640Y-63026553D01*
X173364845Y-63000294D01*
X173320687Y-62993300D01*
X173108113Y-62993300D01*
X173108107Y-62993300D01*
X173063948Y-63000294D01*
X172994655Y-62991339D01*
X172956870Y-62965502D01*
X164408413Y-54417045D01*
X164336635Y-54369087D01*
X164326355Y-54362218D01*
X164285495Y-54334916D01*
X164285494Y-54334915D01*
X164285492Y-54334914D01*
X164285490Y-54334913D01*
X164148917Y-54278343D01*
X164148907Y-54278340D01*
X164003920Y-54249500D01*
X164003918Y-54249500D01*
X147897221Y-54249500D01*
X147830182Y-54229815D01*
X147796903Y-54198385D01*
X147740107Y-54120211D01*
X147589786Y-53969890D01*
X147417820Y-53844951D01*
X147228414Y-53748444D01*
X147228413Y-53748443D01*
X147228412Y-53748443D01*
X147026243Y-53682754D01*
X147026241Y-53682753D01*
X147026240Y-53682753D01*
X146864957Y-53657208D01*
X146816287Y-53649500D01*
X146603713Y-53649500D01*
X146555042Y-53657208D01*
X146393760Y-53682753D01*
X146191585Y-53748444D01*
X146002179Y-53844951D01*
X145830213Y-53969890D01*
X145679890Y-54120213D01*
X145554949Y-54292182D01*
X145550484Y-54300946D01*
X145502509Y-54351742D01*
X145434688Y-54368536D01*
X145368553Y-54345998D01*
X145329516Y-54300946D01*
X145325050Y-54292182D01*
X145200109Y-54120213D01*
X145049786Y-53969890D01*
X144877820Y-53844951D01*
X144688414Y-53748444D01*
X144688413Y-53748443D01*
X144688412Y-53748443D01*
X144486243Y-53682754D01*
X144486241Y-53682753D01*
X144486240Y-53682753D01*
X144324957Y-53657208D01*
X144276287Y-53649500D01*
X144063713Y-53649500D01*
X144015042Y-53657208D01*
X143853760Y-53682753D01*
X143651585Y-53748444D01*
X143462179Y-53844951D01*
X143290213Y-53969890D01*
X143139890Y-54120213D01*
X143014949Y-54292182D01*
X143010484Y-54300946D01*
X142962509Y-54351742D01*
X142894688Y-54368536D01*
X142828553Y-54345998D01*
X142789516Y-54300946D01*
X142785050Y-54292182D01*
X142660109Y-54120213D01*
X142509786Y-53969890D01*
X142337820Y-53844951D01*
X142148414Y-53748444D01*
X142148413Y-53748443D01*
X142148412Y-53748443D01*
X141946243Y-53682754D01*
X141946241Y-53682753D01*
X141946240Y-53682753D01*
X141784957Y-53657208D01*
X141736287Y-53649500D01*
X141523713Y-53649500D01*
X141475042Y-53657208D01*
X141313760Y-53682753D01*
X141111585Y-53748444D01*
X140922179Y-53844951D01*
X140750213Y-53969890D01*
X140599890Y-54120213D01*
X140474949Y-54292182D01*
X140470202Y-54301499D01*
X140422227Y-54352293D01*
X140354405Y-54369087D01*
X140288271Y-54346548D01*
X140249234Y-54301495D01*
X140244626Y-54292452D01*
X140205270Y-54238282D01*
X140205269Y-54238282D01*
X139572962Y-54870590D01*
X139555925Y-54807007D01*
X139490099Y-54692993D01*
X139397007Y-54599901D01*
X139282993Y-54534075D01*
X139219409Y-54517037D01*
X139851716Y-53884728D01*
X139797550Y-53845375D01*
X139608217Y-53748904D01*
X139406129Y-53683242D01*
X139196246Y-53650000D01*
X138983754Y-53650000D01*
X138773872Y-53683242D01*
X138773869Y-53683242D01*
X138571782Y-53748904D01*
X138382439Y-53845380D01*
X138328282Y-53884727D01*
X138328282Y-53884728D01*
X138960591Y-54517037D01*
X138897007Y-54534075D01*
X138782993Y-54599901D01*
X138689901Y-54692993D01*
X138624075Y-54807007D01*
X138607037Y-54870591D01*
X137974728Y-54238282D01*
X137974727Y-54238282D01*
X137935380Y-54292440D01*
X137935376Y-54292446D01*
X137930760Y-54301505D01*
X137882781Y-54352297D01*
X137814959Y-54369087D01*
X137748826Y-54346543D01*
X137709794Y-54301493D01*
X137705051Y-54292184D01*
X137705049Y-54292181D01*
X137705048Y-54292179D01*
X137580109Y-54120213D01*
X137429786Y-53969890D01*
X137257820Y-53844951D01*
X137068414Y-53748444D01*
X137068413Y-53748443D01*
X137068412Y-53748443D01*
X136866243Y-53682754D01*
X136866241Y-53682753D01*
X136866240Y-53682753D01*
X136704957Y-53657208D01*
X136656287Y-53649500D01*
X136443713Y-53649500D01*
X136395042Y-53657208D01*
X136233760Y-53682753D01*
X136031585Y-53748444D01*
X135842179Y-53844951D01*
X135670213Y-53969890D01*
X135519890Y-54120213D01*
X135394949Y-54292182D01*
X135390484Y-54300946D01*
X135342509Y-54351742D01*
X135274688Y-54368536D01*
X135208553Y-54345998D01*
X135169516Y-54300946D01*
X135165050Y-54292182D01*
X135040109Y-54120213D01*
X134889786Y-53969890D01*
X134717820Y-53844951D01*
X134528414Y-53748444D01*
X134528413Y-53748443D01*
X134528412Y-53748443D01*
X134326243Y-53682754D01*
X134326241Y-53682753D01*
X134326240Y-53682753D01*
X134164957Y-53657208D01*
X134116287Y-53649500D01*
X133903713Y-53649500D01*
X133855042Y-53657208D01*
X133693760Y-53682753D01*
X133491585Y-53748444D01*
X133302179Y-53844951D01*
X133130213Y-53969890D01*
X132979890Y-54120213D01*
X132854949Y-54292182D01*
X132850202Y-54301499D01*
X132802227Y-54352293D01*
X132734405Y-54369087D01*
X132668271Y-54346548D01*
X132629234Y-54301495D01*
X132624626Y-54292452D01*
X132585270Y-54238282D01*
X132585269Y-54238282D01*
X131952962Y-54870590D01*
X131935925Y-54807007D01*
X131870099Y-54692993D01*
X131777007Y-54599901D01*
X131662993Y-54534075D01*
X131599409Y-54517037D01*
X132231716Y-53884728D01*
X132177550Y-53845375D01*
X131988217Y-53748904D01*
X131786129Y-53683242D01*
X131576246Y-53650000D01*
X131363754Y-53650000D01*
X131153872Y-53683242D01*
X131153869Y-53683242D01*
X130951782Y-53748904D01*
X130762439Y-53845380D01*
X130708282Y-53884727D01*
X130708282Y-53884728D01*
X131340591Y-54517037D01*
X131277007Y-54534075D01*
X131162993Y-54599901D01*
X131069901Y-54692993D01*
X131004075Y-54807007D01*
X130987037Y-54870591D01*
X130354728Y-54238282D01*
X130354727Y-54238282D01*
X130315380Y-54292440D01*
X130315376Y-54292446D01*
X130310760Y-54301505D01*
X130262781Y-54352297D01*
X130194959Y-54369087D01*
X130128826Y-54346543D01*
X130089794Y-54301493D01*
X130085051Y-54292184D01*
X130085049Y-54292181D01*
X130085048Y-54292179D01*
X129960109Y-54120213D01*
X129809786Y-53969890D01*
X129637820Y-53844951D01*
X129448414Y-53748444D01*
X129448413Y-53748443D01*
X129448412Y-53748443D01*
X129246243Y-53682754D01*
X129246241Y-53682753D01*
X129246240Y-53682753D01*
X129084957Y-53657208D01*
X129036287Y-53649500D01*
X128823713Y-53649500D01*
X128775042Y-53657208D01*
X128613760Y-53682753D01*
X128411585Y-53748444D01*
X128222179Y-53844951D01*
X128050213Y-53969890D01*
X127899890Y-54120213D01*
X127774949Y-54292182D01*
X127770484Y-54300946D01*
X127722509Y-54351742D01*
X127654688Y-54368536D01*
X127588553Y-54345998D01*
X127549516Y-54300946D01*
X127545050Y-54292182D01*
X127420109Y-54120213D01*
X127269786Y-53969890D01*
X127097820Y-53844951D01*
X126908414Y-53748444D01*
X126908413Y-53748443D01*
X126908412Y-53748443D01*
X126706243Y-53682754D01*
X126706241Y-53682753D01*
X126706240Y-53682753D01*
X126544957Y-53657208D01*
X126496287Y-53649500D01*
X126283713Y-53649500D01*
X126235042Y-53657208D01*
X126073760Y-53682753D01*
X125871585Y-53748444D01*
X125682179Y-53844951D01*
X125510213Y-53969890D01*
X125359890Y-54120213D01*
X125234949Y-54292182D01*
X125230484Y-54300946D01*
X125182509Y-54351742D01*
X125114688Y-54368536D01*
X125048553Y-54345998D01*
X125009516Y-54300946D01*
X125005050Y-54292182D01*
X124880109Y-54120213D01*
X124729786Y-53969890D01*
X124557820Y-53844951D01*
X124368414Y-53748444D01*
X124368413Y-53748443D01*
X124368412Y-53748443D01*
X124166243Y-53682754D01*
X124166241Y-53682753D01*
X124166240Y-53682753D01*
X124004957Y-53657208D01*
X123956287Y-53649500D01*
X123743713Y-53649500D01*
X123695042Y-53657208D01*
X123533760Y-53682753D01*
X123331585Y-53748444D01*
X123142179Y-53844951D01*
X122970213Y-53969890D01*
X122819890Y-54120213D01*
X122694949Y-54292182D01*
X122690202Y-54301499D01*
X122642227Y-54352293D01*
X122574405Y-54369087D01*
X122508271Y-54346548D01*
X122469234Y-54301495D01*
X122464626Y-54292452D01*
X122425270Y-54238282D01*
X122425269Y-54238282D01*
X121792962Y-54870590D01*
X121775925Y-54807007D01*
X121710099Y-54692993D01*
X121617007Y-54599901D01*
X121502993Y-54534075D01*
X121439409Y-54517037D01*
X122071716Y-53884728D01*
X122017550Y-53845375D01*
X121828217Y-53748904D01*
X121626129Y-53683242D01*
X121416246Y-53650000D01*
X121203754Y-53650000D01*
X120993872Y-53683242D01*
X120993869Y-53683242D01*
X120791782Y-53748904D01*
X120602439Y-53845380D01*
X120548282Y-53884727D01*
X120548282Y-53884728D01*
X121180591Y-54517037D01*
X121117007Y-54534075D01*
X121002993Y-54599901D01*
X120909901Y-54692993D01*
X120844075Y-54807007D01*
X120827037Y-54870591D01*
X120194728Y-54238282D01*
X120194727Y-54238282D01*
X120155380Y-54292440D01*
X120155376Y-54292446D01*
X120150760Y-54301505D01*
X120102781Y-54352297D01*
X120034959Y-54369087D01*
X119968826Y-54346543D01*
X119929794Y-54301493D01*
X119925051Y-54292184D01*
X119925049Y-54292181D01*
X119925048Y-54292179D01*
X119800109Y-54120213D01*
X119649786Y-53969890D01*
X119477820Y-53844951D01*
X119288414Y-53748444D01*
X119288413Y-53748443D01*
X119288412Y-53748443D01*
X119086243Y-53682754D01*
X119086241Y-53682753D01*
X119086240Y-53682753D01*
X118924957Y-53657208D01*
X118876287Y-53649500D01*
X118663713Y-53649500D01*
X118615042Y-53657208D01*
X118453760Y-53682753D01*
X118251585Y-53748444D01*
X118062179Y-53844951D01*
X117890213Y-53969890D01*
X117739892Y-54120211D01*
X117683097Y-54198385D01*
X117678765Y-54201725D01*
X117676492Y-54206703D01*
X117651389Y-54222835D01*
X117627767Y-54241051D01*
X117621095Y-54242303D01*
X117617714Y-54244477D01*
X117582779Y-54249500D01*
X117417221Y-54249500D01*
X117350182Y-54229815D01*
X117316903Y-54198385D01*
X117260107Y-54120211D01*
X117109786Y-53969890D01*
X116937820Y-53844951D01*
X116748414Y-53748444D01*
X116748413Y-53748443D01*
X116748412Y-53748443D01*
X116546243Y-53682754D01*
X116546241Y-53682753D01*
X116546240Y-53682753D01*
X116384957Y-53657208D01*
X116336287Y-53649500D01*
X116123713Y-53649500D01*
X116075042Y-53657208D01*
X115913760Y-53682753D01*
X115711585Y-53748444D01*
X115522179Y-53844951D01*
X115350213Y-53969890D01*
X115199890Y-54120213D01*
X115074951Y-54292179D01*
X114978444Y-54481585D01*
X114912753Y-54683760D01*
X114879500Y-54893713D01*
X114879500Y-55106292D01*
X114894616Y-55201728D01*
X114885662Y-55271021D01*
X114859824Y-55308807D01*
X114246045Y-55922586D01*
X114219679Y-55962049D01*
X114219678Y-55962051D01*
X114163914Y-56045507D01*
X114107343Y-56182082D01*
X114107340Y-56182092D01*
X114078500Y-56327079D01*
X114078500Y-56327082D01*
X114078500Y-59014918D01*
X114078500Y-59014920D01*
X114078499Y-59014920D01*
X114107340Y-59159907D01*
X114107343Y-59159917D01*
X114117247Y-59183827D01*
X114163916Y-59296495D01*
X114178684Y-59318597D01*
X114185970Y-59329502D01*
X114246049Y-59419418D01*
X114246052Y-59419421D01*
X118290641Y-63464008D01*
X119595048Y-64768415D01*
X119595049Y-64768416D01*
X119670433Y-64843800D01*
X119699585Y-64872952D01*
X119822498Y-64955080D01*
X119822511Y-64955087D01*
X119925628Y-64997799D01*
X119959087Y-65011658D01*
X119959091Y-65011658D01*
X119959092Y-65011659D01*
X120104079Y-65040500D01*
X120104082Y-65040500D01*
X134791170Y-65040500D01*
X134858209Y-65060185D01*
X134878851Y-65076819D01*
X137414581Y-67612549D01*
X137448066Y-67673872D01*
X137450900Y-67700230D01*
X137450900Y-76257030D01*
X137431215Y-76324069D01*
X137378411Y-76369824D01*
X137309253Y-76379768D01*
X137245697Y-76350743D01*
X137226870Y-76329404D01*
X137226853Y-76329419D01*
X137226447Y-76328925D01*
X137223799Y-76325923D01*
X137222988Y-76324709D01*
X137111492Y-76213213D01*
X137111488Y-76213210D01*
X136980385Y-76125609D01*
X136980372Y-76125602D01*
X136834701Y-76065264D01*
X136834689Y-76065261D01*
X136680045Y-76034500D01*
X136680042Y-76034500D01*
X136522358Y-76034500D01*
X136522355Y-76034500D01*
X136367710Y-76065261D01*
X136367698Y-76065264D01*
X136222027Y-76125602D01*
X136222014Y-76125609D01*
X136090911Y-76213210D01*
X136090907Y-76213213D01*
X135979413Y-76324707D01*
X135979407Y-76324715D01*
X135891807Y-76455818D01*
X135891805Y-76455822D01*
X135882005Y-76479480D01*
X135855127Y-76519704D01*
X134726451Y-77648381D01*
X134665128Y-77681866D01*
X134638770Y-77684700D01*
X130609080Y-77684700D01*
X130464092Y-77713540D01*
X130464086Y-77713542D01*
X130327508Y-77770114D01*
X130327496Y-77770121D01*
X130278270Y-77803011D01*
X130278271Y-77803012D01*
X130204581Y-77852249D01*
X129427903Y-78628927D01*
X129387680Y-78655805D01*
X129364019Y-78665606D01*
X129364018Y-78665607D01*
X129232915Y-78753207D01*
X129232907Y-78753213D01*
X129121413Y-78864707D01*
X129121410Y-78864711D01*
X129033809Y-78995814D01*
X129033802Y-78995827D01*
X128973464Y-79141498D01*
X128973461Y-79141510D01*
X128942700Y-79296153D01*
X128942700Y-79453846D01*
X128973461Y-79608489D01*
X128973464Y-79608501D01*
X129033802Y-79754172D01*
X129033809Y-79754185D01*
X129121410Y-79885288D01*
X129121413Y-79885292D01*
X129232907Y-79996786D01*
X129232911Y-79996789D01*
X129364014Y-80084390D01*
X129364027Y-80084397D01*
X129509698Y-80144735D01*
X129509703Y-80144737D01*
X129664353Y-80175499D01*
X129664356Y-80175500D01*
X129664358Y-80175500D01*
X129822044Y-80175500D01*
X129822045Y-80175499D01*
X129976697Y-80144737D01*
X130122379Y-80084394D01*
X130253489Y-79996789D01*
X130364989Y-79885289D01*
X130452594Y-79754179D01*
X130462391Y-79730524D01*
X130489269Y-79690297D01*
X130957549Y-79222019D01*
X131018872Y-79188534D01*
X131045230Y-79185700D01*
X135074920Y-79185700D01*
X135172462Y-79166296D01*
X135219913Y-79156858D01*
X135356495Y-79100284D01*
X135406498Y-79066873D01*
X135479416Y-79018152D01*
X136916495Y-77581070D01*
X136956719Y-77554193D01*
X136980379Y-77544394D01*
X137111489Y-77456789D01*
X137222989Y-77345289D01*
X137223794Y-77344083D01*
X137224380Y-77343593D01*
X137226853Y-77340581D01*
X137227424Y-77341049D01*
X137277404Y-77299276D01*
X137346728Y-77290565D01*
X137409758Y-77320716D01*
X137446480Y-77380157D01*
X137450900Y-77412969D01*
X137450900Y-106368569D01*
X137431215Y-106435608D01*
X137414581Y-106456250D01*
X133362142Y-110508689D01*
X131576851Y-112293981D01*
X131515528Y-112327466D01*
X131489170Y-112330300D01*
X110415280Y-112330300D01*
X110270292Y-112359140D01*
X110270282Y-112359143D01*
X110133711Y-112415712D01*
X110133698Y-112415719D01*
X110010784Y-112497848D01*
X110010780Y-112497851D01*
X105185105Y-117323526D01*
X105123782Y-117357011D01*
X105078026Y-117358318D01*
X105022352Y-117349500D01*
X104817648Y-117349500D01*
X104793329Y-117353351D01*
X104615465Y-117381522D01*
X104420776Y-117444781D01*
X104238386Y-117537715D01*
X104072786Y-117658028D01*
X103928028Y-117802786D01*
X103807715Y-117968386D01*
X103714781Y-118150776D01*
X103651522Y-118345465D01*
X103619500Y-118547648D01*
X100500500Y-118547648D01*
X100500500Y-50624500D01*
X100520185Y-50557461D01*
X100572989Y-50511706D01*
X100624500Y-50500500D01*
X199375500Y-50500500D01*
X199442539Y-50520185D01*
G37*
%TD.AperFunction*%
%TD*%
M02*
