M48
; DRILL file {KiCad 9.0.1} date 2025-05-23T21:25:06+0300
; FORMAT={-:-/ absolute / metric / decimal}
; #@! TF.CreationDate,2025-05-23T21:25:06+03:00
; #@! TF.GenerationSoftware,Kicad,Pcbnew,9.0.1
; #@! TF.FileFunction,Plated,1,2,PTH
FMAT,2
METRIC
; #@! TA.AperFunction,Plated,PTH,ViaDrill
T1C0.300
; #@! TA.AperFunction,Plated,PTH,ComponentDrill
T2C0.800
; #@! TA.AperFunction,Plated,PTH,ComponentDrill
T3C1.000
%
G90
G05
T1
X129.743Y-79.375
X131.664Y-60.835
X134.163Y-59.563
X136.601Y-76.835
X141.109Y-65.456
X141.224Y-71.857
X143.739Y-73.127
X152.171Y-133.782
X179.374Y-117.26
X180.772Y-118.694
T2
X104.92Y-118.65
X104.92Y-121.19
X104.92Y-123.73
X104.92Y-126.27
X104.92Y-128.81
X104.92Y-131.35
X115.08Y-118.65
X115.08Y-121.19
X115.08Y-123.73
X115.08Y-126.27
X115.08Y-128.81
X115.08Y-131.35
X144.92Y-120.0
X144.92Y-127.62
X147.46Y-120.0
X147.46Y-127.62
X150.0Y-120.0
X150.0Y-127.62
X152.54Y-120.0
X152.54Y-127.62
T3
X102.362Y-139.954
X102.362Y-142.494
X102.362Y-145.034
X115.062Y-139.954
X115.062Y-142.494
X115.062Y-145.034
X116.23Y-55.0
X116.23Y-57.54
X118.77Y-55.0
X118.77Y-57.54
X121.31Y-55.0
X121.31Y-57.54
X122.428Y-124.968
X122.428Y-127.508
X122.428Y-130.048
X122.428Y-139.954
X122.428Y-142.494
X122.428Y-145.034
X123.85Y-55.0
X123.85Y-57.54
X126.39Y-55.0
X126.39Y-57.54
X128.93Y-55.0
X128.93Y-57.54
X131.47Y-55.0
X131.47Y-57.54
X134.01Y-55.0
X134.01Y-57.54
X135.128Y-124.968
X135.128Y-127.508
X135.128Y-130.048
X135.128Y-139.954
X135.128Y-142.494
X135.128Y-145.034
X136.55Y-55.0
X136.55Y-57.54
X139.09Y-55.0
X139.09Y-57.54
X141.63Y-55.0
X141.63Y-57.54
X142.494Y-139.954
X142.494Y-142.494
X142.494Y-145.034
X142.734Y-64.344
X142.734Y-66.884
X144.17Y-55.0
X144.17Y-57.54
X145.274Y-64.344
X145.274Y-66.884
X146.71Y-55.0
X146.71Y-57.54
X147.814Y-64.344
X147.814Y-66.884
X150.354Y-64.344
X150.354Y-66.884
X152.894Y-64.344
X152.894Y-66.884
X155.194Y-139.954
X155.194Y-142.494
X155.194Y-145.034
X155.434Y-64.344
X155.434Y-66.884
X157.974Y-64.344
X157.974Y-66.884
X160.514Y-64.344
X160.514Y-66.884
X162.306Y-124.968
X162.306Y-127.508
X162.306Y-130.048
X163.054Y-64.344
X163.054Y-66.884
X165.594Y-64.344
X165.594Y-66.884
X168.134Y-64.344
X168.134Y-66.884
X170.674Y-64.344
X170.674Y-66.884
X173.214Y-64.344
X173.214Y-66.884
X174.346Y-137.16
X175.006Y-124.968
X175.006Y-127.508
X175.006Y-130.048
X175.754Y-64.344
X175.754Y-66.884
X176.886Y-137.16
X178.294Y-64.344
X178.294Y-66.884
X179.426Y-137.16
X180.834Y-64.344
X180.834Y-66.884
X181.966Y-137.16
X182.372Y-124.968
X182.372Y-127.508
X182.372Y-130.048
X183.374Y-64.344
X183.374Y-66.884
X184.506Y-137.16
X185.914Y-64.344
X185.914Y-66.884
X188.454Y-64.344
X188.454Y-66.884
X190.994Y-64.344
X190.994Y-66.884
X195.072Y-124.968
X195.072Y-127.508
X195.072Y-130.048
M30
