%TF.GenerationSoftware,KiCad,Pcbnew,9.0.1*%
%TF.CreationDate,2025-05-23T21:25:04+03:00*%
%TF.ProjectId,Licenta_Ciolacu,4c696365-6e74-4615-9f43-696f6c616375,rev?*%
%TF.SameCoordinates,Original*%
%TF.FileFunction,Legend,Top*%
%TF.FilePolarity,Positive*%
%FSLAX46Y46*%
G04 Gerber Fmt 4.6, Leading zero omitted, Abs format (unit mm)*
G04 Created by KiCad (PCBNEW 9.0.1) date 2025-05-23 21:25:04*
%MOMM*%
%LPD*%
G01*
G04 APERTURE LIST*
%ADD10C,0.120000*%
%ADD11C,0.100000*%
G04 APERTURE END LIST*
D10*
%TO.C,SW5*%
X180992000Y-123588000D02*
X182372000Y-123588000D01*
X180992000Y-124968000D02*
X180992000Y-123588000D01*
X180992000Y-126238000D02*
X180992000Y-131428000D01*
X180992000Y-126238000D02*
X183752000Y-126238000D01*
X180992000Y-131428000D02*
X183752000Y-131428000D01*
X183752000Y-126238000D02*
X183752000Y-131428000D01*
X193692000Y-123588000D02*
X195072000Y-123588000D01*
X193692000Y-124968000D02*
X193692000Y-123588000D01*
X193692000Y-126238000D02*
X193692000Y-131428000D01*
X193692000Y-126238000D02*
X196452000Y-126238000D01*
X193692000Y-131428000D02*
X196452000Y-131428000D01*
X196452000Y-126238000D02*
X196452000Y-131428000D01*
D11*
%TO.C,J3*%
X107350000Y-53180000D02*
X107350000Y-109180000D01*
X107350000Y-109180000D02*
X117850000Y-109180000D01*
X107800000Y-53180000D02*
X107350000Y-53180000D01*
X107850000Y-53180000D02*
X107800000Y-53180000D01*
X117850000Y-50930000D02*
X117850000Y-53180000D01*
X117850000Y-53180000D02*
X107850000Y-53180000D01*
X117850000Y-109180000D02*
X117850000Y-111430000D01*
X117850000Y-111430000D02*
X127900000Y-111430000D01*
X127900000Y-109180000D02*
X127900000Y-111430000D01*
X127900000Y-109180000D02*
X171900000Y-109180000D01*
X128350000Y-50930000D02*
X117850000Y-50930000D01*
X128350000Y-53180000D02*
X128350000Y-50930000D01*
X171900000Y-109180000D02*
X171900000Y-111430000D01*
X171900000Y-111430000D02*
X182400000Y-111430000D01*
X172350000Y-50930000D02*
X172350000Y-53180000D01*
X172350000Y-53180000D02*
X128350000Y-53180000D01*
X182400000Y-109180000D02*
X182400000Y-111430000D01*
X182400000Y-109180000D02*
X192850000Y-109180000D01*
X182850000Y-50930000D02*
X172350000Y-50930000D01*
X182850000Y-53180000D02*
X182850000Y-50930000D01*
X192850000Y-53180000D02*
X182850000Y-53180000D01*
X192850000Y-109180000D02*
X192850000Y-53180000D01*
D10*
%TO.C,SW2*%
X141114000Y-138574000D02*
X142494000Y-138574000D01*
X141114000Y-139954000D02*
X141114000Y-138574000D01*
X141114000Y-141224000D02*
X141114000Y-146414000D01*
X141114000Y-141224000D02*
X143874000Y-141224000D01*
X141114000Y-146414000D02*
X143874000Y-146414000D01*
X143874000Y-141224000D02*
X143874000Y-146414000D01*
X153814000Y-138574000D02*
X155194000Y-138574000D01*
X153814000Y-139954000D02*
X153814000Y-138574000D01*
X153814000Y-141224000D02*
X153814000Y-146414000D01*
X153814000Y-141224000D02*
X156574000Y-141224000D01*
X153814000Y-146414000D02*
X156574000Y-146414000D01*
X156574000Y-141224000D02*
X156574000Y-146414000D01*
%TO.C,SW6*%
X121048000Y-138574000D02*
X122428000Y-138574000D01*
X121048000Y-139954000D02*
X121048000Y-138574000D01*
X121048000Y-141224000D02*
X121048000Y-146414000D01*
X121048000Y-141224000D02*
X123808000Y-141224000D01*
X121048000Y-146414000D02*
X123808000Y-146414000D01*
X123808000Y-141224000D02*
X123808000Y-146414000D01*
X133748000Y-138574000D02*
X135128000Y-138574000D01*
X133748000Y-139954000D02*
X133748000Y-138574000D01*
X133748000Y-141224000D02*
X133748000Y-146414000D01*
X133748000Y-141224000D02*
X136508000Y-141224000D01*
X133748000Y-146414000D02*
X136508000Y-146414000D01*
X136508000Y-141224000D02*
X136508000Y-146414000D01*
%TO.C,SW1*%
X121048000Y-123588000D02*
X122428000Y-123588000D01*
X121048000Y-124968000D02*
X121048000Y-123588000D01*
X121048000Y-126238000D02*
X121048000Y-131428000D01*
X121048000Y-126238000D02*
X123808000Y-126238000D01*
X121048000Y-131428000D02*
X123808000Y-131428000D01*
X123808000Y-126238000D02*
X123808000Y-131428000D01*
X133748000Y-123588000D02*
X135128000Y-123588000D01*
X133748000Y-124968000D02*
X133748000Y-123588000D01*
X133748000Y-126238000D02*
X133748000Y-131428000D01*
X133748000Y-126238000D02*
X136508000Y-126238000D01*
X133748000Y-131428000D02*
X136508000Y-131428000D01*
X136508000Y-126238000D02*
X136508000Y-131428000D01*
%TO.C,J1*%
D11*
X134264400Y-62153800D02*
X219264400Y-62153800D01*
X219264400Y-118153800D01*
X134264400Y-118153800D01*
X134264400Y-62153800D01*
X140464400Y-65653800D02*
G75*
G02*
X135064400Y-65653800I-2700000J0D01*
G01*
X135064400Y-65653800D02*
G75*
G02*
X140464400Y-65653800I2700000J0D01*
G01*
X140464400Y-114653800D02*
G75*
G02*
X135064400Y-114653800I-2700000J0D01*
G01*
X135064400Y-114653800D02*
G75*
G02*
X140464400Y-114653800I2700000J0D01*
G01*
X198464400Y-65653800D02*
G75*
G02*
X193064400Y-65653800I-2700000J0D01*
G01*
X193064400Y-65653800D02*
G75*
G02*
X198464400Y-65653800I2700000J0D01*
G01*
X198464400Y-114653800D02*
G75*
G02*
X193064400Y-114653800I-2700000J0D01*
G01*
X193064400Y-114653800D02*
G75*
G02*
X198464400Y-114653800I2700000J0D01*
G01*
D10*
%TO.C,SW4*%
X160926000Y-123588000D02*
X162306000Y-123588000D01*
X160926000Y-124968000D02*
X160926000Y-123588000D01*
X160926000Y-126238000D02*
X160926000Y-131428000D01*
X160926000Y-126238000D02*
X163686000Y-126238000D01*
X160926000Y-131428000D02*
X163686000Y-131428000D01*
X163686000Y-126238000D02*
X163686000Y-131428000D01*
X173626000Y-123588000D02*
X175006000Y-123588000D01*
X173626000Y-124968000D02*
X173626000Y-123588000D01*
X173626000Y-126238000D02*
X173626000Y-131428000D01*
X173626000Y-126238000D02*
X176386000Y-126238000D01*
X173626000Y-131428000D02*
X176386000Y-131428000D01*
X176386000Y-126238000D02*
X176386000Y-131428000D01*
%TO.C,SW3*%
X100982000Y-138574000D02*
X102362000Y-138574000D01*
X100982000Y-139954000D02*
X100982000Y-138574000D01*
X100982000Y-141224000D02*
X100982000Y-146414000D01*
X100982000Y-141224000D02*
X103742000Y-141224000D01*
X100982000Y-146414000D02*
X103742000Y-146414000D01*
X103742000Y-141224000D02*
X103742000Y-146414000D01*
X113682000Y-138574000D02*
X115062000Y-138574000D01*
X113682000Y-139954000D02*
X113682000Y-138574000D01*
X113682000Y-141224000D02*
X113682000Y-146414000D01*
X113682000Y-141224000D02*
X116442000Y-141224000D01*
X113682000Y-146414000D02*
X116442000Y-146414000D01*
X116442000Y-141224000D02*
X116442000Y-146414000D01*
%TO.C,J2*%
X172965600Y-138540000D02*
X172965600Y-137160000D01*
X174345600Y-138540000D02*
X172965600Y-138540000D01*
X175615600Y-135780000D02*
X185885600Y-135780000D01*
X175615600Y-138540000D02*
X175615600Y-135780000D01*
X175615600Y-138540000D02*
X185885600Y-138540000D01*
X185885600Y-138540000D02*
X185885600Y-135780000D01*
%TD*%
M02*
