%TF.GenerationSoftware,KiCad,Pcbnew,9.0.1*%
%TF.CreationDate,2025-05-23T21:25:04+03:00*%
%TF.ProjectId,Licenta_Ciolacu,4c696365-6e74-4615-9f43-696f6c616375,rev?*%
%TF.SameCoordinates,Original*%
%TF.FileFunction,Soldermask,Top*%
%TF.FilePolarity,Negative*%
%FSLAX46Y46*%
G04 Gerber Fmt 4.6, Leading zero omitted, Abs format (unit mm)*
G04 Created by KiCad (PCBNEW 9.0.1) date 2025-05-23 21:25:04*
%MOMM*%
%LPD*%
G01*
G04 APERTURE LIST*
G04 Aperture macros list*
%AMRoundRect*
0 Rectangle with rounded corners*
0 $1 Rounding radius*
0 $2 $3 $4 $5 $6 $7 $8 $9 X,Y pos of 4 corners*
0 Add a 4 corners polygon primitive as box body*
4,1,4,$2,$3,$4,$5,$6,$7,$8,$9,$2,$3,0*
0 Add four circle primitives for the rounded corners*
1,1,$1+$1,$2,$3*
1,1,$1+$1,$4,$5*
1,1,$1+$1,$6,$7*
1,1,$1+$1,$8,$9*
0 Add four rect primitives between the rounded corners*
20,1,$1+$1,$2,$3,$4,$5,0*
20,1,$1+$1,$4,$5,$6,$7,0*
20,1,$1+$1,$6,$7,$8,$9,0*
20,1,$1+$1,$8,$9,$2,$3,0*%
G04 Aperture macros list end*
%ADD10R,1.700000X1.700000*%
%ADD11C,1.700000*%
%ADD12RoundRect,0.250000X-0.550000X0.550000X-0.550000X-0.550000X0.550000X-0.550000X0.550000X0.550000X0*%
%ADD13C,1.600000*%
%ADD14RoundRect,0.250000X0.550000X0.550000X-0.550000X0.550000X-0.550000X-0.550000X0.550000X-0.550000X0*%
G04 APERTURE END LIST*
D10*
%TO.C,SW5*%
X182372000Y-124968000D03*
X195072000Y-124968000D03*
D11*
X182372000Y-130048000D03*
X195072000Y-130048000D03*
X182372000Y-127508000D03*
X195072000Y-127508000D03*
%TD*%
D10*
%TO.C,J3*%
X116230000Y-57540000D03*
D11*
X116230000Y-55000000D03*
X118770000Y-57540000D03*
X118770000Y-55000000D03*
X121310000Y-57540000D03*
X121310000Y-55000000D03*
X123850000Y-57540000D03*
X123850000Y-55000000D03*
X126390000Y-57540000D03*
X126390000Y-55000000D03*
X128930000Y-57540000D03*
X128930000Y-55000000D03*
X131470000Y-57540000D03*
X131470000Y-55000000D03*
X134010000Y-57540000D03*
X134010000Y-55000000D03*
X136550000Y-57540000D03*
X136550000Y-55000000D03*
X139090000Y-57540000D03*
X139090000Y-55000000D03*
X141630000Y-57540000D03*
X141630000Y-55000000D03*
X144170000Y-57540000D03*
X144170000Y-55000000D03*
X146710000Y-57540000D03*
X146710000Y-55000000D03*
%TD*%
D10*
%TO.C,SW2*%
X142494000Y-139954000D03*
X155194000Y-139954000D03*
D11*
X142494000Y-145034000D03*
X155194000Y-145034000D03*
X142494000Y-142494000D03*
X155194000Y-142494000D03*
%TD*%
D10*
%TO.C,SW6*%
X122428000Y-139954000D03*
X135128000Y-139954000D03*
D11*
X122428000Y-145034000D03*
X135128000Y-145034000D03*
X122428000Y-142494000D03*
X135128000Y-142494000D03*
%TD*%
D10*
%TO.C,SW1*%
X122428000Y-124968000D03*
X135128000Y-124968000D03*
D11*
X122428000Y-130048000D03*
X135128000Y-130048000D03*
X122428000Y-127508000D03*
X135128000Y-127508000D03*
%TD*%
D10*
%TO.C,J1*%
X142734400Y-66883800D03*
D11*
X142734400Y-64343800D03*
X145274400Y-66883800D03*
X145274400Y-64343800D03*
X147814400Y-66883800D03*
X147814400Y-64343800D03*
X150354400Y-66883800D03*
X150354400Y-64343800D03*
X152894400Y-66883800D03*
X152894400Y-64343800D03*
X155434400Y-66883800D03*
X155434400Y-64343800D03*
X157974400Y-66883800D03*
X157974400Y-64343800D03*
X160514400Y-66883800D03*
X160514400Y-64343800D03*
X163054400Y-66883800D03*
X163054400Y-64343800D03*
X165594400Y-66883800D03*
X165594400Y-64343800D03*
X168134400Y-66883800D03*
X168134400Y-64343800D03*
X170674400Y-66883800D03*
X170674400Y-64343800D03*
X173214400Y-66883800D03*
X173214400Y-64343800D03*
X175754400Y-66883800D03*
X175754400Y-64343800D03*
X178294400Y-66883800D03*
X178294400Y-64343800D03*
X180834400Y-66883800D03*
X180834400Y-64343800D03*
X183374400Y-66883800D03*
X183374400Y-64343800D03*
X185914400Y-66883800D03*
X185914400Y-64343800D03*
X188454400Y-66883800D03*
X188454400Y-64343800D03*
X190994400Y-66883800D03*
X190994400Y-64343800D03*
%TD*%
D10*
%TO.C,SW4*%
X162306000Y-124968000D03*
X175006000Y-124968000D03*
D11*
X162306000Y-130048000D03*
X175006000Y-130048000D03*
X162306000Y-127508000D03*
X175006000Y-127508000D03*
%TD*%
D10*
%TO.C,SW3*%
X102362000Y-139954000D03*
X115062000Y-139954000D03*
D11*
X102362000Y-145034000D03*
X115062000Y-145034000D03*
X102362000Y-142494000D03*
X115062000Y-142494000D03*
%TD*%
D10*
%TO.C,J2*%
X174345600Y-137160000D03*
D11*
X176885600Y-137160000D03*
X179425600Y-137160000D03*
X181965600Y-137160000D03*
X184505600Y-137160000D03*
%TD*%
D12*
%TO.C,U1*%
X144920000Y-120000000D03*
D13*
X147460000Y-120000000D03*
X150000000Y-120000000D03*
X152540000Y-120000000D03*
X152540000Y-127620000D03*
X150000000Y-127620000D03*
X147460000Y-127620000D03*
X144920000Y-127620000D03*
%TD*%
D14*
%TO.C,J4*%
X115080000Y-118650000D03*
D13*
X115080000Y-121190000D03*
X115080000Y-123730000D03*
X115080000Y-126270000D03*
X115080000Y-128810000D03*
X115080000Y-131350000D03*
X104920000Y-131350000D03*
X104920000Y-128810000D03*
X104920000Y-126270000D03*
X104920000Y-123730000D03*
X104920000Y-121190000D03*
X104920000Y-118650000D03*
%TD*%
M02*
