%TF.GenerationSoftware,KiCad,Pcbnew,9.0.1*%
%TF.CreationDate,2025-05-23T21:25:04+03:00*%
%TF.ProjectId,Licenta_Ciolacu,4c696365-6e74-4615-9f43-696f6c616375,rev?*%
%TF.SameCoordinates,Original*%
%TF.FileFunction,AssemblyDrawing,Bot*%
%FSLAX46Y46*%
G04 Gerber Fmt 4.6, Leading zero omitted, Abs format (unit mm)*
G04 Created by KiCad (PCBNEW 9.0.1) date 2025-05-23 21:25:04*
%MOMM*%
%LPD*%
G01*
G04 APERTURE LIST*
%ADD10C,0.150000*%
%ADD11C,0.100000*%
G04 APERTURE END LIST*
D10*
X155039104Y-120667143D02*
X155039104Y-121143333D01*
X155324819Y-120571905D02*
X154324819Y-120905238D01*
X154324819Y-120905238D02*
X155324819Y-121238571D01*
X155324819Y-121571905D02*
X154324819Y-121571905D01*
X154324819Y-121571905D02*
X154324819Y-121810000D01*
X154324819Y-121810000D02*
X154372438Y-121952857D01*
X154372438Y-121952857D02*
X154467676Y-122048095D01*
X154467676Y-122048095D02*
X154562914Y-122095714D01*
X154562914Y-122095714D02*
X154753390Y-122143333D01*
X154753390Y-122143333D02*
X154896247Y-122143333D01*
X154896247Y-122143333D02*
X155086723Y-122095714D01*
X155086723Y-122095714D02*
X155181961Y-122048095D01*
X155181961Y-122048095D02*
X155277200Y-121952857D01*
X155277200Y-121952857D02*
X155324819Y-121810000D01*
X155324819Y-121810000D02*
X155324819Y-121571905D01*
X155229580Y-123143333D02*
X155277200Y-123095714D01*
X155277200Y-123095714D02*
X155324819Y-122952857D01*
X155324819Y-122952857D02*
X155324819Y-122857619D01*
X155324819Y-122857619D02*
X155277200Y-122714762D01*
X155277200Y-122714762D02*
X155181961Y-122619524D01*
X155181961Y-122619524D02*
X155086723Y-122571905D01*
X155086723Y-122571905D02*
X154896247Y-122524286D01*
X154896247Y-122524286D02*
X154753390Y-122524286D01*
X154753390Y-122524286D02*
X154562914Y-122571905D01*
X154562914Y-122571905D02*
X154467676Y-122619524D01*
X154467676Y-122619524D02*
X154372438Y-122714762D01*
X154372438Y-122714762D02*
X154324819Y-122857619D01*
X154324819Y-122857619D02*
X154324819Y-122952857D01*
X154324819Y-122952857D02*
X154372438Y-123095714D01*
X154372438Y-123095714D02*
X154420057Y-123143333D01*
X154324819Y-123762381D02*
X154324819Y-123857619D01*
X154324819Y-123857619D02*
X154372438Y-123952857D01*
X154372438Y-123952857D02*
X154420057Y-124000476D01*
X154420057Y-124000476D02*
X154515295Y-124048095D01*
X154515295Y-124048095D02*
X154705771Y-124095714D01*
X154705771Y-124095714D02*
X154943866Y-124095714D01*
X154943866Y-124095714D02*
X155134342Y-124048095D01*
X155134342Y-124048095D02*
X155229580Y-124000476D01*
X155229580Y-124000476D02*
X155277200Y-123952857D01*
X155277200Y-123952857D02*
X155324819Y-123857619D01*
X155324819Y-123857619D02*
X155324819Y-123762381D01*
X155324819Y-123762381D02*
X155277200Y-123667143D01*
X155277200Y-123667143D02*
X155229580Y-123619524D01*
X155229580Y-123619524D02*
X155134342Y-123571905D01*
X155134342Y-123571905D02*
X154943866Y-123524286D01*
X154943866Y-123524286D02*
X154705771Y-123524286D01*
X154705771Y-123524286D02*
X154515295Y-123571905D01*
X154515295Y-123571905D02*
X154420057Y-123619524D01*
X154420057Y-123619524D02*
X154372438Y-123667143D01*
X154372438Y-123667143D02*
X154324819Y-123762381D01*
X154753390Y-124667143D02*
X154705771Y-124571905D01*
X154705771Y-124571905D02*
X154658152Y-124524286D01*
X154658152Y-124524286D02*
X154562914Y-124476667D01*
X154562914Y-124476667D02*
X154515295Y-124476667D01*
X154515295Y-124476667D02*
X154420057Y-124524286D01*
X154420057Y-124524286D02*
X154372438Y-124571905D01*
X154372438Y-124571905D02*
X154324819Y-124667143D01*
X154324819Y-124667143D02*
X154324819Y-124857619D01*
X154324819Y-124857619D02*
X154372438Y-124952857D01*
X154372438Y-124952857D02*
X154420057Y-125000476D01*
X154420057Y-125000476D02*
X154515295Y-125048095D01*
X154515295Y-125048095D02*
X154562914Y-125048095D01*
X154562914Y-125048095D02*
X154658152Y-125000476D01*
X154658152Y-125000476D02*
X154705771Y-124952857D01*
X154705771Y-124952857D02*
X154753390Y-124857619D01*
X154753390Y-124857619D02*
X154753390Y-124667143D01*
X154753390Y-124667143D02*
X154801009Y-124571905D01*
X154801009Y-124571905D02*
X154848628Y-124524286D01*
X154848628Y-124524286D02*
X154943866Y-124476667D01*
X154943866Y-124476667D02*
X155134342Y-124476667D01*
X155134342Y-124476667D02*
X155229580Y-124524286D01*
X155229580Y-124524286D02*
X155277200Y-124571905D01*
X155277200Y-124571905D02*
X155324819Y-124667143D01*
X155324819Y-124667143D02*
X155324819Y-124857619D01*
X155324819Y-124857619D02*
X155277200Y-124952857D01*
X155277200Y-124952857D02*
X155229580Y-125000476D01*
X155229580Y-125000476D02*
X155134342Y-125048095D01*
X155134342Y-125048095D02*
X154943866Y-125048095D01*
X154943866Y-125048095D02*
X154848628Y-125000476D01*
X154848628Y-125000476D02*
X154801009Y-124952857D01*
X154801009Y-124952857D02*
X154753390Y-124857619D01*
X154324819Y-125381429D02*
X154324819Y-126000476D01*
X154324819Y-126000476D02*
X154705771Y-125667143D01*
X154705771Y-125667143D02*
X154705771Y-125810000D01*
X154705771Y-125810000D02*
X154753390Y-125905238D01*
X154753390Y-125905238D02*
X154801009Y-125952857D01*
X154801009Y-125952857D02*
X154896247Y-126000476D01*
X154896247Y-126000476D02*
X155134342Y-126000476D01*
X155134342Y-126000476D02*
X155229580Y-125952857D01*
X155229580Y-125952857D02*
X155277200Y-125905238D01*
X155277200Y-125905238D02*
X155324819Y-125810000D01*
X155324819Y-125810000D02*
X155324819Y-125524286D01*
X155324819Y-125524286D02*
X155277200Y-125429048D01*
X155277200Y-125429048D02*
X155229580Y-125381429D01*
X154420057Y-126381429D02*
X154372438Y-126429048D01*
X154372438Y-126429048D02*
X154324819Y-126524286D01*
X154324819Y-126524286D02*
X154324819Y-126762381D01*
X154324819Y-126762381D02*
X154372438Y-126857619D01*
X154372438Y-126857619D02*
X154420057Y-126905238D01*
X154420057Y-126905238D02*
X154515295Y-126952857D01*
X154515295Y-126952857D02*
X154610533Y-126952857D01*
X154610533Y-126952857D02*
X154753390Y-126905238D01*
X154753390Y-126905238D02*
X155324819Y-126333810D01*
X155324819Y-126333810D02*
X155324819Y-126952857D01*
X149491904Y-123264819D02*
X149491904Y-124074342D01*
X149491904Y-124074342D02*
X149444285Y-124169580D01*
X149444285Y-124169580D02*
X149396666Y-124217200D01*
X149396666Y-124217200D02*
X149301428Y-124264819D01*
X149301428Y-124264819D02*
X149110952Y-124264819D01*
X149110952Y-124264819D02*
X149015714Y-124217200D01*
X149015714Y-124217200D02*
X148968095Y-124169580D01*
X148968095Y-124169580D02*
X148920476Y-124074342D01*
X148920476Y-124074342D02*
X148920476Y-123264819D01*
X147920476Y-124264819D02*
X148491904Y-124264819D01*
X148206190Y-124264819D02*
X148206190Y-123264819D01*
X148206190Y-123264819D02*
X148301428Y-123407676D01*
X148301428Y-123407676D02*
X148396666Y-123502914D01*
X148396666Y-123502914D02*
X148491904Y-123550533D01*
X114047620Y-134134819D02*
X114523810Y-134134819D01*
X114523810Y-134134819D02*
X114523810Y-133134819D01*
X113333334Y-134087200D02*
X113428572Y-134134819D01*
X113428572Y-134134819D02*
X113619048Y-134134819D01*
X113619048Y-134134819D02*
X113714286Y-134087200D01*
X113714286Y-134087200D02*
X113761905Y-133991961D01*
X113761905Y-133991961D02*
X113761905Y-133611009D01*
X113761905Y-133611009D02*
X113714286Y-133515771D01*
X113714286Y-133515771D02*
X113619048Y-133468152D01*
X113619048Y-133468152D02*
X113428572Y-133468152D01*
X113428572Y-133468152D02*
X113333334Y-133515771D01*
X113333334Y-133515771D02*
X113285715Y-133611009D01*
X113285715Y-133611009D02*
X113285715Y-133706247D01*
X113285715Y-133706247D02*
X113761905Y-133801485D01*
X112952381Y-133468152D02*
X112714286Y-134134819D01*
X112714286Y-134134819D02*
X112476191Y-133468152D01*
X111714286Y-134087200D02*
X111809524Y-134134819D01*
X111809524Y-134134819D02*
X112000000Y-134134819D01*
X112000000Y-134134819D02*
X112095238Y-134087200D01*
X112095238Y-134087200D02*
X112142857Y-133991961D01*
X112142857Y-133991961D02*
X112142857Y-133611009D01*
X112142857Y-133611009D02*
X112095238Y-133515771D01*
X112095238Y-133515771D02*
X112000000Y-133468152D01*
X112000000Y-133468152D02*
X111809524Y-133468152D01*
X111809524Y-133468152D02*
X111714286Y-133515771D01*
X111714286Y-133515771D02*
X111666667Y-133611009D01*
X111666667Y-133611009D02*
X111666667Y-133706247D01*
X111666667Y-133706247D02*
X112142857Y-133801485D01*
X111095238Y-134134819D02*
X111190476Y-134087200D01*
X111190476Y-134087200D02*
X111238095Y-133991961D01*
X111238095Y-133991961D02*
X111238095Y-133134819D01*
X109999999Y-134087200D02*
X109857142Y-134134819D01*
X109857142Y-134134819D02*
X109619047Y-134134819D01*
X109619047Y-134134819D02*
X109523809Y-134087200D01*
X109523809Y-134087200D02*
X109476190Y-134039580D01*
X109476190Y-134039580D02*
X109428571Y-133944342D01*
X109428571Y-133944342D02*
X109428571Y-133849104D01*
X109428571Y-133849104D02*
X109476190Y-133753866D01*
X109476190Y-133753866D02*
X109523809Y-133706247D01*
X109523809Y-133706247D02*
X109619047Y-133658628D01*
X109619047Y-133658628D02*
X109809523Y-133611009D01*
X109809523Y-133611009D02*
X109904761Y-133563390D01*
X109904761Y-133563390D02*
X109952380Y-133515771D01*
X109952380Y-133515771D02*
X109999999Y-133420533D01*
X109999999Y-133420533D02*
X109999999Y-133325295D01*
X109999999Y-133325295D02*
X109952380Y-133230057D01*
X109952380Y-133230057D02*
X109904761Y-133182438D01*
X109904761Y-133182438D02*
X109809523Y-133134819D01*
X109809523Y-133134819D02*
X109571428Y-133134819D01*
X109571428Y-133134819D02*
X109428571Y-133182438D01*
X108999999Y-134134819D02*
X108999999Y-133134819D01*
X108571428Y-134134819D02*
X108571428Y-133611009D01*
X108571428Y-133611009D02*
X108619047Y-133515771D01*
X108619047Y-133515771D02*
X108714285Y-133468152D01*
X108714285Y-133468152D02*
X108857142Y-133468152D01*
X108857142Y-133468152D02*
X108952380Y-133515771D01*
X108952380Y-133515771D02*
X108999999Y-133563390D01*
X108095237Y-134134819D02*
X108095237Y-133468152D01*
X108095237Y-133134819D02*
X108142856Y-133182438D01*
X108142856Y-133182438D02*
X108095237Y-133230057D01*
X108095237Y-133230057D02*
X108047618Y-133182438D01*
X108047618Y-133182438D02*
X108095237Y-133134819D01*
X108095237Y-133134819D02*
X108095237Y-133230057D01*
X107761904Y-133468152D02*
X107380952Y-133468152D01*
X107619047Y-134134819D02*
X107619047Y-133277676D01*
X107619047Y-133277676D02*
X107571428Y-133182438D01*
X107571428Y-133182438D02*
X107476190Y-133134819D01*
X107476190Y-133134819D02*
X107380952Y-133134819D01*
X107190475Y-133468152D02*
X106809523Y-133468152D01*
X107047618Y-133134819D02*
X107047618Y-133991961D01*
X107047618Y-133991961D02*
X106999999Y-134087200D01*
X106999999Y-134087200D02*
X106904761Y-134134819D01*
X106904761Y-134134819D02*
X106809523Y-134134819D01*
X106095237Y-134087200D02*
X106190475Y-134134819D01*
X106190475Y-134134819D02*
X106380951Y-134134819D01*
X106380951Y-134134819D02*
X106476189Y-134087200D01*
X106476189Y-134087200D02*
X106523808Y-133991961D01*
X106523808Y-133991961D02*
X106523808Y-133611009D01*
X106523808Y-133611009D02*
X106476189Y-133515771D01*
X106476189Y-133515771D02*
X106380951Y-133468152D01*
X106380951Y-133468152D02*
X106190475Y-133468152D01*
X106190475Y-133468152D02*
X106095237Y-133515771D01*
X106095237Y-133515771D02*
X106047618Y-133611009D01*
X106047618Y-133611009D02*
X106047618Y-133706247D01*
X106047618Y-133706247D02*
X106523808Y-133801485D01*
X105619046Y-134134819D02*
X105619046Y-133468152D01*
X105619046Y-133658628D02*
X105571427Y-133563390D01*
X105571427Y-133563390D02*
X105523808Y-133515771D01*
X105523808Y-133515771D02*
X105428570Y-133468152D01*
X105428570Y-133468152D02*
X105333332Y-133468152D01*
D11*
%TO.C,U1*%
X143650000Y-121635000D02*
X143650000Y-126985000D01*
X143650000Y-126985000D02*
X153810000Y-126985000D01*
X144650000Y-120635000D02*
X143650000Y-121635000D01*
X153810000Y-120635000D02*
X144650000Y-120635000D01*
X153810000Y-126985000D02*
X153810000Y-120635000D01*
%TO.C,J4*%
X106825000Y-117380000D02*
X106825000Y-132620000D01*
X106825000Y-132620000D02*
X113175000Y-132620000D01*
X112175000Y-117380000D02*
X106825000Y-117380000D01*
X113175000Y-118380000D02*
X112175000Y-117380000D01*
X113175000Y-132620000D02*
X113175000Y-118380000D01*
%TD*%
M02*
